<svg width="21" height="22" viewBox="0 0 21 22" fill="none" xmlns="http://www.w3.org/2000/svg">
<path d="M2.25 0.5C1.00781 0.5 0 1.50781 0 2.75V19.25C0 20.4922 1.00781 21.5 2.25 21.5H18.75C19.9922 21.5 21 20.4922 21 19.25V2.75C21 1.50781 19.9922 0.5 18.75 0.5H2.25ZM15.2438 3.5C15.5076 3.5 15.7468 3.53052 15.959 3.59281C16.1688 3.65459 16.357 3.73977 16.523 3.8488C16.6866 3.9567 16.8282 4.08378 16.945 4.22764C17.0625 4.36864 17.1607 4.52469 17.2369 4.69166C17.2663 4.74439 17.258 4.78634 17.2111 4.81569L16.5596 5.08358C16.5044 5.11302 16.4655 5.09802 16.4349 5.03984C16.2887 4.76891 16.164 4.59092 15.959 4.4615C15.7516 4.33259 15.5597 4.27142 15.2438 4.27142C14.9003 4.27142 14.7469 4.33972 14.5317 4.4938C14.3183 4.64488 14.1619 4.83486 14.0695 5.12431C14.051 5.17653 14.0342 5.24131 14.0145 5.31744C13.9982 5.39478 13.9851 5.48947 13.9767 5.60033C13.9683 5.71123 13.9605 5.84853 13.9533 6.01039C13.9485 6.17225 13.9462 6.3688 13.9462 6.59661C13.9462 6.82555 13.9485 7.02214 13.9533 7.18395C13.9605 7.3452 13.9683 7.48255 13.9767 7.59341C13.9851 7.70548 13.9983 7.79966 14.0145 7.87761C14.0342 7.95252 14.051 8.01716 14.0695 8.06994C14.1619 8.35822 14.2937 8.51591 14.4879 8.64242C14.6797 8.77072 14.9003 8.86306 15.2438 8.86306C15.549 8.86306 15.8283 8.77611 16.0105 8.64359C16.191 8.51117 16.3408 8.33614 16.4079 8.09694C16.4373 7.99625 16.4751 7.87091 16.5008 7.71748C16.5242 7.56402 16.5243 7.40164 16.5243 7.17748C16.5243 7.14209 16.5044 7.12405 16.4715 7.12405H15.4278C15.3691 7.12405 15.3403 7.09531 15.3403 7.03658V6.43841C15.3403 6.37902 15.3691 6.35023 15.4278 6.35023H17.343C17.403 6.35023 17.4312 6.37902 17.4312 6.43836V6.94963C17.4312 7.22056 17.4312 7.47181 17.403 7.70436C17.376 7.93695 17.3395 8.13828 17.2933 8.28509C17.1471 8.74494 16.915 9.07227 16.5596 9.31616C16.2029 9.56192 15.7432 9.69434 15.2438 9.69434C14.7307 9.69434 14.2986 9.57641 13.9462 9.34198C13.5931 9.10461 13.3406 8.75624 13.1866 8.29048C13.1571 8.20112 13.1339 8.10981 13.1171 8.0172C13.0991 7.92313 13.0829 7.81339 13.0685 7.68688C13.0535 7.55923 13.044 7.40942 13.038 7.23261C13.032 7.05702 13.0296 6.84238 13.0296 6.59661C13.0296 6.34958 13.032 6.13808 13.038 5.96187C13.044 5.78502 13.0535 5.63328 13.0685 5.50681C13.0829 5.38095 13.0991 5.2707 13.1171 5.17663C13.1345 5.08194 13.1573 4.99194 13.1867 4.90386C13.3407 4.43811 13.5931 4.08805 13.9462 3.85302C14.2986 3.61803 14.7307 3.5 15.2438 3.5ZM8.13403 7.14748C10.1763 7.14748 11.7342 8.07833 11.7342 10.084C11.7342 11.4447 10.66 12.8067 9.20944 13.1459C10.0875 14.7044 11.1431 16.0832 11.9319 16.9415C12.3959 17.4432 13.0403 17.8916 13.6847 17.8916V18.3562C13.4882 18.4467 13.1662 18.5 12.8623 18.5C11.8235 18.5 11.0005 18.0888 10.4623 17.4432C9.87234 16.7634 8.83355 15.2942 7.74136 13.3431C7.16714 13.3431 6.7913 13.3431 6.3615 13.3071V16.2971C6.3615 17.4078 6.61331 17.641 7.09641 17.7112L8.02795 17.8382V18.3561C7.58016 18.3388 6.54136 18.3034 5.73577 18.3034C4.89352 18.3034 4.05188 18.3388 3.56873 18.3562V17.8381L4.24856 17.7111C4.71609 17.6225 4.98225 17.4078 4.98225 16.297V9.24247C4.98225 8.13116 4.71609 7.91773 4.24856 7.82778L3.56878 7.70309V7.18344C4.01531 7.20078 4.73227 7.20078 5.44983 7.20078C6.2362 7.20078 7.07845 7.14748 8.13403 7.14748ZM7.81214 7.95303C7.32839 7.95303 6.77452 7.95303 6.3615 7.98903V12.4818C6.77452 12.5207 7.04189 12.5369 7.65094 12.5369C9.24539 12.5369 10.2117 11.588 10.2117 10.1734C10.2117 8.74198 9.3173 7.95303 7.81214 7.95303Z" fill="#818181"/>
</svg>
