<svg width="145" height="28" viewBox="0 0 145 28" fill="none" xmlns="http://www.w3.org/2000/svg">
<mask id="mask0_728_7685" style="mask-type:luminance" maskUnits="userSpaceOnUse" x="2" y="0" width="28" height="28">
<path d="M30 0H2V28H30V0Z" fill="white"/>
</mask>
<g mask="url(#mask0_728_7685)">
<path d="M15.4591 0.3765C14.5079 0.417265 13.626 0.51918 13.4995 0.596635C13.4668 0.617017 13.3362 0.64963 13.2137 0.665936C12.8544 0.710779 12.4339 0.808616 12.3849 0.857535C12.3604 0.881995 12.2828 0.902378 12.2093 0.902378C12.1399 0.902378 12.0583 0.930914 12.0297 0.963526C12.0011 0.996139 11.9276 1.02468 11.8664 1.02468C11.8052 1.02468 11.6174 1.07767 11.4541 1.14698C11.2867 1.2122 11.1234 1.26927 11.0907 1.26927C11.058 1.26927 10.9927 1.29781 10.9519 1.33042C10.907 1.36303 10.8457 1.39157 10.8131 1.39157C10.7151 1.39157 9.49438 2.00713 8.96772 2.32103C8.50638 2.59824 8.35124 2.70015 8.00421 2.96105C7.94297 3.00589 7.85315 3.07112 7.80416 3.10373C7.69393 3.17711 7.35507 3.45024 7.02846 3.73152C6.72226 3.99242 5.94655 4.7629 5.68935 5.06049C5.08103 5.76166 4.19101 7.06208 3.86848 7.71026C3.77458 7.89778 3.73375 7.98339 3.66027 8.10569C3.63577 8.14645 3.60719 8.2076 3.59494 8.24021C3.5827 8.27283 3.51737 8.41551 3.45205 8.55411C3.38673 8.69679 3.33365 8.83132 3.33365 8.85985C3.33365 8.88839 3.30508 8.94954 3.27242 8.9903C3.23975 9.03515 3.21118 9.10037 3.21118 9.13298C3.21118 9.16967 3.15402 9.33274 3.0887 9.49988C3.01929 9.66294 2.96622 9.85046 2.96622 9.91161C2.96622 9.97276 2.93764 10.0461 2.90498 10.0746C2.87231 10.1032 2.84374 10.1847 2.84374 10.254C2.84374 10.3274 2.82332 10.4048 2.79883 10.4293C2.74983 10.4782 2.65593 10.8818 2.60286 11.2568C2.58653 11.3791 2.54978 11.5259 2.52529 11.583C2.48038 11.689 2.41914 12.1292 2.35382 12.8467C2.24767 13.98 2.34565 16.1202 2.52529 16.6175C2.54978 16.6828 2.58245 16.8418 2.59878 16.9641C2.64369 17.2657 2.75392 17.7264 2.80291 17.8201C2.82332 17.8609 2.84374 17.9547 2.84374 18.024C2.84374 18.0973 2.86823 18.1585 2.90498 18.1707C2.94172 18.187 2.96622 18.2482 2.96622 18.3338C2.96622 18.4112 2.98255 18.505 3.00296 18.5458C3.12544 18.7944 3.21118 19.0186 3.21118 19.1002C3.21118 19.1532 3.23975 19.2184 3.27242 19.2469C3.30508 19.2755 3.33365 19.3244 3.33365 19.3529C3.33365 19.41 3.54595 19.9033 3.62352 20.0215C3.64394 20.0541 3.67252 20.1112 3.68476 20.1438C3.78683 20.4291 4.55845 21.7255 4.81974 22.0638C4.86873 22.1209 4.93406 22.2147 4.96672 22.2636C5.13411 22.5204 5.81591 23.3194 6.25275 23.7638C6.70184 24.2285 7.43264 24.8604 7.89806 25.1906C8.00421 25.268 8.12669 25.3618 8.17568 25.4066C8.22059 25.4474 8.26958 25.4841 8.28591 25.4841C8.30224 25.4841 8.43289 25.5656 8.58395 25.6675C8.73092 25.7695 8.85749 25.851 8.86973 25.851C8.8779 25.851 8.95547 25.8918 9.0412 25.9447C9.20043 26.0467 9.62911 26.2831 9.8659 26.4054C9.94347 26.4421 10.0374 26.491 10.07 26.5114C10.1027 26.5277 10.1598 26.5562 10.1925 26.5685C10.2252 26.5848 10.3681 26.6459 10.511 26.7111C10.6498 26.7764 10.7886 26.8294 10.8212 26.8294C10.8498 26.8294 10.8988 26.8579 10.9274 26.8905C10.956 26.9231 11.0213 26.9517 11.0744 26.9517C11.1274 26.9517 11.2417 26.9884 11.3234 27.0332C11.4091 27.078 11.5071 27.1147 11.5479 27.1147C11.5847 27.1147 11.6296 27.131 11.6419 27.1555C11.6541 27.1759 11.7358 27.1963 11.8256 27.1963C11.9236 27.1963 11.9889 27.2166 12.0052 27.2574C12.0175 27.2941 12.0787 27.3186 12.1604 27.3186C12.2338 27.3186 12.3318 27.3471 12.3726 27.3797C12.4176 27.4123 12.4992 27.4409 12.5564 27.4409C12.6094 27.4409 12.7605 27.4653 12.883 27.4979C13.0095 27.5305 13.2055 27.5754 13.3157 27.6039C14.0016 27.7751 14.663 27.8281 16.0715 27.8281C16.7329 27.8281 17.4147 27.8159 17.5821 27.7996C17.9945 27.7588 18.5864 27.6691 18.7865 27.6121C18.8763 27.5917 19.0968 27.5387 19.2764 27.502C19.4561 27.4653 19.6765 27.4082 19.7663 27.3756C19.8602 27.343 19.9705 27.3186 20.0113 27.3186C20.0562 27.3186 20.1297 27.29 20.1705 27.2574C20.2154 27.2248 20.3012 27.1963 20.3624 27.1963C20.4236 27.1963 20.489 27.1759 20.5012 27.1555C20.5135 27.131 20.5584 27.1147 20.5951 27.1147C20.6359 27.1147 20.738 27.078 20.8278 27.0332C20.9176 26.9884 21.0279 26.9517 21.0769 26.9517C21.1259 26.9517 21.1871 26.9231 21.2157 26.8905C21.2443 26.8579 21.2973 26.8294 21.3341 26.8294C21.3953 26.8294 21.5055 26.7804 22.1955 26.4462C22.4935 26.3035 22.563 26.2627 22.7181 26.1771C22.7548 26.1527 22.8161 26.1241 22.8487 26.1078C22.8814 26.0915 22.9835 26.0344 23.0733 25.9774C23.2978 25.8347 23.3427 25.8061 23.5795 25.6675C23.6938 25.5982 23.7877 25.533 23.7877 25.5126C23.7877 25.4963 23.8082 25.4841 23.8286 25.4841C23.8735 25.4841 24.5267 25.0031 24.8043 24.7666C25.5025 24.1714 26.0863 23.6089 26.4823 23.1401C26.5803 23.0259 26.6742 22.9281 26.6905 22.924C26.7109 22.9159 26.7273 22.8873 26.7273 22.8547C26.7273 22.8262 26.7558 22.7772 26.7967 22.7487C26.8661 22.6876 27.4621 21.913 27.4621 21.8804C27.4621 21.8519 27.7153 21.4809 27.7765 21.4157C27.8051 21.3871 27.8296 21.3382 27.8296 21.3097C27.8296 21.2852 27.8541 21.2363 27.8827 21.2118C27.9643 21.1262 28.2868 20.5188 28.691 19.675C28.7563 19.5404 28.8094 19.3978 28.8094 19.3652C28.8094 19.3285 28.838 19.2755 28.8707 19.2469C28.9033 19.2184 28.9319 19.1573 28.9319 19.1083C28.9319 19.0594 28.9564 18.982 28.9891 18.9371C29.0217 18.8923 29.0585 18.7863 29.0748 18.7048C29.0911 18.6191 29.1197 18.5417 29.1401 18.5295C29.1605 18.5172 29.1769 18.4642 29.1769 18.4072C29.1769 18.3501 29.2013 18.2645 29.2258 18.2156C29.2912 18.1014 29.4096 17.6611 29.5035 17.1883C29.532 17.0537 29.577 16.8499 29.6055 16.7398C29.6668 16.5156 29.7607 15.9734 29.7607 15.843C29.7607 15.7982 29.777 15.6229 29.7933 15.4557C29.8546 14.9502 29.8382 13.1321 29.7688 12.541C29.6831 11.8113 29.6464 11.5911 29.5933 11.3995C29.5688 11.3098 29.5198 11.0897 29.4831 10.9103C29.4463 10.731 29.3892 10.5231 29.3565 10.4497C29.3238 10.3763 29.2993 10.2662 29.2993 10.2051C29.2993 10.1439 29.2708 10.0583 29.2381 10.0176C29.2054 9.97276 29.1769 9.8953 29.1769 9.84231C29.1769 9.78931 29.1605 9.71593 29.1401 9.67517C29.0625 9.52841 28.9319 9.1656 28.9319 9.0963C28.9319 9.05553 28.9033 9.00253 28.8707 8.974C28.838 8.94546 28.8094 8.89654 28.8094 8.86801C28.8094 8.81094 28.5971 8.31767 28.5195 8.19945C28.4991 8.16684 28.4706 8.10976 28.4583 8.07715C28.3971 7.91409 28.0949 7.35152 27.9398 7.111C27.8786 7.01317 27.8296 6.92756 27.8296 6.9194C27.8296 6.90717 27.7479 6.7808 27.6459 6.63404C27.5438 6.48321 27.4621 6.35684 27.4621 6.34461C27.4621 6.31199 27.0947 5.83911 26.6415 5.2847C26.221 4.77513 25.4576 3.98427 25.1922 3.7886C25.1269 3.7356 24.9146 3.56438 24.7227 3.40947C24.5349 3.25049 24.2532 3.03035 24.0939 2.92029C23.506 2.51263 23.2937 2.36995 23.2733 2.36995C23.2652 2.36995 23.1876 2.32511 23.1019 2.27619C22.9631 2.1865 22.4037 1.87668 22.2159 1.787C22.171 1.76254 22.1057 1.72993 22.073 1.70954C22.0404 1.69324 21.9832 1.6647 21.9506 1.65247C21.9179 1.64024 21.775 1.57502 21.6362 1.50979C21.4933 1.44457 21.3545 1.39157 21.3218 1.39157C21.2932 1.39157 21.2443 1.36303 21.2157 1.33042C21.1871 1.29781 21.1177 1.26927 21.0646 1.26927C21.0075 1.26927 20.9136 1.24481 20.8564 1.2122C20.6768 1.12252 20.4686 1.05729 20.3052 1.03691C20.2195 1.02468 20.1379 0.992062 20.1256 0.95945C20.1134 0.926837 20.0521 0.902378 19.9827 0.902378C19.9174 0.902378 19.8276 0.881995 19.7867 0.861612C19.6847 0.808616 19.2152 0.698549 18.9294 0.66186C18.8069 0.64963 18.6803 0.617017 18.6477 0.596635C18.5946 0.568099 18.1292 0.490644 17.6842 0.437648C17.6189 0.429495 17.2882 0.409112 16.9493 0.396882C16.6145 0.380576 16.292 0.36427 16.2348 0.360193C16.1777 0.35204 15.8307 0.360193 15.4591 0.3765ZM16.6227 0.94722C16.737 0.971679 17.0759 1.0043 17.378 1.0206C17.9741 1.05729 18.7253 1.16328 18.8477 1.22851C18.8886 1.25297 18.9947 1.26927 19.0804 1.26927C19.1662 1.27335 19.2805 1.29781 19.3377 1.33042C19.3948 1.36303 19.4805 1.38749 19.5336 1.39157C19.6357 1.39157 20.0889 1.53017 20.2032 1.5954C20.244 1.61986 20.3093 1.63616 20.3542 1.63616C20.3991 1.63616 20.4849 1.66062 20.5502 1.69324C20.6114 1.72585 20.7462 1.78292 20.8482 1.81961C21.2402 1.96637 22.2078 2.42294 22.318 2.51263C22.3507 2.54116 22.4201 2.57785 22.4731 2.59416C22.5221 2.60639 22.6814 2.69607 22.8283 2.78983C22.9712 2.8836 23.2366 3.05074 23.4162 3.16488C23.5999 3.27495 23.7469 3.38094 23.7469 3.40132C23.7469 3.41763 23.7877 3.44616 23.8408 3.46655C23.8898 3.48693 24.0164 3.57661 24.1225 3.67037C24.2246 3.76414 24.3307 3.83751 24.3512 3.83751C24.3757 3.83751 24.4328 3.88643 24.4777 3.94351C24.5226 4.00058 24.6369 4.10249 24.7308 4.17179C24.9636 4.33893 25.9271 5.31323 26.0577 5.50891C26.1189 5.59859 26.1802 5.67197 26.2006 5.67197C26.2292 5.67197 26.9722 6.62589 26.9722 6.66666C26.9722 6.67889 27.0498 6.80526 27.1478 6.94794C27.2458 7.08654 27.3356 7.22922 27.3519 7.26184C27.3682 7.29445 27.4172 7.37598 27.4621 7.44528C27.507 7.51051 27.5683 7.62058 27.6009 7.68988C27.6581 7.8081 27.801 8.07308 27.8745 8.19945C27.8949 8.23206 27.9316 8.30544 27.9521 8.36251C27.9766 8.41958 28.0419 8.56634 28.1031 8.68864C28.1603 8.81094 28.2378 8.97807 28.2705 9.05553C28.3032 9.13298 28.3562 9.25121 28.3848 9.31235C28.4175 9.37758 28.442 9.45911 28.442 9.4958C28.442 9.53249 28.4706 9.60179 28.5032 9.64256C28.5359 9.6874 28.5645 9.76485 28.5645 9.81785C28.5645 9.87084 28.5808 9.94422 28.6053 9.98499C28.6706 10.0991 28.8094 10.5557 28.8094 10.6576C28.8094 10.7106 28.8298 10.7717 28.8584 10.8003C28.887 10.8288 28.9196 10.947 28.936 11.0612C28.9768 11.3302 29.083 11.9132 29.136 12.1455C29.1605 12.2393 29.1769 12.488 29.1769 12.6959C29.1769 12.9038 29.2054 13.181 29.2381 13.3074C29.3116 13.5927 29.3238 14.6323 29.2544 14.8442C29.2258 14.9217 29.1932 15.2234 29.1728 15.5169C29.1564 15.8063 29.1034 16.2588 29.0585 16.5156C29.0095 16.7725 28.9564 17.07 28.936 17.1801C28.9196 17.2861 28.8829 17.3962 28.8584 17.4206C28.8298 17.4492 28.8094 17.5144 28.8094 17.5633C28.8094 17.6775 28.6502 18.1911 28.6012 18.2482C28.5808 18.2686 28.5645 18.3338 28.5645 18.3909C28.5645 18.4479 28.5359 18.5335 28.5032 18.5784C28.4706 18.6191 28.442 18.6884 28.442 18.7251C28.442 18.7618 28.4134 18.8474 28.3807 18.9167C28.3481 18.986 28.2909 19.1002 28.2583 19.1695C28.2256 19.2388 28.197 19.3122 28.197 19.3366C28.197 19.3855 27.7847 20.2049 27.6091 20.5107C27.552 20.6126 27.4866 20.7308 27.4662 20.7757C27.4458 20.8205 27.3805 20.9265 27.3233 21.0121C27.2662 21.0977 27.2172 21.1752 27.2172 21.1915C27.2172 21.2037 27.1641 21.2811 27.0947 21.3668C27.0294 21.4524 26.9722 21.5339 26.9722 21.5502C26.9722 21.5828 26.4088 22.3288 26.1802 22.606C25.9311 22.8995 24.8941 23.9431 24.6859 24.1144C24.3471 24.3834 23.5469 24.9949 23.5305 24.9949C23.5183 24.9949 23.3591 25.0968 23.1713 25.2232C22.9835 25.3496 22.7916 25.4678 22.7467 25.4882C22.7018 25.5086 22.5548 25.5901 22.4201 25.6675C22.2853 25.745 22.073 25.8551 21.9506 25.9162C21.8281 25.9733 21.6239 26.067 21.5015 26.1282C21.2524 26.2464 21.1218 26.2994 20.8482 26.4013C20.7462 26.438 20.6114 26.4951 20.5502 26.5277C20.4849 26.5603 20.3991 26.5848 20.3583 26.5848C20.3175 26.5848 20.2318 26.6092 20.1664 26.6418C19.995 26.7274 19.6439 26.8294 19.5336 26.8294C19.4805 26.8294 19.4152 26.8497 19.3866 26.8783C19.3581 26.9068 19.2397 26.9394 19.1254 26.9557C18.8559 26.9965 18.2721 27.1025 18.0394 27.1555C17.9455 27.1799 17.7005 27.1963 17.5005 27.1963C17.3004 27.1963 17.031 27.2248 16.9003 27.2574C16.6064 27.3349 15.4591 27.343 15.3244 27.2696C15.2754 27.2452 14.9855 27.2085 14.6834 27.1922C14.1159 27.1636 13.426 27.0658 13.2627 26.9924C13.2096 26.972 13.0994 26.9517 13.0136 26.9517C12.932 26.9517 12.8258 26.9231 12.7809 26.8905C12.7401 26.8579 12.6625 26.8294 12.6094 26.8294C12.5074 26.8294 12.0542 26.6908 11.9399 26.6255C11.8991 26.6011 11.8297 26.5848 11.7807 26.5848C11.7358 26.5848 11.6459 26.5603 11.5888 26.5277C11.5275 26.4951 11.3969 26.4421 11.2948 26.4013C11.0621 26.3157 10.9233 26.2546 10.6334 26.12C10.5069 26.063 10.3599 25.9937 10.3068 25.9733C10.2538 25.9529 10.1843 25.9162 10.1517 25.8999C10.119 25.8795 10.0455 25.8388 9.98838 25.8061C9.59236 25.5942 9.48621 25.533 9.31066 25.427C8.86973 25.1661 8.35532 24.8196 8.35532 24.787C8.35532 24.7666 8.33491 24.7503 8.31041 24.7503C8.25734 24.7503 7.87765 24.465 7.68576 24.2815C7.61636 24.2122 7.4898 24.1062 7.40814 24.0451C7.19993 23.8902 6.37115 23.0667 6.1711 22.8139C6.08128 22.7039 5.95472 22.553 5.88531 22.4837C5.74242 22.3329 5.41581 21.9171 5.41581 21.8845C5.41581 21.8722 5.3709 21.8111 5.31374 21.75C5.25658 21.6888 5.18718 21.595 5.1586 21.542C5.08103 21.3994 4.67277 20.743 4.61969 20.6737C4.59111 20.6411 4.55437 20.5677 4.53804 20.5107C4.52171 20.4536 4.46455 20.3517 4.41148 20.2824C4.3584 20.2131 4.31349 20.1275 4.31349 20.0949C4.31349 20.0582 4.28491 20.0093 4.25225 19.9807C4.21959 19.9522 4.19101 19.9033 4.19101 19.8747C4.19101 19.8421 4.13794 19.7117 4.07262 19.5812C3.94605 19.3285 3.91339 19.2632 3.78275 18.9208C3.60719 18.4765 3.49696 18.1626 3.45205 17.9628C3.42756 17.8731 3.39489 17.7834 3.3704 17.759C3.34999 17.7386 3.33365 17.6652 3.33365 17.5959C3.32957 17.5307 3.30508 17.4288 3.27242 17.3717C3.23975 17.3146 3.21526 17.1964 3.21118 17.1067C3.21118 17.013 3.19484 16.9233 3.17443 16.9029C3.11319 16.8418 2.99888 16.0264 2.96622 15.415C2.9458 15.1133 2.91314 14.7546 2.88865 14.62C2.83557 14.3224 2.83557 13.874 2.88865 13.6009C2.90906 13.4867 2.9458 13.1402 2.96622 12.8263C3.00296 12.1863 3.10503 11.4607 3.17035 11.3425C3.19076 11.2976 3.21118 11.1916 3.21118 11.106C3.21526 11.0204 3.23975 10.9063 3.27242 10.8492C3.30508 10.7921 3.32957 10.6943 3.33365 10.6331C3.33365 10.5679 3.35407 10.4782 3.38265 10.4293C3.40714 10.3804 3.44389 10.2866 3.46022 10.2173C3.50104 10.042 3.57861 9.826 3.64394 9.69963C3.6766 9.64256 3.70109 9.5651 3.70109 9.53249C3.70109 9.49988 3.73784 9.38573 3.78683 9.27566C3.83174 9.1656 3.88481 9.03922 3.90523 8.99438C4.06853 8.59895 4.66868 7.46159 4.88098 7.13954C4.97488 7.00094 5.04837 6.88272 5.04837 6.87456C5.04837 6.83787 5.31374 6.46283 5.36273 6.43429C5.39131 6.41799 5.41581 6.3813 5.41581 6.35276C5.41581 6.32422 5.49746 6.21008 5.59953 6.09186C5.70159 5.97772 5.78325 5.86357 5.78325 5.84319C5.78325 5.81873 5.82816 5.76573 5.88531 5.72089C5.93839 5.67605 6.05678 5.55375 6.14252 5.44368C6.33849 5.19501 7.12644 4.40823 7.37548 4.20848C7.47755 4.13103 7.60819 4.01281 7.66535 3.95166C7.72251 3.88643 7.78375 3.83751 7.80008 3.83751C7.81641 3.83751 7.92664 3.75598 8.04095 3.65407C8.15935 3.55215 8.27367 3.47062 8.30224 3.47062C8.33082 3.47062 8.36757 3.44616 8.3839 3.41763C8.41248 3.36871 8.78808 3.10373 8.82482 3.10373C8.83299 3.10373 8.95139 3.03035 9.0902 2.93659C9.22492 2.84691 9.45355 2.71238 9.59236 2.639C9.73117 2.56155 9.92714 2.45556 10.0292 2.39441C10.1313 2.33733 10.2415 2.28026 10.2742 2.26396C10.3068 2.25173 10.4456 2.19058 10.5804 2.12535C10.96 1.94598 11.1193 1.88076 11.1805 1.88076C11.2132 1.88076 11.2744 1.85222 11.3193 1.81961C11.3602 1.787 11.4296 1.75846 11.4704 1.75846C11.5153 1.75846 11.597 1.734 11.6541 1.70139C11.8256 1.61578 12.2951 1.46495 12.6013 1.39565C12.6788 1.37934 12.785 1.34265 12.834 1.31819C12.883 1.28966 12.9891 1.26927 13.0708 1.26927C13.1524 1.26927 13.2545 1.25297 13.2953 1.22851C13.4178 1.16328 14.1731 1.05729 14.7855 1.0206C15.0999 1.0043 15.4306 0.971679 15.5204 0.951297C15.7408 0.898301 16.3696 0.898301 16.6227 0.94722Z" fill="#000080"/>
<path d="M15.9164 1.86841C15.7408 1.88064 15.651 1.90509 15.6347 1.94178C15.6061 2.01924 15.5244 2.01924 15.4591 1.94178C15.3897 1.85618 15.1815 1.87248 14.9937 1.9744C14.7773 2.09669 14.7202 2.19453 14.8222 2.27199C14.9161 2.33721 15.0345 2.31275 15.157 2.20268C15.2672 2.10077 15.3285 2.10485 15.3856 2.22307C15.4346 2.34129 15.3775 2.42282 15.1938 2.49212C15.0999 2.52881 15.0917 2.54512 15.1325 2.59404C15.1611 2.62665 15.2387 2.65518 15.3081 2.65518C15.504 2.65518 15.6224 2.90386 15.4795 3.02208C15.3897 3.09545 15.2836 3.03838 15.1203 2.81825C14.9978 2.65518 14.9447 2.61442 14.8508 2.61442C14.6099 2.61442 14.6793 2.84678 14.9978 3.11176C15.1529 3.24629 15.206 3.26667 15.3775 3.26667C15.6388 3.26667 15.8061 3.12807 15.8061 2.90793C15.8061 2.79379 15.8266 2.7571 15.8837 2.74487C15.9531 2.72856 15.9572 2.74895 15.9409 3.018C15.9164 3.34005 15.9572 3.4175 16.1287 3.37266L16.2267 3.3482L16.2062 2.72041C16.1818 2.10892 16.1858 2.09262 16.2716 2.04777C16.3165 2.01924 16.3573 1.9744 16.3573 1.94586C16.3573 1.89286 16.2593 1.83172 16.2022 1.84802C16.1858 1.8521 16.0593 1.86025 15.9164 1.86841ZM15.8388 2.10077C15.8715 2.13338 15.9082 2.23937 15.9245 2.33313C15.9572 2.54104 15.8878 2.63888 15.7327 2.59811C15.6183 2.56958 15.5571 2.45951 15.6224 2.39428C15.6428 2.3739 15.6633 2.28422 15.6633 2.19861C15.6633 2.03147 15.7327 1.99478 15.8388 2.10077Z" fill="#000080"/>
<path d="M19.5173 1.88063C19.3948 1.92955 19.256 2.11708 19.256 2.2353C19.256 2.32498 19.2438 2.33313 19.1335 2.30868C19.0233 2.28422 19.011 2.29237 19.011 2.38613C19.011 2.45543 19.0355 2.49212 19.0723 2.49212C19.109 2.49212 19.1458 2.51658 19.158 2.54919C19.1825 2.61034 19.0437 3.11584 18.9457 3.32782C18.8069 3.62949 18.8518 3.83739 19.056 3.83739C19.158 3.83739 19.2193 3.6784 19.3744 2.97316C19.4479 2.64703 19.5867 2.55327 19.8194 2.66741C19.8807 2.70003 19.9909 2.75302 20.0644 2.78971C20.1419 2.8264 20.244 2.85901 20.293 2.85901C20.4032 2.85901 20.5625 2.965 20.5625 3.04246C20.5625 3.14437 20.4073 3.15253 20.2358 3.05469L20.0725 2.96093L19.9174 3.04654C19.7255 3.1566 19.6439 3.36043 19.7133 3.56018C19.7704 3.72325 19.8398 3.78032 20.0399 3.83739L20.1869 3.87816L20.1256 4.00453C20.0521 4.15536 20.0766 4.22874 20.2113 4.2532C20.3338 4.27766 20.4808 4.1309 20.4808 3.98822C20.4808 3.94338 20.5339 3.79662 20.5992 3.65802C20.6645 3.51942 20.7298 3.35228 20.7421 3.2789C20.7748 3.13622 20.8482 3.09138 20.9993 3.12807L21.1014 3.1566L21.0728 2.92424C21.036 2.63072 21.081 2.5655 21.281 2.62665C21.4402 2.67557 21.5219 2.63072 21.477 2.52066C21.4402 2.41874 21.1381 2.3209 20.9911 2.36167C20.8768 2.39428 20.8687 2.41059 20.8482 2.63888C20.8197 2.965 20.7421 2.95685 20.5788 2.61442C20.4522 2.34536 20.2236 2.07631 20.0317 1.95401C19.897 1.87248 19.6275 1.83172 19.5173 1.88063ZM20.0072 2.2353C20.3869 2.60219 20.4563 2.81009 20.1419 2.63072C20.048 2.57773 19.9296 2.53289 19.8766 2.53289C19.7378 2.53289 19.501 2.42282 19.501 2.35759C19.501 2.25976 19.6643 2.08446 19.7623 2.08446C19.8112 2.08446 19.9215 2.15377 20.0072 2.2353ZM20.3338 3.29113C20.4196 3.37674 20.4155 3.43789 20.3134 3.56834C20.2113 3.69471 20.1419 3.70286 20.0276 3.58872C19.946 3.50719 19.9501 3.39304 20.0399 3.27482C20.097 3.20552 20.2563 3.21367 20.3338 3.29113Z" fill="#000080"/>
<path d="M16.4186 1.92161C16.3818 1.98276 16.4635 2.07244 16.586 2.10098C16.6921 2.12951 16.6921 2.13359 16.6717 2.42303C16.6594 2.58609 16.6309 2.85515 16.6064 3.02228C16.5655 3.29949 16.5696 3.3321 16.6309 3.38102C16.6717 3.40956 16.7493 3.42994 16.8064 3.42179C16.9044 3.40956 16.9085 3.39325 16.9371 3.04267C16.9534 2.83884 16.982 2.55756 16.9983 2.4108L17.031 2.14582L17.2923 2.15805C17.4392 2.1662 17.5862 2.18659 17.627 2.21105C17.7291 2.26404 17.7618 2.40265 17.7046 2.51679C17.6638 2.59017 17.6229 2.61055 17.5046 2.6024C17.3821 2.59424 17.3576 2.60647 17.3453 2.68393C17.3127 2.91222 17.6189 3.22611 17.8679 3.22611C18.1333 3.22611 18.1741 3.30765 18.0067 3.5074C17.9169 3.61339 17.9087 3.646 17.9536 3.699C17.9904 3.74384 18.0435 3.75607 18.1374 3.73569C18.2476 3.7153 18.2762 3.72753 18.2966 3.79683C18.3333 3.9069 18.2517 4.00066 18.121 4.00066C18.0516 4.00066 17.9536 3.93544 17.8148 3.79683C17.7046 3.68269 17.5985 3.59301 17.5862 3.59301C17.574 3.59301 17.5168 3.62969 17.4596 3.67454L17.3576 3.75199L17.4596 3.85798C17.7699 4.19226 18.317 4.31864 18.5211 4.10258C18.6599 3.95582 18.6477 3.7683 18.4885 3.63785C18.366 3.53186 18.366 3.52778 18.3987 3.28726C18.4191 3.15274 18.4599 2.89591 18.4966 2.71654C18.5293 2.53717 18.5579 2.38634 18.562 2.37819C18.562 2.37411 18.6069 2.37003 18.6599 2.37003C18.7865 2.37003 18.8232 2.31296 18.7661 2.20697C18.7334 2.14174 18.6804 2.12544 18.5293 2.12544C18.4231 2.12544 18.2109 2.0969 18.0516 2.06429C17.4556 1.93384 16.4635 1.84823 16.4186 1.92161ZM18.2353 2.30888C18.2639 2.3415 18.2762 2.4108 18.2639 2.45972C18.2517 2.51271 18.219 2.63909 18.1945 2.74915C18.1251 3.02636 17.9373 3.14051 17.7781 2.99375C17.6719 2.89999 17.6842 2.78584 17.8026 2.75323C17.9251 2.72469 18.0394 2.56163 18.0312 2.43933C18.0271 2.39042 18.023 2.32519 18.0271 2.29665C18.0312 2.22735 18.1741 2.23551 18.2353 2.30888Z" fill="#000080"/>
<path d="M12.9075 2.28443C12.5319 2.42303 12.2951 2.49234 12.2094 2.49234C12.1195 2.49234 11.8868 2.59425 11.7848 2.67578C11.7521 2.70432 11.6664 2.74101 11.601 2.75324C11.4949 2.7777 11.4418 2.75324 11.2826 2.63094C11.1193 2.50456 11.054 2.47603 10.8866 2.47603C10.7192 2.47195 10.6661 2.49234 10.564 2.59017C10.4089 2.73693 10.3885 2.96522 10.5191 3.08344C10.564 3.1242 10.6008 3.17312 10.6008 3.18943C10.6008 3.20981 10.413 3.3158 10.1844 3.42587C9.95164 3.53594 9.72302 3.67454 9.67402 3.73161C9.62095 3.78869 9.56379 3.8376 9.5393 3.8376C9.50663 3.8376 9.1392 4.06997 9.0902 4.12704C9.07796 4.13927 8.9963 4.19227 8.90648 4.24526C8.81667 4.29826 8.69827 4.39202 8.64111 4.44909C8.58396 4.51024 8.42881 4.64884 8.29409 4.76299C8.15936 4.87305 7.9144 5.10134 7.74701 5.26848C7.34283 5.67614 7.29384 5.72913 7.29384 5.7699C7.29384 5.79028 7.22035 5.86774 7.13053 5.94519C7.00397 6.05526 6.96722 6.11641 6.96722 6.21832C6.96722 6.37323 7.02846 6.44661 7.15911 6.44661C7.27751 6.44661 7.31017 6.37323 7.25709 6.23055C7.19585 6.07564 7.26526 6.05934 7.42448 6.18979C7.49797 6.25094 7.56737 6.30393 7.57554 6.31208C7.58779 6.32024 7.57146 6.34877 7.54696 6.37323C7.51838 6.40177 7.49797 6.47515 7.49797 6.5363C7.49797 6.64636 7.50205 6.65044 7.72252 6.65044C7.91032 6.65044 7.95114 6.63821 7.99197 6.56076C8.02871 6.49145 8.02463 6.44661 7.96747 6.33654C7.89399 6.20202 7.89399 6.20202 8.00014 6.10418C8.06138 6.04711 8.11037 5.97373 8.11037 5.93704C8.11037 5.8392 8.16344 5.86366 8.3145 6.04711C8.64519 6.43846 8.63295 6.43031 8.70643 6.38139C8.90648 6.26317 8.88607 6.2224 8.42473 5.7699C8.18386 5.52938 7.98789 5.31332 7.98789 5.28886C7.98789 5.26441 8.06546 5.18287 8.15936 5.10542L8.32675 4.96274L8.44923 5.10542C8.55946 5.23587 8.94731 5.70468 9.09429 5.88404C9.15144 5.95742 9.16777 5.9615 9.24535 5.91258C9.38824 5.8229 9.3964 5.72506 9.26576 5.59461C8.93915 5.26848 8.60029 4.86082 8.60029 4.79152C8.60437 4.7426 8.73093 4.62031 8.94731 4.4654L9.28617 4.21265L9.36782 4.30233C9.5148 4.46132 9.54746 4.55916 9.47397 4.62846C9.41682 4.68553 9.40049 4.68553 9.32292 4.63254C9.16369 4.52247 9.04938 4.57546 9.04938 4.75076C9.04938 4.78337 9.19227 4.8649 9.36782 4.9342C9.5393 5.00758 9.73935 5.09319 9.80467 5.12173C10.0374 5.22364 10.1231 5.22772 10.2211 5.13396C10.2742 5.08504 10.315 5.02389 10.315 4.99535C10.315 4.97089 10.1803 4.9179 10.0088 4.87713C9.83733 4.83637 9.69035 4.78745 9.67811 4.77114C9.66994 4.75483 9.69035 4.67738 9.7271 4.59992C9.7965 4.45317 9.78017 4.3961 9.6087 4.1515C9.54746 4.06182 9.60462 3.96398 9.77201 3.87429C9.84141 3.84168 10.0251 3.73569 10.1803 3.64601C10.5232 3.44218 10.662 3.39733 10.6947 3.48702C10.7233 3.56447 10.6335 3.65824 10.4661 3.73161C10.1639 3.85799 10.0006 4.0822 10.1109 4.21673C10.1313 4.24526 10.2007 4.32679 10.2578 4.40017C10.3191 4.47763 10.4089 4.55508 10.4538 4.57546C10.5028 4.59992 10.5845 4.64069 10.6416 4.6733C10.7682 4.74668 10.8907 4.75076 10.9846 4.68146C11.0948 4.59992 11.0091 4.4654 10.8253 4.43278C10.662 4.40017 10.3967 4.18819 10.3967 4.08628C10.4007 3.99251 10.4783 3.90283 10.6335 3.82537C10.8049 3.74384 10.8213 3.75607 11.0254 4.17596C11.1111 4.34718 11.1969 4.50209 11.2132 4.51024C11.2336 4.52247 11.2948 4.51432 11.352 4.48986C11.4704 4.44501 11.4949 4.31456 11.4051 4.20857C11.3071 4.09035 11.0499 3.6297 11.0499 3.57263C11.0499 3.54001 11.0254 3.49925 10.9927 3.48294C10.9641 3.46664 10.9192 3.40956 10.8907 3.35657C10.8498 3.27504 10.8539 3.26281 10.9478 3.21797C11.0825 3.15682 11.0785 3.13236 10.907 3.05083C10.76 2.98152 10.6784 2.80623 10.7559 2.72878C10.8131 2.6717 11.0254 2.7247 11.1152 2.82254C11.1764 2.89184 11.1805 2.92038 11.1397 2.98152C11.0703 3.09567 11.0744 3.09567 11.2418 3.11197C11.3683 3.1242 11.3969 3.14459 11.4377 3.26688C11.4663 3.34434 11.5235 3.4911 11.5725 3.59301C11.6174 3.69492 11.6868 3.87429 11.7235 3.98844C11.7888 4.19227 11.8011 4.2045 11.9277 4.2045C12.1522 4.2045 12.144 4.07812 11.9032 3.60524C11.8378 3.47887 11.7848 3.34434 11.7848 3.30357C11.7848 3.26688 11.7562 3.21389 11.7235 3.18535C11.6296 3.1079 11.65 2.93261 11.7603 2.85107C11.8133 2.81438 11.9644 2.76954 12.1032 2.75324C12.3237 2.72878 12.3522 2.73693 12.3931 2.81031C12.4747 2.96114 12.4461 3.06306 12.3155 3.1079C12.1767 3.15682 12.1604 3.2465 12.2665 3.37288C12.4421 3.58078 12.7401 3.65416 12.9034 3.53186C13.03 3.43402 13.1198 3.45848 13.1443 3.58893C13.1729 3.71938 13.2831 3.77646 13.4178 3.73569C13.5076 3.70715 13.528 3.5604 13.4586 3.4381C13.4056 3.34434 13.2545 2.87553 13.2545 2.80215C13.2545 2.76954 13.2219 2.68801 13.1851 2.62279C13.1279 2.52087 13.1239 2.49234 13.1688 2.43526C13.1974 2.39857 13.2504 2.37004 13.2831 2.37004C13.3158 2.37004 13.3362 2.3415 13.328 2.29666C13.3117 2.19882 13.1524 2.19475 12.9075 2.28443ZM12.8667 2.57387C12.9075 2.63909 13.0096 3.05898 13.0096 3.16497C13.0096 3.27911 12.9034 3.34842 12.7278 3.34842C12.6217 3.34842 12.6013 3.33211 12.6013 3.25058C12.6013 3.19758 12.6299 3.13236 12.6625 3.10382C12.7401 3.0386 12.7401 2.8633 12.6625 2.76139C12.6217 2.70839 12.6176 2.66355 12.6462 2.61056C12.687 2.52902 12.8258 2.50456 12.8667 2.57387ZM8.0328 5.75767C8.05729 5.81067 8.0328 5.86366 7.92665 5.97373C7.85316 6.05526 7.76742 6.12049 7.73885 6.12049C7.67761 6.12049 7.45714 5.92073 7.45714 5.86366C7.45714 5.79436 7.6327 5.58238 7.71843 5.54977C7.80825 5.51715 7.95114 5.61499 8.0328 5.75767Z" fill="#000080"/>
<path d="M21.3259 3.17294C21.2402 3.25854 21.3177 3.3523 21.6158 3.51537C21.7873 3.61321 21.9669 3.71512 22.0118 3.74366C22.1057 3.80073 22.1465 3.82111 22.2486 3.85372C22.3343 3.88226 22.3425 4.03309 22.2568 4.0657C22.2282 4.07793 22.1343 4.04125 22.0567 3.9801C21.9791 3.91895 21.8526 3.83742 21.7791 3.80073C21.7056 3.75996 21.5872 3.69474 21.5137 3.64989C21.3872 3.57652 21.3831 3.57652 21.3014 3.64989C21.1381 3.79665 21.2443 4.13501 21.4851 4.26546C21.6525 4.35514 21.6525 4.46521 21.4892 4.48152C21.3627 4.49782 21.2157 4.39591 21.2157 4.29807C21.2157 4.22061 21.0483 4.16354 20.9626 4.21246C20.8523 4.26546 20.8727 4.35922 21.032 4.53451C21.1095 4.6242 21.1749 4.73426 21.1749 4.78726C21.1749 4.9014 21.2116 4.9544 21.33 5.01555C21.4361 5.07262 21.4729 5.01962 21.4525 4.8321C21.4402 4.73426 21.4566 4.71388 21.579 4.68942C21.7587 4.65273 21.8322 4.5712 21.8403 4.40406C21.8485 4.28992 21.8281 4.2573 21.726 4.20839C21.5137 4.10647 21.3953 3.92302 21.5015 3.8578C21.5505 3.82926 22.0975 4.14724 22.1261 4.22061C22.1384 4.25323 22.1098 4.33884 22.0608 4.41221C22.0118 4.48967 21.9546 4.58343 21.9301 4.62012C21.9097 4.66088 21.8362 4.76688 21.7668 4.86064L21.6484 5.02778L21.7464 5.10523C21.8607 5.19084 21.9506 5.20715 21.9506 5.13784C21.9506 5.11338 22.0567 4.91363 22.1874 4.69757C22.318 4.48152 22.4364 4.27361 22.4527 4.23692C22.465 4.19616 22.5262 4.15539 22.5834 4.13908C22.6732 4.1187 22.714 4.13501 22.812 4.241C22.9631 4.40406 22.959 4.46521 22.8079 4.64865C22.7385 4.73019 22.5752 4.92586 22.4446 5.08485L22.2037 5.37429L22.2935 5.48843C22.3711 5.58627 22.3956 5.59442 22.4731 5.55365C22.5221 5.52919 22.563 5.48843 22.563 5.46397C22.563 5.41097 23.1713 4.61197 23.2162 4.61197C23.2978 4.61197 23.4652 4.73426 23.6898 4.95032C23.8204 5.08077 23.9796 5.21938 24.045 5.25606C24.1062 5.29275 24.1552 5.34983 24.1552 5.38651C24.1552 5.45989 24.045 5.63111 23.996 5.63111C23.9756 5.63111 23.8531 5.52919 23.7224 5.40282C23.3468 5.04816 23.3101 5.04408 23.2284 5.34575C23.1549 5.60665 23.2978 5.76971 23.4734 5.62703C23.6081 5.52512 23.6734 5.52919 23.7878 5.65149L23.8817 5.75341L23.6122 6.01431C23.3346 6.27521 23.2978 6.34859 23.3877 6.43827C23.4734 6.52388 23.5714 6.49127 23.7061 6.33228C23.7796 6.25075 23.9551 6.05915 24.098 5.90832C24.3512 5.64334 24.3634 5.63519 24.4859 5.68003C24.5757 5.71264 24.6247 5.70856 24.6574 5.67595C24.69 5.64334 24.5675 5.50474 24.2001 5.15415C23.9266 4.89325 23.653 4.65273 23.5918 4.6242C23.5305 4.59158 23.453 4.53043 23.4121 4.48967C23.3713 4.4489 23.2856 4.3796 23.2162 4.34291C23.1509 4.30215 23.0937 4.25323 23.0937 4.23692C23.0937 4.22061 23.0325 4.17577 22.9631 4.13908C22.8896 4.09832 22.8079 4.04125 22.7834 4.00456C22.7548 3.97194 22.6528 3.89857 22.5507 3.83742C22.2731 3.68251 21.6566 3.30339 21.5464 3.21778C21.4443 3.14032 21.3708 3.12402 21.3259 3.17294Z" fill="#000080"/>
<path d="M15.4591 4.40819C15.3571 4.42857 15.1652 4.44488 15.0264 4.44488C14.8917 4.44896 14.6875 4.47749 14.5773 4.5101C14.4671 4.54272 14.3323 4.57125 14.2793 4.57125C14.0466 4.57125 13.1239 4.824 12.6952 5.00745C12.6258 5.03598 12.5482 5.06044 12.5278 5.06044C12.5033 5.06044 12.3033 5.14197 12.0828 5.24389C11.6949 5.42326 11.6337 5.45587 11.2744 5.6597C11.1846 5.70862 11.0825 5.76569 11.0499 5.782C10.9315 5.83499 10.3313 6.25896 10.0537 6.48317C9.89857 6.60954 9.71486 6.7563 9.64137 6.81337C9.47398 6.94382 8.87383 7.55938 8.66153 7.81621C8.32267 8.21979 7.80826 8.93319 7.73069 9.09625C7.71436 9.12886 7.63678 9.26747 7.55921 9.40199C7.48164 9.53652 7.39999 9.68735 7.37549 9.73627C7.28976 9.94418 7.08563 10.3845 7.04888 10.4497C7.02439 10.4905 7.00806 10.5435 7.00806 10.5679C7.00806 10.5924 6.98356 10.6698 6.95498 10.7392C6.7631 11.1876 6.51814 12.0844 6.51814 12.329C6.51814 12.3861 6.49772 12.4839 6.47323 12.5491C6.30584 12.9731 6.30584 15.2438 6.47323 15.6718C6.49772 15.737 6.51814 15.8349 6.51814 15.8919C6.51814 16.108 6.75085 16.9763 6.93049 17.4329C6.94682 17.4777 6.97539 17.5593 6.99173 17.6163C7.00806 17.6734 7.07746 17.8446 7.15095 18.0036C7.22444 18.1585 7.31426 18.3542 7.351 18.4316C7.38366 18.5091 7.47756 18.6844 7.55921 18.8189C7.63678 18.9534 7.71436 19.0921 7.73069 19.1247C7.76743 19.2062 8.27368 19.9563 8.31042 19.9807C8.32267 19.993 8.45332 20.1479 8.59621 20.3273C9.14737 21.0162 10.1272 21.8845 10.7968 22.284C10.8335 22.3085 10.9111 22.3574 10.9682 22.3941C11.2213 22.5612 11.6419 22.7814 12.2134 23.0382C12.5931 23.2094 13.524 23.5111 13.9077 23.5885C14.0996 23.6252 14.3732 23.6823 14.5201 23.7108C15.2999 23.8739 16.8636 23.8739 17.6434 23.7108C17.8026 23.6782 18.117 23.613 18.3497 23.5641C18.5783 23.5192 18.8641 23.4418 18.9825 23.3969C19.0968 23.3561 19.3009 23.2828 19.4316 23.242C19.7745 23.1279 20.3543 22.8629 20.8483 22.5857C21.1381 22.4267 21.3667 22.2799 21.8485 21.9457C22.6936 21.3586 23.751 20.2294 24.2573 19.3774C24.2818 19.3407 24.3471 19.2347 24.4002 19.145C24.5839 18.8475 24.5961 18.823 24.7431 18.5336C25.1105 17.8079 25.4494 16.8703 25.5637 16.2711C25.6005 16.0795 25.6535 15.8145 25.6862 15.68C25.8454 14.9788 25.8495 13.3319 25.6862 12.5614C25.6576 12.4146 25.6005 12.1415 25.5637 11.9499C25.4167 11.2202 25.0003 10.1317 24.5716 9.36123C24.3757 9.01064 23.8776 8.26463 23.8245 8.24832C23.8041 8.24017 23.7878 8.20756 23.7878 8.17495C23.7878 8.14233 23.7755 8.11787 23.7592 8.11787C23.7388 8.11787 23.6367 8.00373 23.5224 7.86105C23.257 7.52677 22.7304 6.99682 22.3997 6.72776C22.2527 6.60954 22.118 6.48724 22.1016 6.45871C22.0853 6.43017 22.0486 6.40571 22.0241 6.40571C21.9955 6.40571 21.9383 6.3731 21.8934 6.32826C21.7505 6.20188 21.1667 5.81461 20.885 5.6597C20.7421 5.58224 20.5706 5.48848 20.5012 5.45179C19.9256 5.14197 18.8559 4.76285 18.1945 4.63648C18.0026 4.59979 17.7209 4.54272 17.5617 4.5101C17.08 4.40819 15.7776 4.34704 15.4591 4.40819ZM17.5005 4.83623C18.0639 4.92999 18.2394 4.96668 18.3782 5.01152C18.4477 5.03598 18.611 5.0849 18.7457 5.12159C19.0356 5.20312 19.2723 5.28873 19.4316 5.37026C19.4969 5.40287 19.5704 5.42733 19.5949 5.42733C19.6602 5.42733 20.3461 5.74938 20.7176 5.96137C21.6934 6.50355 22.9753 7.61645 23.4979 8.3747C23.5632 8.46846 23.653 8.5826 23.702 8.62337C23.7469 8.66821 23.7878 8.71713 23.7878 8.73344C23.7878 8.74974 23.8653 8.88019 23.9592 9.02287C24.196 9.36938 24.4941 9.93195 24.7145 10.4416C24.7472 10.519 24.8043 10.6332 24.8329 10.6943C24.8656 10.7514 24.8901 10.8288 24.8901 10.8614C24.8901 10.8941 24.9187 10.9756 24.9513 11.0367C24.984 11.102 25.0126 11.1917 25.0126 11.2365C25.0166 11.2813 25.0411 11.3629 25.0738 11.4199C25.1065 11.477 25.131 11.5748 25.135 11.636C25.135 11.7012 25.1555 11.7909 25.184 11.8398C25.2085 11.8887 25.2453 12.0192 25.2657 12.1333C25.282 12.2434 25.3147 12.4187 25.3351 12.5206C25.3596 12.6225 25.3963 13.022 25.4249 13.4093C25.4739 14.139 25.4331 15.1704 25.3351 15.7289C25.3106 15.8593 25.2779 16.0509 25.2616 16.161C25.2453 16.267 25.2085 16.3771 25.184 16.4015C25.1555 16.43 25.135 16.5075 25.135 16.5809C25.135 16.6502 25.1065 16.7643 25.0738 16.8255C25.0411 16.8907 25.0126 16.9763 25.0126 17.013C25.0126 17.0823 24.935 17.2821 24.8248 17.5063C24.7921 17.5715 24.7676 17.653 24.7676 17.6897C24.7676 17.7264 24.739 17.7957 24.7064 17.8365C24.6737 17.8813 24.6451 17.9465 24.6451 17.9873C24.6451 18.024 24.6165 18.077 24.5839 18.1055C24.5512 18.1341 24.5226 18.183 24.5226 18.2115C24.5226 18.2849 24.0572 19.0961 23.9021 19.2918C23.8408 19.3733 23.7878 19.4549 23.7878 19.4671C23.7878 19.5486 23.1958 20.2457 22.7263 20.7145C22.2609 21.1833 21.5178 21.8152 21.4362 21.8152C21.4239 21.8152 21.3423 21.8682 21.2606 21.9293C21.1789 21.9946 21.085 22.0598 21.0524 22.0761C21.0197 22.0883 20.8809 22.1658 20.7462 22.2473C20.5135 22.3818 20.0481 22.6142 19.7459 22.7447C19.6684 22.7773 19.5704 22.8221 19.5296 22.8425C19.3785 22.9159 18.5987 23.1605 18.5089 23.1605C18.4558 23.1605 18.3946 23.1809 18.3742 23.2012C18.3333 23.242 18.2517 23.2624 17.6842 23.3602C17.4066 23.4051 16.3777 23.4988 16.1328 23.4948C15.8348 23.4948 14.7079 23.401 14.4793 23.3602C14.3568 23.3358 14.1568 23.3032 14.0384 23.2868C13.9241 23.2705 13.8057 23.2379 13.7771 23.2094C13.7485 23.1809 13.6709 23.1605 13.6056 23.1605C13.5362 23.1564 13.4342 23.1319 13.377 23.0993C13.3198 23.0667 13.2382 23.0423 13.1933 23.0382C13.1484 23.0382 13.0585 23.0096 12.9932 22.977C12.932 22.9444 12.8503 22.9159 12.8177 22.9159C12.785 22.9159 12.7074 22.8914 12.6503 22.8588C12.589 22.8303 12.4747 22.7732 12.3972 22.7406C11.6827 22.4308 10.9274 21.9986 10.462 21.6318C9.69852 21.0284 8.96365 20.3109 8.65337 19.8584C8.58396 19.7565 8.49006 19.6383 8.44107 19.5975C8.39616 19.5527 8.35533 19.5079 8.35533 19.4916C8.35533 19.4752 8.28184 19.353 8.19611 19.2225C8.00422 18.9331 7.83683 18.6355 7.64087 18.2278C7.55513 18.0607 7.46531 17.8691 7.43265 17.8079C7.39999 17.7427 7.37549 17.6612 7.37549 17.6204C7.37549 17.5837 7.35916 17.5348 7.33875 17.5103C7.28976 17.4655 7.19586 17.2005 7.08563 16.8214C7.04072 16.6624 6.98356 16.479 6.95906 16.4137C6.93457 16.3444 6.90191 16.2099 6.88558 16.108C6.86925 16.0061 6.8325 15.8145 6.80801 15.68C6.6692 14.8973 6.67736 13.1892 6.82842 12.4595C6.86108 12.3005 6.88558 12.1293 6.88558 12.0722C6.88558 12.0151 6.91415 11.9336 6.94682 11.8928C6.97948 11.848 7.00806 11.7705 7.00806 11.7175C7.00806 11.6034 7.28159 10.7636 7.33875 10.7065C7.35916 10.6862 7.37549 10.6372 7.37549 10.6005C7.37549 10.5027 7.97973 9.33269 8.20427 8.99434C8.91057 7.93035 9.88224 6.96013 10.9478 6.25488C11.2581 6.04697 12.4543 5.42733 12.5401 5.42733C12.5686 5.42733 12.6462 5.40287 12.7115 5.37026C12.9565 5.24389 13.524 5.06044 13.6628 5.06044C13.7199 5.05637 13.8016 5.03191 13.8424 4.99929C13.8873 4.96668 13.9771 4.93815 14.0384 4.93815C14.1037 4.93815 14.2344 4.91776 14.3283 4.8933C14.9856 4.73024 16.6921 4.69763 17.5005 4.83623Z" fill="#000080"/>
<path d="M25.4494 6.67885C25.3881 6.73592 25.429 6.85007 25.5637 7.02128C25.7392 7.24142 25.7392 7.30257 25.5841 7.41671C25.38 7.56754 25.2657 7.52678 25.3718 7.34333C25.429 7.24957 25.429 7.21696 25.3841 7.16396C25.2902 7.04982 25.1758 7.08651 25.1105 7.24957C25.0738 7.33518 25.0125 7.47786 24.9676 7.57162C24.9268 7.6613 24.8901 7.75099 24.8901 7.7673C24.8901 7.7836 24.8533 7.84475 24.8043 7.90998C24.7431 7.99151 24.7308 8.05266 24.7512 8.13419C24.7717 8.22795 24.7962 8.24425 24.9064 8.23202C24.9962 8.22387 25.037 8.19534 25.0452 8.13826C25.0534 8.09342 25.086 7.97928 25.1228 7.88144C25.1963 7.68576 25.2942 7.65723 25.3922 7.80806C25.429 7.86106 25.4861 7.93443 25.5229 7.97112C25.6331 8.07711 25.58 8.1668 25.3187 8.3054C24.9962 8.4807 24.9635 8.53369 25.0983 8.67229C25.1881 8.7579 25.2126 8.76606 25.2616 8.72121C25.3432 8.64784 25.5759 8.48477 25.6045 8.48477C25.6168 8.48477 25.7352 8.40324 25.874 8.30133C26.1271 8.1138 26.3027 8.06896 26.3435 8.17903C26.3598 8.21164 26.3925 8.24018 26.4251 8.24018C26.5027 8.24018 26.4986 8.06081 26.4211 7.99558C26.3884 7.96705 26.3598 7.91813 26.3598 7.88959C26.3598 7.85698 26.3435 7.83252 26.3231 7.83252C26.3027 7.83252 26.27 7.79175 26.2577 7.73876C26.2414 7.68984 26.1802 7.58385 26.1189 7.50639C26.0618 7.42894 25.9801 7.29849 25.9352 7.22103C25.6862 6.7563 25.5351 6.58917 25.4494 6.67885ZM26.0128 7.67353C26.074 7.79175 26.074 7.80398 26.0046 7.88144C25.8658 8.03635 25.7964 8.04858 25.6862 7.93851C25.5514 7.80398 25.5596 7.72653 25.7188 7.62869C25.8944 7.51862 25.9393 7.52678 26.0128 7.67353Z" fill="#000080"/>
<path d="M5.95881 7.37198C5.93023 7.38014 5.90573 7.40867 5.90573 7.42905C5.90573 7.48613 5.73835 7.84894 5.7016 7.8734C5.68527 7.88563 5.64036 7.95901 5.59954 8.03646C5.56279 8.11392 5.50563 8.20768 5.47706 8.24029C5.44848 8.27291 5.41173 8.34628 5.3954 8.40336C5.37907 8.46043 5.32192 8.56234 5.26884 8.63164C5.21577 8.70095 5.17086 8.80286 5.17086 8.85993C5.17086 8.917 5.14228 8.98631 5.10962 9.01484C5.07696 9.04338 5.04838 9.10453 5.04838 9.15345C5.04838 9.19829 4.98306 9.36543 4.90548 9.52034C4.832 9.67525 4.74218 9.89131 4.7136 10.0013C4.67277 10.1766 4.64011 10.2174 4.49722 10.2867C4.22776 10.4253 3.84399 10.8452 3.79092 11.0653C3.72151 11.3385 3.72968 11.4037 3.86033 11.5504C3.95014 11.6524 4.01547 11.685 4.11753 11.685C4.23185 11.685 4.25226 11.7013 4.26451 11.795C4.28084 11.9459 4.38699 11.9744 4.44414 11.844C4.48905 11.7461 4.50538 11.742 4.67686 11.7665C4.78301 11.7828 4.93815 11.8195 5.02796 11.8521C5.11778 11.8806 5.24026 11.9092 5.3015 11.9092C5.36274 11.9092 5.46073 11.9296 5.52197 11.9499C5.70568 12.0192 5.79142 11.9663 5.77509 11.795C5.76284 11.6442 5.76284 11.6442 5.5383 11.6197C5.13003 11.5708 4.70543 11.4934 4.63603 11.4567C4.52988 11.3996 4.51355 11.2162 4.59929 10.992C4.64011 10.8778 4.68502 10.7555 4.69727 10.7147C4.72177 10.6373 4.82791 10.6251 4.98306 10.6862C5.1137 10.7351 5.11778 10.8167 4.99939 10.8697C4.93815 10.8982 4.90548 10.9471 4.90548 11.0123C4.90548 11.1428 5.01163 11.1591 5.38316 11.0939C5.66894 11.0449 5.81183 10.9471 5.96697 10.7066C6.04046 10.5884 6.07721 10.1848 6.02821 10.034C6.01188 9.98507 6.04455 9.97284 6.19152 9.97284C6.36707 9.97284 6.37524 9.96876 6.38749 9.83831C6.39565 9.74455 6.38341 9.70786 6.3385 9.70786C6.30584 9.70786 6.21602 9.6834 6.14253 9.65079C6.06904 9.61818 5.84041 9.52441 5.63628 9.43881L5.26068 9.28797L5.28109 9.12083C5.29334 9.02707 5.326 8.93331 5.35458 8.91293C5.38316 8.88847 5.4199 8.82732 5.43623 8.77025C5.45256 8.71318 5.48522 8.64387 5.50972 8.61534C5.57096 8.53788 5.73426 8.23622 5.80775 8.06908C5.88532 7.88155 5.95473 7.8571 6.08129 7.95901C6.21602 8.06092 6.18744 8.16284 5.95881 8.41966C5.80775 8.5868 5.78326 8.64387 5.78326 8.79063C5.78326 8.98223 5.86083 9.07599 6.11395 9.17791C6.22418 9.22682 6.27317 9.22275 6.46506 9.15752C6.75493 9.05968 6.89374 8.94962 6.87741 8.83547C6.86108 8.7091 6.71818 8.7091 6.53855 8.82732C6.35891 8.94962 6.26909 8.95777 6.13028 8.86809C6.0078 8.79063 5.97514 8.70502 6.02821 8.60311C6.07312 8.52158 6.27317 8.49304 6.27317 8.5705C6.27317 8.59496 6.32217 8.60718 6.38341 8.59903C6.5263 8.58273 6.55488 8.4645 6.44056 8.35851C6.35074 8.27291 6.33033 8.17914 6.39157 8.14246C6.4324 8.118 6.85699 8.38297 6.87741 8.4482C6.88557 8.46858 6.93865 8.48489 6.99172 8.48489C7.17544 8.48489 7.2326 8.1873 7.06113 8.1343C6.92232 8.09354 6.17111 7.69811 6.14253 7.65327C6.1262 7.62881 6.12212 7.54728 6.13436 7.4739C6.15478 7.36383 6.14661 7.34345 6.08537 7.34752C6.04046 7.34752 5.98331 7.35975 5.95881 7.37198ZM5.44848 9.67525C5.57096 9.74863 5.57912 9.76493 5.52605 9.822C5.47706 9.86685 5.47297 9.89946 5.50563 9.95245C5.59545 10.0951 5.43623 10.2582 5.30967 10.1522C5.26884 10.1196 5.25251 10.0625 5.26884 9.98507C5.29742 9.84646 5.2321 9.80162 5.12595 9.89538C5.01163 9.9973 5.02796 10.1889 5.15861 10.3275C5.28925 10.4661 5.43623 10.4742 5.56687 10.3519C5.64445 10.2786 5.66078 10.2215 5.66078 10.0258C5.66078 9.84239 5.67302 9.78939 5.72202 9.78939C5.78326 9.78939 5.7955 9.82608 5.78734 9.98099C5.78326 10.0258 5.79959 10.0788 5.82 10.0951C5.88532 10.1318 5.87307 10.3805 5.79959 10.5354C5.73018 10.6862 5.57912 10.7922 5.41582 10.8167C5.33416 10.8248 5.30967 10.8085 5.3015 10.727C5.28109 10.5843 5.19535 10.5028 5.01163 10.4457C4.81975 10.3886 4.78709 10.3234 4.86466 10.1399C4.89732 10.0584 4.9259 9.96061 4.9259 9.91577C4.9259 9.87092 4.96672 9.76901 5.0198 9.69155C5.12187 9.52849 5.20352 9.52441 5.44848 9.67525ZM4.55846 10.6251C4.55846 10.6373 4.52988 10.7147 4.49722 10.7963C4.46048 10.8778 4.44006 11.0042 4.44414 11.0735C4.45231 11.2406 4.338 11.42 4.22368 11.42C4.10528 11.42 3.98689 11.3058 3.98689 11.1958C3.98689 11.1142 4.23593 10.784 4.39515 10.6577C4.45639 10.6047 4.55846 10.5884 4.55846 10.6251Z" fill="#000080"/>
<path d="M26.6742 7.82408C26.5844 7.92192 26.5885 7.95046 26.7028 8.09721C26.7967 8.21136 26.8008 8.21543 26.9028 8.14613C27.0171 8.07275 27.0131 8.02791 26.8906 7.84039C26.8171 7.73032 26.7599 7.72625 26.6742 7.82408Z" fill="#000080"/>
<path d="M26.4578 8.42345C26.4292 8.48867 26.4333 8.5009 26.5844 8.76588C26.6415 8.86372 26.6864 8.96563 26.6864 8.99417C26.6864 9.01863 26.6007 9.07977 26.4986 9.13277C26.2659 9.24284 26.1843 9.198 26.3108 9.03493C26.4129 8.90856 26.3802 8.75773 26.2496 8.73734C26.1883 8.72919 26.1353 8.77403 26.0536 8.92079C25.9883 9.02678 25.8577 9.23468 25.7556 9.37736C25.6004 9.60158 25.58 9.65865 25.6086 9.74426C25.6331 9.81763 25.6821 9.85432 25.7515 9.86248C25.8495 9.87471 25.8699 9.85025 25.9352 9.6668C25.9761 9.55266 26.0455 9.43036 26.0863 9.38959C26.1598 9.32437 26.1679 9.32845 26.2618 9.43444C26.3149 9.49966 26.3598 9.58119 26.3598 9.62196C26.3598 9.65865 26.3802 9.71164 26.4006 9.73203C26.4456 9.77687 26.4129 9.86248 26.2618 10.0867C26.2047 10.1723 26.1924 10.2497 26.2047 10.4291C26.2251 10.6452 26.2373 10.6737 26.4211 10.8408C26.5803 10.9794 26.6089 11.0243 26.5599 11.0569C26.5272 11.0773 26.4864 11.0936 26.4619 11.0936C26.4415 11.0936 26.3517 11.114 26.27 11.1384C26.1353 11.171 26.1149 11.1955 26.1149 11.2933C26.1149 11.3667 26.1434 11.4197 26.1843 11.436C26.2578 11.4646 26.6374 11.3871 26.7068 11.33C26.7273 11.3137 26.8089 11.2974 26.8906 11.2974C26.9681 11.2974 27.0702 11.2689 27.111 11.2363C27.1559 11.2037 27.2498 11.1751 27.3192 11.1751C27.4336 11.1751 27.4499 11.1914 27.4989 11.3626C27.5315 11.4686 27.5397 11.5624 27.5193 11.5828C27.4785 11.6235 26.8661 11.7418 26.5354 11.7744C26.3067 11.7988 26.2659 11.8396 26.3149 12.019C26.3394 12.1127 26.368 12.1331 26.466 12.125C26.6293 12.1168 27.0008 12.0312 27.1886 11.966C27.3846 11.8926 27.5193 11.8926 27.5846 11.9701C27.6581 12.0597 27.7602 13.0993 27.6948 13.14C27.5315 13.246 27.4254 13.1237 27.4172 12.818C27.405 12.3206 27.2947 12.2391 27.0171 12.5245C26.8661 12.6835 26.8538 12.7079 26.9069 12.7813C26.9355 12.8302 27.0049 12.8669 27.058 12.8669C27.1968 12.8669 27.258 12.9158 27.258 13.03C27.258 13.1645 27.2008 13.189 26.8538 13.2012C26.4741 13.2134 26.4415 13.2256 26.4415 13.3642C26.4415 13.5762 26.4905 13.6048 26.7599 13.5477C26.8906 13.5192 27.1723 13.4988 27.3886 13.4988C27.7724 13.4988 27.7806 13.5028 27.8051 13.6007C27.8296 13.6985 27.9235 13.7393 27.9684 13.67C28.001 13.617 27.9194 12.5612 27.85 12.1739C27.8132 11.9701 27.7602 11.6684 27.7316 11.5013C27.703 11.3341 27.6581 11.1384 27.6336 11.0732C27.6132 11.0039 27.5683 10.8694 27.5356 10.7675C27.4662 10.531 27.3397 10.4862 27.3397 10.7022C27.3397 10.8612 27.2866 10.9061 27.0416 10.9509C26.9436 10.9713 26.8906 10.9631 26.8906 10.9346C26.8906 10.9101 26.7885 10.8286 26.666 10.7471C26.4415 10.6044 26.3394 10.4576 26.3843 10.3394C26.4211 10.2457 26.4905 10.266 26.6415 10.421C26.8252 10.6126 26.9845 10.6126 27.1886 10.425C27.3723 10.2579 27.3886 10.0785 27.2458 9.86655C27.1682 9.75241 27.1233 9.72387 26.9885 9.71572C26.7803 9.69941 26.7191 9.76872 26.7354 9.997C26.7518 10.209 26.8089 10.2334 26.9028 10.0704C26.9804 9.9277 27.0661 9.93178 27.0865 10.0744C27.0988 10.1397 27.0702 10.1967 27.0049 10.2457C26.8824 10.3394 26.8252 10.3353 26.6783 10.2334C26.564 10.1519 26.5599 10.1356 26.5844 9.94809C26.6048 9.79725 26.5966 9.7198 26.5476 9.64642C26.4496 9.49559 26.4701 9.42221 26.6334 9.35698C26.7763 9.29583 26.7844 9.29583 26.8783 9.39775C26.9885 9.52004 27.0947 9.53635 27.0947 9.43444C27.0947 9.39775 27.0416 9.25507 26.9763 9.12054C26.7844 8.71288 26.7273 8.57428 26.7273 8.53759C26.7273 8.4846 26.5884 8.3623 26.5272 8.3623C26.5027 8.3623 26.4701 8.39083 26.4578 8.42345Z" fill="#000080"/>
<path d="M4.18692 12.0805C4.18692 12.109 4.17875 12.2761 4.17059 12.4474C4.15834 12.6227 4.17059 12.7735 4.191 12.7857C4.21141 12.7979 4.19508 12.8672 4.15017 12.9406C4.04811 13.1037 4.04811 13.2219 4.14201 13.4461C4.19916 13.5888 4.23183 13.6214 4.31756 13.6214C4.46862 13.6214 4.50536 13.4747 4.39105 13.3238C4.29715 13.1934 4.30123 13.0996 4.4033 13.0344C4.49312 12.9773 4.68092 13.1445 4.68092 13.2831C4.68092 13.3564 4.70133 13.3809 4.75441 13.3687C4.8034 13.3605 4.82789 13.3116 4.83606 13.2015C4.85239 13.0099 4.98303 12.9284 5.15042 13.0018C5.35047 13.0915 5.26474 13.2504 4.92179 13.4298C4.72991 13.5317 4.67275 13.654 4.7789 13.7396C4.87689 13.8212 5.01978 13.7641 5.25249 13.544L5.46887 13.3442L5.44846 13.0955C5.44029 12.961 5.41988 12.8346 5.40355 12.8224C5.38722 12.8061 5.30556 12.7816 5.22391 12.7694C5.11776 12.7531 5.06469 12.7205 5.05652 12.6675C5.03203 12.5452 5.1096 12.5085 5.24432 12.5778C5.31373 12.6145 5.43621 12.643 5.51786 12.643C5.65259 12.643 5.66075 12.6349 5.66075 12.5044C5.66075 12.4147 5.63626 12.3577 5.59543 12.3414C5.55869 12.3291 5.28107 12.3047 4.97895 12.2884L4.42779 12.2639L4.38697 12.1457C4.34614 12.0315 4.19508 11.9786 4.18692 12.0805ZM4.81973 12.586C4.8973 12.6593 4.8973 12.6553 4.83606 12.7857C4.78707 12.8917 4.72583 12.9162 4.6605 12.8509C4.62784 12.8183 4.50536 12.7857 4.34614 12.7694C4.30531 12.7653 4.30531 12.586 4.34206 12.5493C4.39513 12.4922 4.75441 12.5207 4.81973 12.586Z" fill="#000080"/>
<path d="M3.66028 14.8075C3.66028 14.9421 3.73785 15.0481 3.83583 15.0481C3.97056 15.0481 4.01139 15.0929 4.03997 15.2723C4.07263 15.4679 4.04405 15.5209 3.89299 15.5576C3.79909 15.5821 3.77868 15.6065 3.79092 15.6962C3.79909 15.7737 3.82358 15.8022 3.88482 15.7941C3.98689 15.7859 4.2441 15.6922 4.31759 15.6351C4.35025 15.6106 4.41149 15.578 4.4564 15.5658C4.60745 15.525 5.01572 15.3416 5.05655 15.3008C5.08921 15.2682 5.08921 15.2111 5.06471 15.1214C5.02797 14.991 5.01572 14.9869 4.76668 14.9584C4.62378 14.9421 4.44823 14.9095 4.38291 14.885C4.3135 14.8646 4.21144 14.8442 4.1502 14.8442C4.09304 14.8442 4.0073 14.8157 3.96239 14.7831C3.92157 14.7505 3.83583 14.7219 3.77459 14.7219C3.68477 14.7219 3.66028 14.7423 3.66028 14.8075ZM4.61154 15.1581C4.68094 15.1989 4.63195 15.2886 4.51355 15.3293C4.32167 15.3946 4.2441 15.3864 4.2196 15.2886C4.17878 15.1255 4.22777 15.0807 4.41149 15.1092C4.50131 15.1255 4.59112 15.1459 4.61154 15.1581Z" fill="#000080"/>
<path d="M26.862 15.0153C26.5844 15.211 26.5966 15.7328 26.8865 15.8836C27.0008 15.9407 27.0253 15.9407 27.1355 15.8836C27.258 15.8225 27.4254 15.5983 27.4785 15.4311C27.5152 15.3088 27.654 15.2803 27.752 15.3781C27.8622 15.4882 27.85 15.5453 27.6663 15.7328C27.5601 15.8388 27.5111 15.9203 27.5274 15.9611C27.5928 16.1323 27.899 15.9325 28.0092 15.6472C28.0704 15.4882 28.0704 15.4556 28.0133 15.3251C27.9398 15.1458 27.7724 15.0071 27.6336 15.0071C27.5152 15.0071 27.3682 15.158 27.2213 15.4352C27.0988 15.6635 26.9681 15.7205 26.8906 15.5779C26.8293 15.4637 26.8701 15.3537 27.0171 15.2517C27.1437 15.1621 27.1682 15.0561 27.0865 14.9745C27.0212 14.9093 27.013 14.9093 26.862 15.0153Z" fill="#000080"/>
<path d="M4.84425 15.7697C4.72177 15.8023 4.55438 15.8471 4.47681 15.8716C4.39924 15.8961 4.22369 15.9287 4.08896 15.9409C3.86849 15.9613 3.844 15.9776 3.83175 16.0632C3.82359 16.1162 3.83583 16.1977 3.85625 16.2466C3.88074 16.2956 3.90932 16.4219 3.92157 16.5361C3.95015 16.7644 3.98281 16.8133 4.08079 16.7766C4.17469 16.744 4.21144 16.5728 4.15428 16.4505C4.06854 16.2629 4.09712 16.1936 4.26451 16.1692C4.34617 16.1529 4.48089 16.1243 4.55846 16.104C4.63603 16.0836 4.78709 16.0673 4.89324 16.0673C5.01164 16.0673 5.10554 16.0428 5.14637 16.002C5.21985 15.9327 5.21985 15.9205 5.18719 15.7901C5.15861 15.6881 5.15045 15.6881 4.84425 15.7697Z" fill="#000080"/>
<path d="M26.617 15.9528C26.5925 15.9813 26.564 16.071 26.5517 16.1485C26.5395 16.2259 26.5109 16.3727 26.4905 16.4746C26.4333 16.7233 26.4823 16.8007 26.6824 16.8007C26.7681 16.8007 26.8906 16.817 26.9559 16.8374C27.0212 16.8578 27.209 16.9067 27.3764 16.9434C27.7438 17.029 27.7561 17.0209 27.8337 16.5928C27.8622 16.4338 27.899 16.2993 27.9194 16.2871C27.9725 16.2545 27.8745 16.1485 27.7888 16.1485C27.7071 16.1485 27.6255 16.3075 27.6255 16.4705C27.6255 16.6458 27.5479 16.711 27.3723 16.6907C27.1968 16.6662 27.1886 16.6336 27.2825 16.3931C27.3601 16.2055 27.3356 16.1077 27.2172 16.1077C27.111 16.1077 27.0947 16.1525 27.058 16.5194C27.0539 16.5643 26.8987 16.5928 26.8048 16.5684C26.7273 16.548 26.7191 16.5235 26.7436 16.3441C26.7599 16.23 26.7926 16.1077 26.8212 16.0669C26.8742 15.9813 26.8661 15.965 26.7436 15.9283C26.6946 15.912 26.6415 15.9243 26.617 15.9528Z" fill="#000080"/>
<path d="M5.15043 16.5887C5.12594 16.6091 4.95447 16.6661 4.76258 16.7151C4.5707 16.7681 4.32574 16.8374 4.21959 16.874L4.02362 16.9393L4.0522 17.1268C4.06853 17.2287 4.09303 17.3388 4.10936 17.3714C4.12569 17.404 4.15018 17.5018 4.16651 17.5834C4.19101 17.7138 4.21142 17.7383 4.29308 17.7383C4.44413 17.7383 4.48496 17.6241 4.39106 17.4325C4.29308 17.2165 4.29308 17.1309 4.40739 17.0901C4.5462 17.033 5.06878 16.923 5.18718 16.923C5.32599 16.923 5.40764 16.7721 5.33824 16.6417C5.28924 16.552 5.21576 16.5316 5.15043 16.5887Z" fill="#000080"/>
<path d="M26.4578 16.9968C26.3231 17.1109 26.2373 17.2781 26.2373 17.4289C26.2373 17.6857 26.5395 17.8977 27.0457 18.0037C27.4866 18.0934 27.7928 17.5267 27.4825 17.1924C27.3682 17.0661 27.2784 17.0579 27.2213 17.1639C27.1886 17.221 27.1968 17.2618 27.258 17.3311C27.356 17.4452 27.3641 17.6286 27.2702 17.7183C27.1845 17.808 26.9804 17.7836 26.7068 17.6531C26.5354 17.5716 26.5027 17.5349 26.4905 17.433C26.4782 17.2699 26.5272 17.2047 26.6905 17.1721C26.8007 17.1517 26.8334 17.1231 26.8416 17.0335C26.8538 16.9315 26.8457 16.9234 26.6987 16.9234C26.6129 16.9234 26.5068 16.956 26.4578 16.9968Z" fill="#000080"/>
<path d="M5.33822 17.9222C5.21574 17.9792 4.97895 18.073 4.80748 18.1301C4.44821 18.2524 4.38697 18.2972 4.41963 18.4236C4.45229 18.5418 4.55844 18.5377 4.82381 18.4154C5.08918 18.2891 5.36272 18.1871 5.50561 18.1586C5.66075 18.1301 5.77099 17.9996 5.71791 17.9099C5.65259 17.808 5.58318 17.808 5.33822 17.9222Z" fill="#000080"/>
<path d="M26.0618 17.8936C26.0006 17.9589 26.0006 17.9752 26.0577 18.0567C26.0904 18.1056 26.1516 18.1464 26.1884 18.1464C26.3027 18.1505 26.7028 18.3013 26.7191 18.3461C26.7436 18.4195 26.5231 18.4807 26.1353 18.5092L25.7678 18.5337L25.7719 18.6845C25.776 18.7905 25.7597 18.8394 25.7229 18.8394C25.6903 18.8394 25.6168 18.9332 25.5555 19.0473C25.4902 19.1655 25.4086 19.3164 25.3718 19.3857C25.3351 19.455 25.3024 19.5243 25.2983 19.5406C25.2983 19.5569 25.4412 19.6384 25.6168 19.724C25.7883 19.8096 26.0373 19.9482 26.1679 20.0338C26.2945 20.1154 26.417 20.1847 26.4333 20.1847C26.4905 20.1847 26.8579 19.4917 26.8334 19.4264C26.8253 19.402 26.7763 19.3694 26.7273 19.3571C26.6538 19.3367 26.6252 19.3694 26.5313 19.5773C26.4211 19.8259 26.3598 19.8626 26.1924 19.777C26.0904 19.7199 26.0945 19.5936 26.1965 19.4631C26.2904 19.3408 26.3027 19.2348 26.221 19.1696C26.1761 19.1329 26.1475 19.1451 26.0863 19.2348C26.0455 19.296 25.9883 19.3979 25.9597 19.459C25.9067 19.5813 25.8087 19.6017 25.6984 19.5161C25.6127 19.4509 25.6045 19.3571 25.678 19.2797C25.7515 19.1941 25.8699 18.9617 25.8699 18.8965C25.8699 18.8231 26.021 18.8557 26.2782 18.9821C26.8742 19.2837 26.9845 19.3041 27.0049 19.1125C27.0171 19.0188 27.0008 18.9984 26.8906 18.978C26.8212 18.9617 26.7558 18.9332 26.7436 18.9169C26.7314 18.8965 26.6946 18.8802 26.6579 18.8802C26.5517 18.8802 26.2782 18.7416 26.2945 18.6967C26.2986 18.6723 26.4496 18.6437 26.6293 18.6315C27.1723 18.5907 27.4417 18.4766 27.307 18.3421C27.258 18.2931 27.0171 18.1953 26.8538 18.1586C26.8008 18.1464 26.6211 18.0649 26.4537 17.9792C26.2904 17.8896 26.1475 17.8203 26.1394 17.8203C26.1353 17.8203 26.0985 17.8529 26.0618 17.8936Z" fill="#000080"/>
<path d="M5.43621 18.3783C5.12593 18.5373 4.97487 18.6025 4.77482 18.6759C4.62785 18.7289 4.5911 18.8716 4.69725 18.9572C4.74216 18.9939 4.81973 18.9653 5.06469 18.8186C5.35456 18.6474 5.49745 18.5984 5.49745 18.6637C5.49745 18.6759 5.37089 18.8593 5.21167 19.0673C5.05653 19.2792 4.92588 19.4749 4.92588 19.5116C4.92588 19.5442 4.96671 19.5931 5.01978 19.6176C5.09327 19.6502 5.17901 19.6217 5.51378 19.4504C5.73425 19.3404 5.93838 19.2466 5.96696 19.2466C5.99554 19.2466 6.06086 19.214 6.10985 19.1732C6.18334 19.1162 6.19967 19.0713 6.17517 18.9898C6.14251 18.8512 6.11393 18.8512 5.89347 19.002C5.7914 19.0673 5.69342 19.1243 5.66892 19.1243C5.64851 19.1243 5.60768 19.1529 5.57911 19.1855C5.53011 19.2466 5.33415 19.2711 5.33415 19.2181C5.33415 19.1895 5.5342 18.9164 5.6036 18.8593C5.6281 18.8349 5.68934 18.7493 5.73833 18.6637C5.7914 18.5821 5.84856 18.5128 5.86897 18.5128C5.93838 18.5128 5.90572 18.3131 5.82815 18.2682C5.73016 18.2193 5.77916 18.2071 5.43621 18.3783Z" fill="#000080"/>
<path d="M5.98737 19.414C5.86489 19.4996 5.62809 19.6382 5.46887 19.7238C5.30556 19.8094 5.17084 19.8991 5.17084 19.9277C5.17084 19.9929 5.41171 20.3435 5.51786 20.4372C5.65259 20.5555 5.83223 20.5677 6.01186 20.4739C6.0976 20.4291 6.216 20.372 6.27315 20.3476C6.39563 20.2986 6.59977 20.0051 6.59977 19.8787C6.59977 19.7768 6.3793 19.3284 6.30582 19.2836C6.23641 19.2387 6.24458 19.2346 5.98737 19.414ZM6.30582 19.6749C6.38339 19.8421 6.36297 19.9399 6.22416 20.0703C6.0976 20.1845 5.86489 20.3068 5.76282 20.3068C5.73424 20.3068 5.65259 20.2456 5.58319 20.1763L5.45254 20.0418L5.55461 19.9603C5.61176 19.9154 5.72608 19.8421 5.81181 19.7972C5.89755 19.7564 6.01186 19.6871 6.06494 19.6464C6.19558 19.5485 6.25274 19.5526 6.30582 19.6749Z" fill="#000080"/>
<path d="M25.1432 19.7444C25.0616 19.826 25.0861 19.9197 25.2167 20.0135C25.282 20.0624 25.3514 20.1032 25.3718 20.1032C25.3922 20.1032 25.4862 20.1562 25.576 20.2255C25.6699 20.2907 25.7597 20.3478 25.7719 20.3478C25.7842 20.3478 25.8658 20.4008 25.9516 20.4701C26.1312 20.6127 26.2169 20.625 26.2782 20.5149C26.3394 20.3967 26.3272 20.3559 26.2333 20.3274C26.1516 20.2989 25.4657 19.8912 25.2739 19.7567C25.2126 19.7077 25.18 19.7077 25.1432 19.7444Z" fill="#000080"/>
<path d="M6.66102 20.2865C6.53037 20.4129 6.05678 20.7268 5.89348 20.8002C5.80366 20.8409 5.78324 20.8735 5.79141 20.9551C5.81182 21.1344 5.94655 21.11 6.27725 20.8613C6.44463 20.739 6.6651 20.5963 6.77125 20.5433C6.9713 20.4455 7.02029 20.3354 6.91822 20.2335C6.84474 20.1601 6.78758 20.1724 6.66102 20.2865Z" fill="#000080"/>
<path d="M24.7513 20.3475C24.6084 20.5065 24.5961 20.5351 24.6165 20.7022C24.641 20.9264 24.8329 21.1425 25.1595 21.3055C25.4371 21.4441 25.6045 21.4237 25.7801 21.224C25.9393 21.0487 25.9761 20.8775 25.8944 20.7226C25.8168 20.5758 25.7107 20.5269 25.6331 20.6044C25.5841 20.6574 25.5841 20.6859 25.6454 20.8123C25.7148 20.959 25.7148 20.9631 25.625 21.0609C25.5719 21.118 25.4943 21.1628 25.4535 21.1628C25.3882 21.1628 25.1963 21.065 25.135 20.9998C25.1228 20.9876 25.0779 20.959 25.033 20.9346C24.9881 20.9101 24.9268 20.8367 24.8942 20.7756C24.8452 20.6737 24.8452 20.6451 24.8982 20.5554C24.9472 20.4698 24.984 20.4494 25.1024 20.4576C25.2044 20.4658 25.2698 20.4413 25.3228 20.3842C25.4208 20.2742 25.3555 20.2171 25.1065 20.1967C24.9146 20.1763 24.9023 20.1804 24.7513 20.3475Z" fill="#000080"/>
<path d="M7.0693 20.8247C7.02439 20.8369 6.9509 20.8736 6.90599 20.9021C6.86108 20.9347 6.78759 20.9592 6.7386 20.9592C6.68961 20.9592 6.62837 20.9877 6.59979 21.0203C6.57121 21.0529 6.52222 21.0815 6.48956 21.0815C6.45282 21.0815 6.3385 21.1141 6.22419 21.1508C6.06905 21.2079 6.02822 21.2405 6.03639 21.3016C6.0568 21.4198 6.1752 21.4769 6.27318 21.4158C6.39974 21.3383 6.4569 21.3546 6.57121 21.5177C6.6692 21.6563 6.67328 21.6767 6.62021 21.7541C6.4814 21.9376 6.50181 22.068 6.6692 22.0925C6.73452 22.1006 6.78351 22.0476 6.89783 21.8397C6.97948 21.693 7.1387 21.4484 7.25302 21.2894C7.43265 21.0407 7.45307 20.9959 7.41632 20.9021C7.3755 20.7961 7.27751 20.7717 7.0693 20.8247ZM7.08971 21.1304C7.08563 21.1589 7.02439 21.2568 6.94274 21.3465L6.80393 21.5095L6.72227 21.4117C6.61204 21.2812 6.61612 21.2568 6.79576 21.1671C6.97131 21.0733 7.08971 21.0611 7.08971 21.1304Z" fill="#000080"/>
<path d="M24.3103 21.0366C24.1307 21.1141 23.9143 21.3831 23.9143 21.5299C23.9102 21.6481 24.0123 21.7826 24.1429 21.8519C24.2572 21.909 24.4083 21.8764 24.6328 21.7459C24.8492 21.6196 24.988 21.6318 25.0044 21.7785C25.0207 21.9171 24.886 22.0313 24.7023 22.0354C24.5389 22.0394 24.4532 22.1251 24.494 22.2392C24.5267 22.3207 24.8207 22.3289 24.9186 22.2514C25.3147 21.9416 25.3841 21.6807 25.1146 21.4932C24.9513 21.3831 24.7717 21.3953 24.5512 21.5339C24.3103 21.6766 24.0939 21.6033 24.196 21.4076C24.2409 21.326 24.3267 21.2853 24.4573 21.2853C24.641 21.2853 24.7023 21.1263 24.5553 21.0325C24.4736 20.9795 24.445 20.9795 24.3103 21.0366Z" fill="#000080"/>
<path d="M7.56736 22.0473C7.204 22.402 7.09377 22.5365 7.1101 22.5936C7.17134 22.7811 7.27341 22.724 7.73883 22.2552C7.98787 22.0065 8.192 21.7783 8.192 21.7538C8.192 21.7253 8.15934 21.6763 8.11851 21.6397C8.05319 21.5785 8.01645 21.607 7.56736 22.0473Z" fill="#000080"/>
<path d="M8.22467 22.0271C8.13485 22.1616 7.91847 22.4062 7.67351 22.6508C7.43672 22.8832 7.42447 22.9199 7.52245 23.0136C7.6286 23.1237 7.68984 23.087 7.88173 22.7976C8.19609 22.3247 8.28999 22.3206 8.1716 22.7853C8.13485 22.9362 8.08586 23.1359 8.06136 23.2256C8.03279 23.3479 8.03279 23.4213 8.06953 23.4824C8.13077 23.6006 8.27775 23.5803 8.34307 23.4457C8.37165 23.3887 8.55128 23.1767 8.74317 22.9769C8.93097 22.7731 9.09019 22.5978 9.09019 22.5856C9.09019 22.5693 9.04528 22.5285 8.99221 22.4959C8.90647 22.4388 8.89014 22.4388 8.80849 22.5203C8.76358 22.5693 8.64927 22.7079 8.55945 22.822C8.40022 23.0299 8.22875 23.1237 8.29408 22.9647C8.31041 22.928 8.33899 22.8098 8.3594 22.7038C8.37573 22.5978 8.40839 22.4796 8.4288 22.4388C8.51862 22.2635 8.51862 22.1045 8.4288 22.0189C8.31857 21.917 8.29816 21.917 8.22467 22.0271Z" fill="#000080"/>
<path d="M23.0243 22.2635C22.8487 22.3328 22.91 22.4592 23.3305 22.8913C23.5469 23.1196 23.7592 23.3071 23.8 23.3153C23.8449 23.3235 23.9592 23.2501 24.0939 23.1237C24.2164 23.0096 24.3348 22.9158 24.3552 22.9158C24.4165 22.9158 24.4124 22.7813 24.3512 22.7201C24.2695 22.6386 24.2083 22.6631 24.0123 22.8628L23.8245 23.0585L23.6938 22.9117C23.555 22.7527 23.306 22.4633 23.1876 22.3165C23.1304 22.2472 23.0937 22.235 23.0243 22.2635Z" fill="#000080"/>
<path d="M22.4201 22.7651C22.3262 22.8426 22.3139 22.8711 22.3507 22.9404C22.4486 23.1076 22.563 23.4215 22.563 23.503C22.563 23.5519 22.5834 23.6131 22.6079 23.6375C22.6324 23.662 22.6691 23.7598 22.6895 23.8577C22.7548 24.143 22.8732 24.2246 22.9671 24.0452C23.008 23.9718 23.0039 23.931 22.9549 23.8332C22.8937 23.715 22.8977 23.7109 23.0039 23.6212C23.1754 23.4785 23.2529 23.4704 23.3877 23.5682C23.502 23.6538 23.5101 23.6538 23.5877 23.5845C23.6285 23.5478 23.6653 23.503 23.6653 23.4867C23.6653 23.4704 23.5591 23.3889 23.4326 23.3033C23.3019 23.2176 23.0937 23.0709 22.9712 22.9771C22.5425 22.651 22.5466 22.6551 22.4201 22.7651ZM23.0529 23.3481C23.0529 23.3726 23.0039 23.4174 22.9467 23.45C22.8528 23.4989 22.8365 23.4989 22.7834 23.4256C22.7058 23.3196 22.6691 23.1769 22.7018 23.0953C22.7222 23.0464 22.7548 23.0587 22.8896 23.1687C22.9794 23.2421 23.0529 23.3236 23.0529 23.3481Z" fill="#000080"/>
<path d="M9.01263 22.9359C8.94322 23.0174 8.88606 23.1112 8.88606 23.1438C8.88606 23.1764 8.95139 23.3069 9.03304 23.4332C9.20451 23.7023 9.20859 23.8653 9.04937 23.8857C8.91056 23.902 8.77175 23.7512 8.75542 23.5678C8.74725 23.4577 8.72684 23.4251 8.66152 23.4251C8.61661 23.4251 8.55945 23.4699 8.53087 23.5229C8.42472 23.739 8.77583 24.1426 9.07387 24.1507C9.19226 24.1548 9.24534 24.1303 9.33924 24.0243C9.49846 23.845 9.4903 23.7308 9.29025 23.4373C9.10245 23.1642 9.10653 23.0582 9.31066 23.0582C9.42906 23.0582 9.51479 23.1682 9.5597 23.3721C9.5842 23.4944 9.69035 23.527 9.72709 23.4251C9.7475 23.3762 9.77608 23.3802 9.91081 23.4455C10.0782 23.5351 10.1149 23.6411 10.0088 23.7308C9.97613 23.7594 9.94755 23.796 9.94755 23.8123C9.94755 23.849 9.71076 24.2241 9.60053 24.3627C9.51479 24.4687 9.52296 24.5298 9.62911 24.6032C9.75567 24.6929 9.78017 24.6847 9.84957 24.5339C9.88223 24.4646 9.96389 24.3097 10.0333 24.1996C10.0986 24.0855 10.1762 23.951 10.2048 23.8939C10.2905 23.7145 10.3517 23.6941 10.5355 23.7879C10.6294 23.8368 10.7069 23.8776 10.7151 23.8816C10.7355 23.8898 10.315 24.6766 10.2497 24.754C10.217 24.7866 10.1925 24.8356 10.1925 24.86C10.1925 24.9293 10.3477 25.0476 10.413 25.0231C10.4456 25.0109 10.5845 24.7703 10.7192 24.4891C10.858 24.2078 10.9846 23.9754 11.005 23.9754C11.0254 23.9754 11.0499 24.0121 11.0621 24.0529C11.0703 24.0977 11.1234 24.1385 11.1764 24.1466C11.3642 24.1711 11.303 24.4116 10.9478 25.0761C10.8253 25.3085 11.0948 25.4226 11.2254 25.1943C11.2622 25.125 11.2948 25.0394 11.2948 25.0027C11.2948 24.9701 11.3193 24.9089 11.3479 24.8763C11.3765 24.8396 11.4377 24.7051 11.4786 24.5747C11.5235 24.4483 11.5684 24.3423 11.5806 24.3423C11.5929 24.3423 11.6704 24.3627 11.7603 24.3871C11.9072 24.4279 11.9154 24.4361 11.895 24.5584C11.8827 24.6317 11.8337 24.7989 11.7888 24.9293C11.6582 25.3003 11.6704 25.4104 11.8746 25.5816C12.0215 25.708 12.0746 25.7283 12.2502 25.7283C12.5441 25.7283 12.6544 25.6101 12.7932 25.1495C12.9075 24.7622 12.9361 24.7377 13.1606 24.8519L13.2872 24.913L13.2055 25.2106C13.1606 25.3696 13.0953 25.602 13.0585 25.7202C12.9932 25.9525 13.0177 26.0137 13.1729 26.0137C13.2994 26.0137 13.3443 25.9362 13.3811 25.6427C13.4015 25.4756 13.4423 25.2595 13.475 25.1576L13.528 24.9742H13.7403C13.9486 24.9742 13.9526 24.9782 13.9281 25.0761C13.9159 25.1332 13.8832 25.3166 13.8628 25.4837C13.8424 25.6509 13.8057 25.8425 13.7771 25.9077C13.7363 26.0096 13.7403 26.0341 13.8057 26.0789C13.8465 26.1115 13.9241 26.136 13.9731 26.136C14.0261 26.136 14.1731 26.1645 14.3037 26.1971C14.5977 26.2746 14.6916 26.2501 14.6753 26.1034C14.663 26.0015 14.6467 25.9933 14.4017 25.9648C14.2588 25.9485 14.1241 25.9199 14.1037 25.8996C14.0833 25.8792 14.071 25.7976 14.0792 25.7243C14.0914 25.5897 14.0955 25.5857 14.2548 25.602C14.5773 25.6346 14.6181 25.6305 14.6344 25.553C14.6589 25.4267 14.565 25.3614 14.3527 25.3614C14.1364 25.3614 14.0955 25.3288 14.1364 25.1821C14.169 25.0435 14.2548 25.0231 14.4956 25.0965C14.7528 25.1739 14.8549 25.1454 14.8386 25.0027C14.8263 24.9089 14.8018 24.8886 14.663 24.8641C14.3976 24.8193 13.9975 24.8274 13.9649 24.8804C13.9445 24.913 13.9241 24.9008 13.9036 24.8437C13.8792 24.7785 13.822 24.754 13.626 24.7337C13.4913 24.7173 13.3688 24.6888 13.3566 24.6684C13.3402 24.644 13.2994 24.6277 13.2586 24.6277C13.2178 24.6277 13.0871 24.5991 12.9728 24.5624C12.7483 24.4891 12.6421 24.5217 12.6421 24.6725C12.6421 24.7744 12.4461 25.3614 12.3931 25.4307C12.3686 25.4593 12.2869 25.4837 12.2134 25.4837C12.0379 25.4837 11.9154 25.3207 11.9848 25.1698C12.0093 25.1169 12.0297 25.0435 12.0297 25.0109C12.0297 24.9497 12.1522 24.6399 12.2379 24.4931C12.2869 24.4035 12.1848 24.2608 12.0705 24.2608C11.9971 24.2608 11.3357 23.9876 11.2785 23.9306C11.254 23.9102 11.2009 23.8939 11.1601 23.8939C11.1152 23.8939 11.058 23.8653 11.0335 23.8327C11.009 23.8001 10.9437 23.7675 10.8907 23.7634C10.8376 23.7553 10.7437 23.7064 10.6865 23.6534C10.6294 23.6044 10.5069 23.5229 10.4171 23.4781C10.3272 23.4292 10.2088 23.3598 10.1517 23.315C10.0864 23.262 10.0047 23.2416 9.91081 23.2498C9.78833 23.2579 9.76384 23.2457 9.73934 23.1519C9.70668 23.0296 9.65769 22.9726 9.4903 22.8625C9.31066 22.7484 9.1596 22.7728 9.01263 22.9359Z" fill="#000080"/>
<path d="M21.6689 23.2704C21.5831 23.303 21.4157 23.4904 21.3749 23.5964C21.3341 23.7065 21.3953 23.9307 21.5015 24.0693C21.5464 24.1264 21.5831 24.1875 21.5831 24.2079C21.5831 24.2242 21.6362 24.3018 21.7015 24.3792C21.7954 24.4934 21.8485 24.5178 22.02 24.5341C22.2118 24.5545 22.2445 24.5423 22.3996 24.42C22.5589 24.2895 22.567 24.2773 22.5548 24.0775C22.5425 23.89 22.5344 23.8737 22.4323 23.8615C22.3139 23.8493 22.3057 23.8614 22.318 24.0815C22.3221 24.1753 22.2976 24.2243 22.2159 24.2773C22.1139 24.3425 22.1016 24.3425 21.9832 24.2732C21.8403 24.1917 21.5668 23.7351 21.6035 23.6414C21.6158 23.6087 21.6729 23.5556 21.726 23.5271C21.8117 23.4823 21.8567 23.4823 21.9914 23.5271C22.1139 23.5679 22.171 23.5679 22.2037 23.5353C22.269 23.47 22.2078 23.2947 22.1057 23.2662C21.9914 23.2377 21.7464 23.2378 21.6689 23.2704Z" fill="#000080"/>
<path d="M20.8972 23.6985C20.8278 23.7678 20.836 23.8575 20.9299 23.9553C21.0238 24.0532 21.379 24.734 21.379 24.8114C21.379 24.8807 21.5178 24.9256 21.624 24.893C21.7342 24.8603 21.7301 24.8318 21.5668 24.5872C21.4933 24.4731 21.3504 24.2162 21.2524 24.0165C21.0728 23.6537 21.0034 23.5925 20.8972 23.6985Z" fill="#000080"/>
<path d="M20.1624 24.0694C20.044 24.1224 19.9256 24.1877 19.9011 24.2121C19.8725 24.2407 19.8235 24.261 19.7908 24.261C19.6929 24.261 19.1172 24.469 19.056 24.526C19.0111 24.5709 19.0111 24.5953 19.0682 24.6972C19.1499 24.844 19.3785 25.5411 19.3785 25.6471C19.3785 25.7123 19.4071 25.7286 19.5173 25.7286C19.5908 25.7286 19.7092 25.7001 19.7704 25.6675C19.8358 25.6349 19.9215 25.6063 19.9623 25.6063C20.1297 25.6063 20.3053 25.4025 20.2114 25.3128C20.1787 25.2802 19.9133 25.3495 19.7745 25.4269C19.6316 25.5085 19.5581 25.4555 19.5173 25.2557C19.4928 25.1334 19.501 25.1294 19.7214 25.0601C19.897 25.003 19.9501 24.9704 19.9501 24.9092C19.9501 24.7869 19.8521 24.7747 19.6398 24.8685C19.4357 24.9622 19.4234 24.9581 19.3458 24.7788C19.3009 24.6687 19.305 24.6606 19.4316 24.6076C19.5051 24.579 19.6194 24.5383 19.6888 24.5219C19.7541 24.5056 19.8398 24.469 19.8766 24.4323C19.9419 24.3793 19.9501 24.3793 19.9705 24.4486C19.9991 24.5342 20.0481 24.6483 20.2318 25.0478C20.3012 25.1987 20.3583 25.3413 20.3583 25.3617C20.3583 25.4677 20.7258 25.3291 20.9381 25.1497C21.1626 24.9581 21.1626 24.7299 20.9299 24.3222C20.738 23.9879 20.5176 23.9145 20.1624 24.0694ZM20.591 24.2814C20.7054 24.363 20.8483 24.6606 20.8483 24.8195C20.8483 25.0274 20.5543 25.215 20.4931 25.0438C20.4808 25.0071 20.4196 24.8644 20.3583 24.7299C20.1787 24.3385 20.1746 24.3059 20.2848 24.2651C20.4196 24.2081 20.4931 24.2121 20.591 24.2814Z" fill="#000080"/>
<path d="M18.7048 24.5953C18.5456 24.6809 18.5211 24.7543 18.5211 25.162C18.5211 25.3821 18.5048 25.5696 18.4844 25.5819C18.4476 25.6063 18.3619 25.4922 18.2313 25.2598C17.9536 24.7543 17.97 24.7706 17.8271 24.7788C17.5821 24.791 17.5821 24.8195 17.8312 25.7735C17.8516 25.855 17.8679 25.961 17.8679 26.0058C17.8679 26.1159 17.9291 26.1485 18.0598 26.1159C18.1496 26.0955 18.1578 26.0751 18.1414 25.961C18.121 25.8264 18.0679 25.6552 17.9618 25.4066C17.8842 25.2231 17.9536 25.1538 18.0557 25.3087C18.1537 25.4555 18.2068 25.5492 18.317 25.7571C18.4191 25.961 18.4966 26.0303 18.5824 25.9977C18.6314 25.9814 18.6436 25.8998 18.6436 25.6185C18.6436 25.1864 18.6722 25.0682 18.762 25.0845C18.8314 25.1008 18.8804 25.3169 18.8845 25.6552C18.8886 25.8591 18.962 25.9243 19.1335 25.8713C19.2356 25.8387 19.2356 25.8468 19.1131 25.5085C19.056 25.3536 19.011 25.1905 19.011 25.1416C19.011 25.0111 18.8722 24.5749 18.8273 24.5627C18.8028 24.5546 18.7498 24.5709 18.7048 24.5953Z" fill="#000080"/>
<path d="M16.5451 24.9298C16.4349 24.9583 16.3369 24.9991 16.3247 25.0276C16.3165 25.052 16.341 25.1662 16.3777 25.2803C16.4226 25.4149 16.4431 25.5983 16.439 25.8225C16.4267 26.275 16.4226 26.2587 16.5615 26.2587C16.7166 26.2587 16.7452 26.1935 16.6839 25.9734C16.6186 25.7369 16.6676 25.688 16.9493 25.7165C17.1616 25.7369 17.1698 25.7369 17.1984 25.6309C17.2106 25.5698 17.2106 25.5086 17.1943 25.4923C17.1779 25.476 17.0432 25.4638 16.8962 25.4638H16.6227L16.6104 25.313C16.5941 25.1377 16.639 25.1132 16.9779 25.1295C17.2433 25.1377 17.2759 25.1214 17.2392 24.9746C17.2147 24.8808 17.1984 24.8727 16.9779 24.8768C16.8513 24.8808 16.6554 24.9053 16.5451 24.9298Z" fill="#000080"/>
<path d="M15.3611 25.0924C15.2509 25.2066 15.2142 25.284 15.1938 25.4634C15.1407 25.8792 15.2427 26.1279 15.5326 26.2665C15.6102 26.3072 15.6959 26.3398 15.7163 26.3398C15.8143 26.3398 16.0593 26.2012 16.1287 26.1075C16.2226 25.977 16.2634 25.5327 16.1981 25.3003C16.1205 25.0231 16.0634 24.9783 15.7653 24.962C15.504 24.9457 15.4959 24.9457 15.3611 25.0924ZM15.847 25.1821C15.9286 25.2147 16.0307 25.4552 16.0307 25.6264C16.0307 25.8996 15.8266 26.1401 15.6673 26.0545C15.4959 25.9648 15.4591 25.8914 15.4591 25.6305C15.4591 25.2596 15.6061 25.0924 15.847 25.1821Z" fill="#000080"/>
<path d="M16.2911 5.79573C16.2354 5.83459 16.0881 5.85014 15.7578 5.85014C15.4196 5.85014 15.2604 5.86569 15.153 5.91233C15.0694 5.94731 14.954 5.97451 14.8903 5.97451C14.8267 5.97451 14.751 6.00172 14.7232 6.03281C14.6953 6.0639 14.6516 6.09111 14.6237 6.09111C14.5958 6.09111 14.5521 6.11832 14.5242 6.14941C14.4964 6.1805 14.4407 6.20771 14.3969 6.20771C14.2775 6.20771 14.0745 6.32042 13.9631 6.45257L13.8557 6.57305L13.7283 6.46811C13.5214 6.2971 13.4657 6.32431 13.3583 6.67022C13.2667 6.94617 13.2627 7.78179 13.3503 7.98389C13.3821 8.05774 13.41 8.14713 13.41 8.17434C13.41 8.20543 13.4657 8.34535 13.5333 8.48527C13.6726 8.76899 13.6567 8.81174 13.4339 8.79231C13.3662 8.78842 13.2508 8.78065 13.1792 8.77676C13.012 8.77288 13.028 8.69126 13.207 8.64851C13.2747 8.62907 13.3224 8.59798 13.3105 8.57855C13.2747 8.52025 13.0996 8.53191 12.9921 8.60187C12.8767 8.67571 12.7335 8.66405 12.2759 8.53968C12.1008 8.49304 11.858 8.44251 11.7386 8.42308C11.6193 8.40365 11.4561 8.37256 11.3805 8.34924C11.3049 8.32592 11.1298 8.30648 10.9945 8.30648C10.5408 8.30648 10.2105 8.50081 10.0076 8.87782C9.9678 8.95943 9.91209 9.04883 9.89219 9.07992C9.84444 9.14211 9.77281 9.32089 9.66536 9.6668C9.54996 10.0244 9.54996 10.6307 9.66138 11.0311C9.73301 11.2992 9.76087 11.3692 9.87229 11.5713C9.89219 11.6024 9.9479 11.7073 9.99565 11.8006C10.0912 11.9794 10.6801 12.6207 10.7517 12.6207C10.7756 12.6207 10.8592 12.6712 10.9388 12.7295C11.0184 12.7878 11.1537 12.8694 11.2412 12.9083C11.3288 12.951 11.4442 13.0016 11.4999 13.0288C11.6312 13.091 11.862 13.1454 12.4151 13.2425C12.6658 13.2892 12.9802 13.3514 13.1115 13.3825C13.2429 13.4135 13.5174 13.468 13.7204 13.5068C13.9233 13.5457 14.0905 13.5923 14.0944 13.6157C14.0984 13.6351 13.9751 13.7439 13.8238 13.8566C13.5214 14.082 13.1235 14.4746 13.0359 14.6378C12.8051 15.0537 12.7414 15.3918 12.8091 15.8543C12.9205 16.6278 13.4219 17.1486 14.4168 17.5139C14.5083 17.5489 14.5202 17.5683 14.4884 17.6266C14.4685 17.6655 14.3849 17.7432 14.3054 17.7938C14.1183 17.9143 13.9193 18.2174 13.8318 18.5089C13.7642 18.7343 13.7642 18.7538 13.8398 19.0608C14.0188 19.7721 14.4168 20.2618 15.1132 20.6038C15.3519 20.7204 15.3997 20.8253 15.2922 20.973C15.2485 21.0274 15.1649 21.179 15.1012 21.3034C14.9978 21.5094 14.9858 21.5716 14.9898 21.9058C14.9938 22.3994 15.1132 22.6792 15.3082 22.6404C15.3679 22.6287 15.3838 22.5743 15.4037 22.2984C15.4236 22.0457 15.4554 21.9175 15.539 21.7581C15.6623 21.5171 15.8175 21.35 15.8772 21.385C15.9011 21.4006 15.917 21.6532 15.917 22.0107C15.917 22.5316 15.9289 22.6365 15.9966 22.7881C16.0404 22.8814 16.104 22.9591 16.1399 22.9591C16.1717 22.9591 16.2871 22.8852 16.3945 22.7997L16.5935 22.6365L16.6015 22.0341C16.6094 21.6221 16.6293 21.4239 16.6572 21.4161C16.685 21.4083 16.7726 21.5094 16.8522 21.6376L17.0034 21.8786L16.9835 22.2401C16.9596 22.6404 16.9795 22.7065 17.1029 22.6676C17.2223 22.6326 17.3377 22.4616 17.3615 22.2789C17.3735 22.1934 17.3974 22.0652 17.4133 21.9913C17.465 21.7426 17.2939 21.2101 17.079 20.9575L16.9835 20.8448L17.1347 20.7126C17.2223 20.6388 17.3814 20.5105 17.4889 20.425C17.847 20.1452 18.1415 19.8459 18.2927 19.6049C18.436 19.3756 18.436 19.364 18.436 18.9792C18.432 18.5633 18.4002 18.4545 18.1733 18.1125C18.1136 18.0192 18.0659 17.9376 18.0659 17.9298C18.0659 17.9181 18.0142 17.8521 17.9465 17.7821C17.8828 17.7121 17.8271 17.6305 17.8271 17.5956C17.8271 17.5606 17.9386 17.479 18.0778 17.4012C18.5952 17.1253 18.8379 16.9232 19.0966 16.5656C19.4865 16.0176 19.4786 15.147 19.0687 14.564C18.9374 14.3735 18.8299 14.2803 18.3484 13.911C18.046 13.6817 17.9664 13.5962 18.0062 13.5574C18.046 13.5224 18.5514 13.3825 18.8817 13.3203C19.6099 13.1804 20.0516 13.0754 20.163 13.0171C20.2108 12.9899 20.2784 12.9705 20.3143 12.9705C20.37 12.9705 20.5928 12.8694 21.0504 12.6362C21.3887 12.4613 21.8821 11.9366 22.101 11.5091C22.3517 11.0194 22.3756 10.9067 22.3756 10.3043C22.3756 9.70955 22.3398 9.55409 22.0851 9.03328C21.91 8.67183 21.7269 8.48527 21.3927 8.32592C20.9908 8.13936 20.8475 8.14324 20.0357 8.36478C19.6298 8.47749 19.3871 8.48915 18.826 8.43863C18.5872 8.41919 18.5355 8.42308 18.5514 8.46583C18.5633 8.50081 18.6509 8.52802 18.7862 8.53968C18.9732 8.55523 19.0011 8.57077 19.013 8.64851C19.0289 8.75733 19.009 8.7651 18.5116 8.78454C18.1773 8.7962 18.0937 8.78842 18.0778 8.74567C18.0659 8.71458 18.1097 8.57077 18.1773 8.43085C18.245 8.28705 18.3285 8.08106 18.3604 7.97612C18.4479 7.6924 18.5554 6.93451 18.5315 6.80625C18.4957 6.63135 18.4041 6.33208 18.3763 6.30487C18.3643 6.29321 18.2768 6.30876 18.1813 6.34374L18.0062 6.40204L17.8749 6.25824C17.7475 6.11832 17.7038 6.09888 17.2302 5.97451C17.1546 5.95508 17.0233 5.93565 16.9357 5.93565C16.8323 5.93565 16.7447 5.90455 16.6651 5.83848C16.5338 5.72965 16.4105 5.71411 16.2911 5.79573ZM16.0245 6.07945C16.0364 6.11832 16.1359 6.29321 16.2473 6.472C16.502 6.88787 16.6413 7.26487 16.6253 7.49029C16.6134 7.64187 16.6015 7.66519 16.5338 7.64964C16.3428 7.61855 16.2274 7.64187 16.0961 7.73904C15.9807 7.82454 15.9289 7.84009 15.8454 7.81677C15.7857 7.80122 15.6743 7.78956 15.5947 7.79734C15.4673 7.80511 15.4355 7.78568 15.3201 7.64187C15.2087 7.50584 15.1848 7.44754 15.1888 7.28819C15.1888 7.17159 15.2166 7.07054 15.2564 7.02779C15.2922 6.98892 15.3201 6.92673 15.3201 6.88398C15.3201 6.84511 15.3758 6.7324 15.4395 6.63524C15.5032 6.53807 15.5589 6.44091 15.5589 6.42147C15.5589 6.39815 15.5907 6.35151 15.6305 6.31653C15.6663 6.28544 15.7499 6.19994 15.8096 6.13386C15.9409 5.99783 15.9886 5.98617 16.0245 6.07945ZM14.9898 6.31265C15.1052 6.39038 15.2007 6.47589 15.2007 6.50309C15.2007 6.60803 14.9182 7.09774 14.8028 7.19491C14.6675 7.30374 14.6476 7.30762 14.5481 7.27264C14.4685 7.24155 14.4645 7.0822 14.5401 6.86066C14.572 6.76738 14.6078 6.63912 14.6197 6.57694C14.6794 6.31653 14.7272 6.16884 14.751 6.16884C14.767 6.16884 14.8704 6.23103 14.9898 6.31265ZM17.2063 6.43702C17.3297 6.66244 17.3974 7.05499 17.3615 7.32706C17.3377 7.50973 17.1188 7.78568 17.0233 7.75458C16.9676 7.73515 16.8641 7.49418 16.7646 7.1405C16.6651 6.80236 16.6612 6.68188 16.7248 6.54584C16.8084 6.37872 16.9795 6.19605 17.0432 6.21548C17.0671 6.22714 17.1427 6.32431 17.2063 6.43702ZM17.7555 6.52253C17.9187 6.84511 18.0699 7.35815 18.0579 7.54082L18.046 7.70406H17.847H17.6481L17.5844 7.07054C17.5486 6.72463 17.5088 6.42536 17.4929 6.4137C17.457 6.37872 17.5525 6.28155 17.6043 6.2971C17.6282 6.30487 17.6958 6.40593 17.7555 6.52253ZM14.3173 6.48755C14.3929 6.56139 14.373 6.70131 14.2496 7.02001C14.186 7.18325 14.1223 7.36203 14.1104 7.42033C14.0626 7.62244 13.8875 7.52527 13.8875 7.29596C13.8875 7.1677 13.979 6.84123 14.0905 6.56528C14.1462 6.43702 14.2337 6.40593 14.3173 6.48755ZM18.2967 6.7907C18.3126 7.06665 18.2529 7.11718 18.1495 6.91507C18.05 6.72463 18.046 6.69742 18.1296 6.6158C18.233 6.51475 18.2848 6.56916 18.2967 6.7907ZM13.7005 6.65078C13.7363 6.67799 13.7681 6.75184 13.7681 6.82179C13.7681 6.95783 13.6527 7.17936 13.5811 7.17936C13.5453 7.17936 13.5294 7.09386 13.5294 6.88787C13.5294 6.58471 13.5572 6.54584 13.7005 6.65078ZM19.5224 9.04494C20.2824 9.41806 20.4217 9.77951 20.0317 10.3587C19.9362 10.5025 19.8566 10.6657 19.8566 10.7201C19.8566 10.7784 19.8288 10.8445 19.7969 10.8717C19.7651 10.8989 19.7372 10.9455 19.7372 10.9766C19.7372 11.0583 19.4109 11.4586 19.2478 11.583C19.1722 11.6374 19.0408 11.719 18.9573 11.7656C18.8737 11.8123 18.7742 11.8628 18.7424 11.8783C18.4797 12.0183 17.9346 12.2281 17.7276 12.2748C17.6401 12.2903 17.4332 12.3447 17.27 12.3914C17.1069 12.4341 16.8999 12.4885 16.8124 12.508C16.7248 12.5235 16.6054 12.5507 16.5458 12.5663L16.4343 12.5896V11.7734C16.4343 11.2137 16.4503 10.9183 16.4821 10.8445C16.5856 10.6191 17.8231 9.09158 17.9624 9.01773C18.0699 8.96332 18.5434 8.90114 18.9254 8.89336C19.1841 8.88948 19.2398 8.90502 19.5224 9.04494ZM13.7602 8.99441C14.0149 9.1149 15.3798 10.5413 15.4713 10.7862C15.5032 10.8717 15.539 11.2409 15.5589 11.6685C15.5788 12.0727 15.6066 12.4458 15.6225 12.4924C15.6583 12.6129 15.5549 12.6479 15.3679 12.5702C15.2883 12.5391 15.0973 12.4769 14.9421 12.4341C14.6754 12.3564 14.572 12.3253 14.2775 12.2281C14.2059 12.2048 14.0785 12.1698 13.995 12.1504C13.9114 12.131 13.8159 12.0999 13.7761 12.0804C13.7403 12.061 13.5811 11.9988 13.4259 11.9444C13.0797 11.8161 12.5823 11.5052 12.439 11.3187C12.3793 11.2448 12.2679 11.0583 12.1923 10.9067C12.1127 10.7551 11.9814 10.5297 11.8938 10.4053C11.7546 10.2032 11.7386 10.1566 11.7386 9.93886C11.7386 9.64348 11.8063 9.51911 12.053 9.37142C12.1525 9.30923 12.3156 9.19652 12.4151 9.11879C12.5146 9.04105 12.6221 8.97109 12.6539 8.95555C12.6857 8.94389 12.9165 8.93223 13.1633 8.93223C13.5135 8.92834 13.6487 8.94389 13.7602 8.99441ZM21.0425 10.0011C21.0465 10.0633 21.0703 10.1799 21.0982 10.2576C21.146 10.417 21.0902 10.5336 20.9788 10.5141C20.9311 10.5064 20.9191 10.4403 20.9231 10.1915C20.9271 10.0205 20.9271 9.87279 20.9311 9.8689C20.9311 9.86113 20.9549 9.86113 20.9828 9.8689C21.0067 9.88056 21.0345 9.93886 21.0425 10.0011ZM11.1457 10.3198C11.1616 10.4403 11.1855 10.6074 11.2014 10.6851C11.2333 10.8562 11.1656 10.8872 11.0462 10.759C10.9865 10.6968 10.9826 10.6385 11.0064 10.3975C11.0462 9.96996 11.098 9.93886 11.1457 10.3198ZM21.8861 10.5413C21.8861 10.7629 21.8742 10.8328 21.8304 10.8328C21.7588 10.8328 21.719 10.6696 21.7468 10.4908C21.7827 10.2887 21.7986 10.2498 21.8463 10.2498C21.8702 10.2498 21.8861 10.3664 21.8861 10.5413ZM15.6782 15.1081C15.6782 15.5046 15.6981 15.9943 15.718 16.1964C15.7658 16.6666 15.7658 16.7016 15.718 16.7016C15.6981 16.7016 15.5668 16.6511 15.4315 16.5928C15.2922 16.5306 15.1012 16.449 15.0017 16.4101C14.6675 16.2741 14.3054 16.072 14.2178 15.9671C14.1064 15.8427 14.0865 15.4968 14.186 15.419C14.2178 15.3918 14.2457 15.3491 14.2457 15.3258C14.2457 15.1742 15.2883 14.3735 15.4872 14.3697C15.5231 14.3697 15.5668 14.3502 15.5827 14.3269C15.6504 14.2181 15.6743 14.4357 15.6782 15.1081ZM17.1148 14.6378C17.6242 14.9138 18.0261 15.3335 18.0261 15.5939C18.0261 15.7339 17.8072 16.0059 17.4769 16.278C17.2859 16.4335 16.7089 16.7016 16.5696 16.7016C16.5219 16.7016 16.5139 16.4995 16.5139 15.5628C16.5139 14.9332 16.5259 14.4124 16.5378 14.4008C16.5617 14.3735 16.8363 14.4863 17.1148 14.6378ZM16.8044 18.2368C17.3974 18.5128 17.6122 19.0336 17.2979 19.4495C17.1944 19.5894 16.7407 19.9664 16.6771 19.9664C16.6253 19.9664 16.6054 19.8342 16.5537 19.1657C16.502 18.4623 16.502 18.1397 16.5577 18.1397C16.5776 18.1397 16.693 18.1824 16.8044 18.2368ZM15.722 18.2835C15.7658 18.3301 15.7777 18.5322 15.7777 19.2046C15.7777 19.9664 15.7698 20.0636 15.7141 20.0597C15.6265 20.0519 15.0774 19.6127 14.9381 19.4339C14.8386 19.3057 14.8227 19.2513 14.8227 19.0453C14.8227 18.8354 14.8386 18.7887 14.946 18.6566C15.0734 18.5011 15.4912 18.2252 15.6026 18.2213C15.6385 18.2174 15.6942 18.2446 15.722 18.2835Z" fill="#000080"/>
<path d="M7.52445 12.9665C7.42099 13.0326 7.3414 14.4007 7.39711 15.1469C7.44089 15.6599 7.46476 15.8348 7.56027 16.2935C7.65975 16.7521 7.8627 17.3234 8.12136 17.8636C8.30442 18.2445 8.77797 18.983 9.01275 19.2473C9.53007 19.8419 9.64946 19.9663 9.70119 19.9663C9.74098 19.9663 9.74894 19.9391 9.72904 19.8614C9.71711 19.8031 9.68925 19.7448 9.67333 19.7331C9.65741 19.7215 9.57385 19.6243 9.4863 19.5193C9.40273 19.4105 9.29131 19.2784 9.23958 19.224C8.87745 18.8236 8.0378 17.4128 8.0378 17.2068C8.0378 17.1718 8.02188 17.1291 8.00198 17.1096C7.97015 17.0747 7.9025 16.8609 7.75924 16.3518C7.65975 15.9864 7.60404 14.937 7.63986 14.0975C7.65975 13.6583 7.67965 13.2269 7.67965 13.1414C7.67965 12.9782 7.61996 12.9082 7.52445 12.9665Z" fill="#000080"/>
<path d="M24.3016 12.9547C24.2857 12.9702 24.2738 13.5454 24.2698 14.2295C24.2698 14.9174 24.2499 15.5742 24.23 15.6908C24.2101 15.8074 24.1783 16.0095 24.1584 16.1378C24.1385 16.2661 24.1066 16.4138 24.0828 16.4682C24.0589 16.5226 24.0032 16.6936 23.9554 16.8491C23.9037 17.0045 23.848 17.1406 23.8321 17.1522C23.8122 17.1639 23.7962 17.1989 23.7962 17.2338C23.7962 17.3232 23.4301 18.015 23.2312 18.3065C23.1396 18.4387 22.8571 18.8196 22.6024 19.1499C22.0413 19.8806 22.0732 19.834 22.101 19.9506C22.1368 20.0905 22.2204 20.0633 22.3796 19.8573C22.4552 19.7562 22.5945 19.5852 22.682 19.4803C22.9287 19.181 23.1755 18.8662 23.2192 18.7924C23.2431 18.7574 23.3506 18.5825 23.462 18.4037C23.6968 18.0345 24.035 17.3738 24.035 17.2844C24.035 17.2533 24.0629 17.1911 24.0947 17.1522C24.1265 17.1095 24.1544 17.0278 24.1544 16.9734C24.1544 16.919 24.1743 16.8529 24.1982 16.8296C24.222 16.8063 24.2618 16.7091 24.2817 16.6159C24.4091 16.0601 24.4369 15.7569 24.4568 14.7386C24.4847 13.3433 24.4369 12.8225 24.3016 12.9547Z" fill="#000080"/>
<path d="M23.2948 13.5959C23.2789 13.6192 23.263 14.0895 23.259 14.6375C23.2511 15.5703 23.2431 15.6558 23.1476 16.0017C22.9725 16.6352 22.7059 17.2649 22.4751 17.5952C22.4234 17.6691 22.3676 17.7585 22.3517 17.7896C22.3159 17.8673 22.2483 17.9645 21.8583 18.5319C21.6752 18.7923 21.528 19.0177 21.528 19.0372C21.528 19.0566 21.5598 19.0877 21.6036 19.1071C21.6633 19.1421 21.7031 19.1149 21.8424 18.9555C21.9299 18.8506 22.0055 18.7496 22.0055 18.7301C22.0055 18.7107 22.0453 18.664 22.0891 18.6213C22.3199 18.4192 23.08 17.0939 23.08 16.8917C23.08 16.8607 23.0959 16.8179 23.1158 16.7985C23.1954 16.7052 23.3903 15.9123 23.4779 15.3099C23.5416 14.859 23.5256 13.798 23.45 13.6581C23.3943 13.5454 23.3426 13.5259 23.2948 13.5959Z" fill="#000080"/>
<path d="M8.43174 13.775C8.40389 13.8488 8.39593 14.1792 8.40787 14.7972C8.4397 16.1264 8.51531 16.414 9.09233 17.4595C9.17589 17.6072 9.29528 17.8054 9.35497 17.8987C9.41864 17.992 9.47037 18.0736 9.47037 18.0891C9.47037 18.1008 9.52608 18.1863 9.58975 18.2834C9.6574 18.3767 9.70913 18.4622 9.70913 18.47C9.70913 18.5011 10.123 19.0919 10.1628 19.1191C10.2424 19.1735 10.3061 19.1502 10.3061 19.0763C10.3061 19.0025 10.1867 18.8159 9.82852 18.334C9.74097 18.2174 9.64148 18.0619 9.60965 17.992C9.57383 17.9259 9.53006 17.8676 9.51016 17.8676C9.48629 17.8676 9.47037 17.8481 9.47037 17.8287C9.47037 17.8054 9.39078 17.6538 9.29926 17.4867C8.98488 16.9503 8.78989 16.3829 8.69439 15.7416C8.6148 15.2014 8.55909 14.1403 8.60286 14.047C8.62276 14.0082 8.63469 13.9149 8.62674 13.8333C8.61082 13.6506 8.49542 13.6117 8.43174 13.775Z" fill="#000080"/>
<path d="M22.296 14.2997C22.2721 14.3269 22.2443 14.4474 22.2323 14.564C22.1368 15.4229 22.0811 15.8232 22.0453 15.8854C22.0254 15.9243 22.0055 15.9981 22.0055 16.0486C22.0055 16.2313 21.7787 16.721 21.4444 17.2652C21.2136 17.6422 21.1897 17.7315 21.329 17.7315C21.6195 17.7315 22.2841 16.2702 22.3637 15.4579C22.3796 15.2985 22.4154 14.9993 22.4432 14.7933C22.4791 14.5134 22.4791 14.3968 22.4472 14.3346C22.3955 14.2414 22.3517 14.2336 22.296 14.2997Z" fill="#000080"/>
<path d="M9.4664 14.455C9.45844 14.8242 9.48231 15.3839 9.51017 15.4966C9.53007 15.5704 9.58578 15.8075 9.63353 16.0213C9.68128 16.235 9.74495 16.4449 9.77679 16.4877C9.80464 16.5304 9.82852 16.5965 9.82852 16.6315C9.82852 16.717 10.1827 17.3777 10.3578 17.6226C10.509 17.8324 10.5886 17.8907 10.6801 17.8558C10.7557 17.8247 10.7478 17.8091 10.4453 17.3427C10.2623 17.0668 10.1349 16.8258 10.0116 16.5071C9.97178 16.4099 9.91607 16.2739 9.88423 16.2039C9.8524 16.134 9.82852 16.0368 9.82852 15.9824C9.82852 15.9319 9.8126 15.8464 9.78873 15.7881C9.76883 15.7337 9.72108 15.415 9.68924 15.0768C9.65343 14.7426 9.62159 14.4433 9.60965 14.4161C9.57782 14.3345 9.47037 14.3617 9.4664 14.455Z" fill="#000080"/>
</g>
<path d="M40.9659 19.3214H38L42.5191 6.23047H46.0859L50.5987 19.3214H47.6328L44.3537 9.22199H44.2514L40.9659 19.3214ZM40.7805 14.1758H47.7862V16.3363H40.7805V14.1758ZM54.9421 6.23047V19.3214H52.1743V6.23047H54.9421ZM59.987 6.23047V19.3214H57.2192V6.23047H59.987ZM62.2642 6.23047H65.6775L69.2826 15.0259H69.436L73.0412 6.23047H76.4545V19.3214H73.7699V10.8008H73.6612L70.2734 19.2575H68.4453L65.0575 10.7688H64.9488V19.3214H62.2642V6.23047ZM85.8364 9.99538C85.7853 9.47978 85.5658 9.07918 85.1781 8.79368C84.7903 8.50818 84.264 8.36538 83.5992 8.36538C83.1475 8.36538 82.7661 8.42938 82.455 8.55718C82.144 8.68078 81.9053 8.85338 81.7391 9.07499C81.5772 9.29648 81.4962 9.54799 81.4962 9.82919C81.4877 10.0636 81.5367 10.2681 81.6433 10.4428C81.7541 10.6176 81.9053 10.7688 82.0971 10.8967C82.2889 11.0203 82.5104 11.1289 82.7619 11.2227C83.0133 11.3122 83.2817 11.3889 83.5673 11.4528L84.7434 11.734C85.3144 11.8619 85.8386 12.0323 86.3158 12.2454C86.7931 12.4585 87.2065 12.7205 87.5559 13.0316C87.9053 13.3427 88.1759 13.7092 88.3677 14.1311C88.5637 14.5529 88.6639 15.0366 88.6681 15.5821C88.6639 16.3832 88.4593 17.0778 88.0545 17.6659C87.6539 18.2497 87.0744 18.7035 86.3158 19.0274C85.5616 19.347 84.6518 19.5068 83.5864 19.5068C82.5296 19.5068 81.6092 19.3448 80.8251 19.021C80.0452 18.6971 79.4359 18.2177 78.9969 17.5828C78.5623 16.9436 78.3343 16.1531 78.313 15.2113H80.9913C81.0211 15.6502 81.1468 16.0167 81.3684 16.3107C81.5942 16.6005 81.8947 16.82 82.2697 16.9691C82.6489 17.114 83.0772 17.1865 83.5545 17.1865C84.0232 17.1865 84.4302 17.1183 84.7754 16.9819C85.1248 16.8455 85.3954 16.6559 85.5871 16.413C85.7789 16.1701 85.8748 15.891 85.8748 15.5757C85.8748 15.2816 85.7874 15.0345 85.6127 14.8342C85.4423 14.6339 85.1908 14.4634 84.8585 14.3228C84.5303 14.1822 84.1276 14.0544 83.6504 13.9393L82.2249 13.5813C81.1212 13.3129 80.2498 12.8931 79.6106 12.3221C78.9714 11.7511 78.6539 10.9819 78.6582 10.0146C78.6539 9.22199 78.8648 8.52949 79.291 7.93716C79.7214 7.34483 80.3116 6.88247 81.0616 6.55008C81.8116 6.2177 82.6639 6.0515 83.6184 6.0515C84.59 6.0515 85.438 6.2177 86.1624 6.55008C86.8911 6.88247 87.4579 7.34483 87.8627 7.93716C88.2675 8.52949 88.4764 9.21558 88.4891 9.99538H85.8364ZM93.4382 17.5316L93.3679 18.2348C93.3125 18.7973 93.2059 19.3576 93.0483 19.9159C92.8949 20.4784 92.7329 20.9876 92.5625 21.4436C92.3963 21.8995 92.262 22.2575 92.1598 22.5174H90.3956C90.4595 22.266 90.5468 21.9144 90.6576 21.4627C90.7684 21.0153 90.8728 20.5125 90.9708 19.9542C91.0689 19.396 91.1306 18.8271 91.1562 18.2475L91.1882 17.5316H93.4382ZM104.171 19.3214H99.5298V6.23047H104.209C105.526 6.23047 106.659 6.49254 107.61 7.01669C108.56 7.53658 109.291 8.28445 109.802 9.26028C110.318 10.2362 110.576 11.4038 110.576 12.7632C110.576 14.1268 110.318 15.2987 109.802 16.2788C109.291 17.2589 108.556 18.011 107.597 18.5352C106.642 19.0593 105.5 19.3214 104.171 19.3214ZM102.298 16.95H104.056C104.874 16.95 105.562 16.8051 106.12 16.5153C106.683 16.2213 107.105 15.7674 107.386 15.1538C107.671 14.5359 107.814 13.739 107.814 12.7632C107.814 11.7958 107.671 11.0053 107.386 10.3917C107.105 9.77808 106.685 9.32639 106.127 9.03659C105.568 8.74679 104.88 8.60189 104.062 8.60189H102.298V16.95ZM117.049 19.5132C116.039 19.5132 115.17 19.3086 114.441 18.8995C113.717 18.4862 113.158 17.9024 112.766 17.1481C112.374 16.3896 112.178 15.4926 112.178 14.4571C112.178 13.4471 112.374 12.5607 112.766 11.798C113.158 11.0352 113.71 10.4407 114.422 10.0146C115.138 9.58839 115.977 9.37538 116.94 9.37538C117.588 9.37538 118.191 9.47978 118.749 9.68858C119.312 9.89309 119.802 10.2021 120.22 10.6154C120.641 11.0288 120.97 11.5487 121.204 12.1751C121.438 12.7973 121.555 13.5259 121.555 14.3612V15.109H113.265V13.4215H118.992C118.992 13.0295 118.907 12.6822 118.737 12.3796C118.566 12.0771 118.33 11.8406 118.027 11.6701C117.729 11.4954 117.381 11.408 116.985 11.408C116.572 11.408 116.205 11.5039 115.886 11.6957C115.57 11.8832 115.323 12.1367 115.144 12.4563C114.965 12.7717 114.874 13.1232 114.869 13.511V15.1154C114.869 15.6012 114.959 16.021 115.138 16.3747C115.321 16.7284 115.579 17.0011 115.911 17.1928C116.244 17.3846 116.638 17.4805 117.094 17.4805C117.396 17.4805 117.673 17.4379 117.925 17.3526C118.176 17.2674 118.391 17.1396 118.57 16.9691C118.749 16.7987 118.886 16.5899 118.979 16.3427L121.498 16.5089C121.37 17.114 121.108 17.6424 120.712 18.0941C120.32 18.5416 119.813 18.891 119.19 19.1424C118.573 19.3896 117.859 19.5132 117.049 19.5132ZM126.055 6.23047V19.3214H123.332V6.23047H126.055ZM130.96 13.6453V19.3214H128.237V6.23047H130.883V11.2355H130.998C131.22 10.6559 131.578 10.2021 132.072 9.87398C132.566 9.54158 133.186 9.37538 133.932 9.37538C134.614 9.37538 135.208 9.52449 135.715 9.82278C136.227 10.1169 136.623 10.5409 136.904 11.0948C137.19 11.6446 137.331 12.3029 137.326 13.07V19.3214H134.603V13.5558C134.608 12.9507 134.454 12.4798 134.143 12.1431C133.836 11.8065 133.406 11.6382 132.852 11.6382C132.481 11.6382 132.153 11.717 131.867 11.8747C131.586 12.0323 131.365 12.2625 131.203 12.565C131.045 12.8633 130.964 13.2234 130.96 13.6453ZM139.469 19.3214V9.50318H142.192V19.3214H139.469ZM140.837 8.23758C140.432 8.23758 140.085 8.10334 139.795 7.83487C139.51 7.56215 139.367 7.23616 139.367 6.85689C139.367 6.48189 139.51 6.16017 139.795 5.8917C140.085 5.61897 140.432 5.4826 140.837 5.4826C141.242 5.4826 141.587 5.61897 141.873 5.8917C142.162 6.16017 142.307 6.48189 142.307 6.85689C142.307 7.23616 142.162 7.56215 141.873 7.83487C141.587 8.10334 141.242 8.23758 140.837 8.23758Z" fill="black"/>
</svg>
