<svg width="36" height="36" viewBox="0 0 36 36" fill="none" xmlns="http://www.w3.org/2000/svg">
<g clip-path="url(#clip0_401_169)">
<path d="M17.3046 0.483826C16.0816 0.53624 14.9477 0.667271 14.785 0.766857C14.743 0.793064 14.5751 0.834991 14.4176 0.855957C13.9557 0.913612 13.415 1.03941 13.352 1.1023C13.3205 1.13375 13.2208 1.15995 13.1263 1.15995C13.0371 1.15995 12.9321 1.19664 12.8953 1.23857C12.8586 1.28051 12.7641 1.31719 12.6854 1.31719C12.6066 1.31719 12.3652 1.38533 12.1552 1.47443C11.94 1.55829 11.73 1.63167 11.688 1.63167C11.646 1.63167 11.5621 1.66836 11.5096 1.71029C11.4518 1.75222 11.3731 1.78891 11.3311 1.78891C11.2051 1.78891 9.63563 2.58035 8.95849 2.98393C8.36534 3.34034 8.16588 3.47137 7.7197 3.80682C7.64096 3.86447 7.52548 3.94833 7.46249 3.99026C7.32077 4.08461 6.88509 4.43577 6.46516 4.79742C6.07147 5.13287 5.07414 6.12348 4.74344 6.50609C3.96133 7.4076 2.81702 9.07957 2.40233 9.91294C2.2816 10.154 2.22911 10.2641 2.13463 10.4214C2.10313 10.4738 2.06639 10.5524 2.05064 10.5943C2.0349 10.6362 1.95091 10.8197 1.86692 10.9979C1.78294 11.1813 1.7147 11.3543 1.7147 11.391C1.7147 11.4277 1.67796 11.5063 1.63596 11.5587C1.59397 11.6164 1.55723 11.7002 1.55723 11.7422C1.55723 11.7893 1.48374 11.999 1.39975 12.2139C1.31052 12.4235 1.24228 12.6646 1.24228 12.7432C1.24228 12.8219 1.20553 12.9162 1.16354 12.9529C1.12155 12.9896 1.0848 13.0944 1.0848 13.1835C1.0848 13.2779 1.05856 13.3774 1.02706 13.4089C0.964074 13.4718 0.843344 13.9907 0.775106 14.4729C0.754109 14.6301 0.706867 14.8188 0.675372 14.8922C0.617632 15.0285 0.538895 15.5945 0.454909 16.517C0.318432 17.9741 0.444411 20.7258 0.675372 21.3652C0.706867 21.4491 0.74886 21.6535 0.769856 21.8107C0.827597 22.1986 0.969323 22.7908 1.03231 22.9114C1.05856 22.9638 1.0848 23.0844 1.0848 23.1735C1.0848 23.2678 1.1163 23.3464 1.16354 23.3621C1.21078 23.3831 1.24228 23.4617 1.24228 23.5718C1.24228 23.6714 1.26327 23.7919 1.28952 23.8443C1.44699 24.1641 1.55723 24.4523 1.55723 24.5572C1.55723 24.6253 1.59397 24.7092 1.63596 24.7459C1.67796 24.7825 1.7147 24.8454 1.7147 24.8821C1.7147 24.9555 1.98765 25.5897 2.08739 25.7417C2.11363 25.7836 2.15038 25.857 2.16612 25.8989C2.29735 26.2658 3.28944 27.9326 3.62538 28.3676C3.68837 28.441 3.77236 28.5615 3.81435 28.6244C4.02956 28.9546 4.90617 29.9819 5.46782 30.5532C6.04523 31.1507 6.98482 31.9631 7.58322 32.3877C7.7197 32.4873 7.87717 32.6078 7.94016 32.6655C7.9979 32.7179 8.06089 32.7651 8.08189 32.7651C8.10289 32.7651 8.27086 32.8699 8.46508 33.0009C8.65404 33.1319 8.81677 33.2368 8.83251 33.2368C8.84301 33.2368 8.94275 33.2892 9.05298 33.3573C9.25769 33.4884 9.80885 33.7924 10.1133 33.9496C10.213 33.9968 10.3338 34.0597 10.3758 34.0859C10.4178 34.1068 10.4912 34.1435 10.5332 34.1592C10.5752 34.1802 10.7589 34.2588 10.9427 34.3427C11.1211 34.4266 11.2996 34.4947 11.3416 34.4947C11.3783 34.4947 11.4413 34.5314 11.4781 34.5733C11.5148 34.6152 11.5988 34.6519 11.667 34.6519C11.7353 34.6519 11.8823 34.6991 11.9872 34.7568C12.0975 34.8144 12.2234 34.8616 12.2759 34.8616C12.3232 34.8616 12.3809 34.8825 12.3967 34.914C12.4124 34.9402 12.5174 34.9664 12.6329 34.9664C12.7589 34.9664 12.8428 34.9926 12.8638 35.045C12.8796 35.0922 12.9583 35.1236 13.0633 35.1236C13.1578 35.1236 13.2838 35.1603 13.3363 35.2023C13.394 35.2442 13.499 35.2809 13.5725 35.2809C13.6407 35.2809 13.8349 35.3123 13.9924 35.3543C14.1551 35.3962 14.4071 35.4538 14.5488 35.4905C15.4307 35.7107 16.281 35.7788 18.092 35.7788C18.9423 35.7788 19.8189 35.7631 20.0341 35.7421C20.5643 35.6897 21.3254 35.5744 21.5826 35.501C21.6981 35.4748 21.9816 35.4067 22.2125 35.3595C22.4435 35.3123 22.727 35.239 22.8424 35.197C22.9632 35.1551 23.1049 35.1236 23.1574 35.1236C23.2151 35.1236 23.3096 35.087 23.3621 35.045C23.4198 35.0031 23.5301 34.9664 23.6088 34.9664C23.6875 34.9664 23.7715 34.9402 23.7873 34.914C23.803 34.8825 23.8608 34.8616 23.908 34.8616C23.9605 34.8616 24.0917 34.8144 24.2072 34.7568C24.3227 34.6991 24.4644 34.6519 24.5274 34.6519C24.5904 34.6519 24.6691 34.6152 24.7059 34.5733C24.7426 34.5314 24.8109 34.4947 24.8581 34.4947C24.9368 34.4947 25.0786 34.4318 25.9657 34.002C26.3488 33.8186 26.4381 33.7661 26.6376 33.6561C26.6848 33.6246 26.7635 33.5879 26.8055 33.567C26.8475 33.546 26.9787 33.4726 27.0942 33.3993C27.3829 33.2158 27.4407 33.1791 27.7451 33.0009C27.8921 32.9118 28.0128 32.828 28.0128 32.8017C28.0128 32.7808 28.0391 32.7651 28.0653 32.7651C28.1231 32.7651 28.9629 32.1466 29.3199 31.8426C30.2175 31.0774 30.9681 30.3541 31.4772 29.7513C31.6032 29.6045 31.724 29.4788 31.745 29.4735C31.7712 29.463 31.7922 29.4263 31.7922 29.3844C31.7922 29.3477 31.8289 29.2848 31.8814 29.2481C31.9707 29.1695 32.737 28.1737 32.737 28.1317C32.737 28.095 33.0625 27.6181 33.1412 27.5342C33.178 27.4975 33.2095 27.4346 33.2095 27.398C33.2095 27.3665 33.241 27.3036 33.2777 27.2722C33.3827 27.1621 33.7974 26.3811 34.317 25.2962C34.401 25.1232 34.4692 24.9398 34.4692 24.8978C34.4692 24.8507 34.506 24.7825 34.548 24.7459C34.59 24.7092 34.6267 24.6305 34.6267 24.5676C34.6267 24.5048 34.6582 24.4052 34.7002 24.3475C34.7422 24.2899 34.7894 24.1536 34.8104 24.0488C34.8314 23.9387 34.8682 23.8391 34.8944 23.8234C34.9207 23.8077 34.9417 23.7395 34.9417 23.6661C34.9417 23.5928 34.9732 23.4827 35.0047 23.4198C35.0886 23.273 35.2409 22.707 35.3616 22.099C35.3983 21.926 35.4561 21.664 35.4928 21.5224C35.5716 21.2342 35.6923 20.5371 35.6923 20.3694C35.6923 20.3117 35.7133 20.0863 35.7343 19.8714C35.813 19.2215 35.792 16.8839 35.7028 16.1239C35.5926 15.1857 35.5453 14.9027 35.4771 14.6563C35.4456 14.541 35.3826 14.258 35.3354 14.0274C35.2881 13.7968 35.2146 13.5294 35.1726 13.4351C35.1306 13.3408 35.0991 13.1992 35.0991 13.1206C35.0991 13.042 35.0624 12.9319 35.0204 12.8795C34.9784 12.8219 34.9417 12.7223 34.9417 12.6541C34.9417 12.586 34.9207 12.4917 34.8944 12.4393C34.7947 12.2506 34.6267 11.7841 34.6267 11.695C34.6267 11.6426 34.59 11.5744 34.548 11.5377C34.506 11.5011 34.4692 11.4382 34.4692 11.4015C34.4692 11.3281 34.1963 10.6939 34.0966 10.5419C34.0703 10.5 34.0336 10.4266 34.0178 10.3847C33.9391 10.175 33.5507 9.45171 33.3512 9.14247C33.2724 9.01668 33.2095 8.90661 33.2095 8.89613C33.2095 8.88041 33.1045 8.71792 32.9732 8.52924C32.842 8.33531 32.737 8.17283 32.737 8.1571C32.737 8.11517 32.2646 7.50718 31.682 6.79436C31.1413 6.1392 30.1597 5.12239 29.8185 4.8708C29.7345 4.80267 29.4616 4.58253 29.2149 4.38336C28.9734 4.17895 28.6112 3.89592 28.4065 3.7544C27.6506 3.23027 27.3777 3.04683 27.3514 3.04683C27.3409 3.04683 27.2412 2.98917 27.131 2.92628C26.9525 2.81097 26.2334 2.41263 25.9919 2.29732C25.9342 2.26587 25.8502 2.22394 25.8082 2.19773C25.7662 2.17677 25.6927 2.14008 25.6507 2.12436C25.6087 2.10863 25.425 2.02477 25.2465 1.94091C25.0628 1.85705 24.8843 1.78891 24.8424 1.78891C24.8056 1.78891 24.7426 1.75222 24.7059 1.71029C24.6691 1.66836 24.5799 1.63167 24.5117 1.63167C24.4382 1.63167 24.3174 1.60022 24.2439 1.55829C24.013 1.44299 23.7453 1.35912 23.5353 1.33292C23.4251 1.31719 23.3201 1.27526 23.3044 1.23333C23.2886 1.1914 23.2099 1.15995 23.1206 1.15995C23.0366 1.15995 22.9212 1.13375 22.8687 1.10754C22.7374 1.03941 22.1338 0.897888 21.7664 0.850716C21.6089 0.834991 21.4462 0.793064 21.4042 0.766857C21.3359 0.730167 20.7375 0.630581 20.1654 0.562447C20.0814 0.551964 19.6562 0.525757 19.2205 0.510033C18.7901 0.489067 18.3754 0.468102 18.3019 0.46286C18.2285 0.452377 17.7823 0.46286 17.3046 0.483826ZM18.8006 1.21761C18.9476 1.24906 19.3833 1.29099 19.7717 1.31195C20.5381 1.35912 21.5039 1.4954 21.6614 1.57926C21.7139 1.61071 21.8503 1.63167 21.9606 1.63167C22.0708 1.63691 22.2178 1.66836 22.2913 1.71029C22.3648 1.75222 22.475 1.78367 22.5432 1.78891C22.6745 1.78891 23.2571 1.96712 23.4041 2.05098C23.4566 2.08242 23.5406 2.10339 23.5983 2.10339C23.656 2.10339 23.7663 2.13484 23.8503 2.17677C23.929 2.2187 24.1022 2.29208 24.2334 2.33925C24.7374 2.52794 25.9814 3.11496 26.1231 3.23027C26.1651 3.26696 26.2544 3.31413 26.3226 3.3351C26.3856 3.35082 26.5903 3.46613 26.7793 3.58668C26.963 3.70723 27.3042 3.92212 27.5352 4.06888C27.7714 4.2104 27.9603 4.34667 27.9603 4.37288C27.9603 4.39384 28.0128 4.43053 28.0811 4.45674C28.1441 4.48294 28.3068 4.59825 28.4433 4.7188C28.5745 4.83935 28.711 4.9337 28.7372 4.9337C28.7687 4.9337 28.8422 4.99659 28.8999 5.06997C28.9577 5.14335 29.1046 5.27438 29.2254 5.36349C29.5246 5.57838 30.7634 6.83105 30.9313 7.08264C31.0101 7.19794 31.0888 7.29229 31.1151 7.29229C31.1518 7.29229 32.1071 8.51875 32.1071 8.57117C32.1071 8.58689 32.2069 8.74937 32.3329 8.93282C32.4588 9.11102 32.5743 9.29447 32.5953 9.3364C32.6163 9.37833 32.6793 9.48315 32.737 9.57226C32.7948 9.65612 32.8735 9.79763 32.9155 9.88674C32.989 10.0387 33.1727 10.3794 33.2672 10.5419C33.2934 10.5838 33.3407 10.6782 33.3669 10.7516C33.3984 10.8249 33.4824 11.0136 33.5611 11.1709C33.6346 11.3281 33.7344 11.543 33.7764 11.6426C33.8184 11.7422 33.8866 11.8942 33.9233 11.9728C33.9653 12.0566 33.9968 12.1615 33.9968 12.2086C33.9968 12.2558 34.0336 12.3449 34.0756 12.3973C34.1176 12.455 34.1543 12.5546 34.1543 12.6227C34.1543 12.6908 34.1753 12.7852 34.2068 12.8376C34.2908 12.9844 34.4692 13.5714 34.4692 13.7024C34.4692 13.7705 34.4955 13.8492 34.5322 13.8859C34.569 13.9225 34.611 14.0745 34.632 14.2213C34.6845 14.5672 34.8209 15.3167 34.8892 15.6155C34.9207 15.736 34.9417 16.0558 34.9417 16.3231C34.9417 16.5904 34.9784 16.9468 35.0204 17.1093C35.1149 17.4762 35.1306 18.8127 35.0414 19.0852C35.0047 19.1848 34.9627 19.5727 34.9364 19.9501C34.9154 20.3222 34.8472 20.904 34.7894 21.2342C34.7265 21.5644 34.6582 21.947 34.632 22.0885C34.611 22.2248 34.5637 22.3663 34.5322 22.3977C34.4955 22.4344 34.4692 22.5183 34.4692 22.5812C34.4692 22.7279 34.2645 23.3884 34.2015 23.4617C34.1753 23.4879 34.1543 23.5718 34.1543 23.6452C34.1543 23.7186 34.1176 23.8286 34.0756 23.8863C34.0336 23.9387 33.9968 24.0278 33.9968 24.075C33.9968 24.1221 33.9601 24.2322 33.9181 24.3213C33.8761 24.4104 33.8026 24.5572 33.7606 24.6463C33.7186 24.7354 33.6819 24.8297 33.6819 24.8612C33.6819 24.9241 33.1517 25.9776 32.926 26.3707C32.8525 26.5017 32.7685 26.6537 32.7423 26.7113C32.716 26.769 32.6321 26.9053 32.5586 27.0153C32.4851 27.1254 32.4221 27.225 32.4221 27.246C32.4221 27.2617 32.3538 27.3613 32.2646 27.4713C32.1806 27.5814 32.1071 27.6862 32.1071 27.7072C32.1071 27.7491 31.3828 28.7083 31.0888 29.0647C30.7686 29.4421 29.4353 30.7838 29.1676 31.004C28.732 31.3499 27.7031 32.1361 27.6821 32.1361C27.6664 32.1361 27.4617 32.2671 27.2202 32.4296C26.9787 32.5921 26.732 32.7441 26.6743 32.7703C26.6166 32.7965 26.4276 32.9013 26.2544 33.0009C26.0811 33.1005 25.8082 33.242 25.6507 33.3206C25.4932 33.394 25.2308 33.5146 25.0733 33.5932C24.7531 33.7452 24.5851 33.8133 24.2334 33.9444C24.1022 33.9915 23.929 34.0649 23.8503 34.1068C23.7663 34.1488 23.656 34.1802 23.6036 34.1802C23.5511 34.1802 23.4408 34.2117 23.3568 34.2536C23.1364 34.3637 22.685 34.4947 22.5432 34.4947C22.475 34.4947 22.391 34.5209 22.3543 34.5576C22.3175 34.5943 22.1653 34.6362 22.0183 34.6572C21.6719 34.7096 20.9213 34.8459 20.6221 34.914C20.5013 34.9454 20.1864 34.9664 19.9292 34.9664C19.672 34.9664 19.3255 35.0031 19.1575 35.045C18.7796 35.1446 17.3046 35.1551 17.1314 35.0607C17.0684 35.0293 16.6957 34.9821 16.3073 34.9612C15.5776 34.9245 14.6905 34.7987 14.4806 34.7043C14.4123 34.6781 14.2706 34.6519 14.1604 34.6519C14.0554 34.6519 13.9189 34.6152 13.8612 34.5733C13.8087 34.5314 13.709 34.4947 13.6407 34.4947C13.5095 34.4947 12.9268 34.3165 12.7799 34.2326C12.7274 34.2012 12.6381 34.1802 12.5751 34.1802C12.5174 34.1802 12.4019 34.1488 12.3284 34.1068C12.2497 34.0649 12.0817 33.9968 11.9505 33.9444C11.6513 33.8343 11.4728 33.7557 11.1001 33.5827C10.9374 33.5093 10.7484 33.4202 10.6802 33.394C10.612 33.3678 10.5227 33.3206 10.4807 33.2997C10.4387 33.2735 10.3443 33.221 10.2708 33.1791C9.76161 32.9066 9.62513 32.828 9.39942 32.6917C8.83251 32.3562 8.17112 31.9107 8.17112 31.8688C8.17112 31.8426 8.14488 31.8216 8.11338 31.8216C8.04515 31.8216 7.55698 31.4547 7.31027 31.2189C7.22103 31.1298 7.05831 30.9935 6.95333 30.9149C6.68562 30.7157 5.62005 29.657 5.36284 29.332C5.24736 29.1905 5.08464 28.9966 4.9954 28.9075C4.81168 28.7135 4.39175 28.1789 4.39175 28.137C4.39175 28.1213 4.33401 28.0426 4.26053 27.964C4.18704 27.8854 4.0978 27.7648 4.06106 27.6967C3.96133 27.5133 3.43641 26.6694 3.36817 26.5803C3.33143 26.5384 3.28419 26.444 3.26319 26.3707C3.24219 26.2973 3.16871 26.1662 3.10047 26.0771C3.03223 25.988 2.97449 25.878 2.97449 25.836C2.97449 25.7889 2.93775 25.726 2.89575 25.6893C2.85376 25.6526 2.81702 25.5897 2.81702 25.553C2.81702 25.5111 2.74878 25.3434 2.66479 25.1756C2.50207 24.8507 2.46008 24.7668 2.2921 24.3265C2.06639 23.7552 1.92466 23.3517 1.86692 23.0948C1.83543 22.9795 1.79344 22.8642 1.76194 22.8328C1.7357 22.8066 1.7147 22.7122 1.7147 22.6231C1.70945 22.5393 1.67796 22.4082 1.63596 22.3348C1.59397 22.2615 1.56247 22.1095 1.55723 21.9942C1.55723 21.8736 1.53623 21.7583 1.50998 21.7321C1.43125 21.6535 1.28427 20.6052 1.24228 19.819C1.21603 19.4312 1.17404 18.9699 1.14254 18.797C1.07431 18.4143 1.07431 17.8378 1.14254 17.4866C1.16879 17.3399 1.21603 16.8944 1.24228 16.4908C1.28952 15.6679 1.42075 14.7349 1.50473 14.583C1.53098 14.5253 1.55723 14.389 1.55723 14.279C1.56247 14.1689 1.59397 14.0221 1.63596 13.9488C1.67796 13.8754 1.70945 13.7496 1.7147 13.671C1.7147 13.5871 1.74094 13.4718 1.77769 13.4089C1.80918 13.346 1.85643 13.2255 1.87742 13.1363C1.92991 12.911 2.02965 12.6332 2.11363 12.4707C2.15563 12.3973 2.18712 12.2977 2.18712 12.2558C2.18712 12.2139 2.23436 12.0671 2.29735 11.9256C2.35509 11.7841 2.42333 11.6216 2.44958 11.564C2.65954 11.0555 3.43116 9.59322 3.70412 9.17916C3.82485 9.00096 3.91933 8.84896 3.91933 8.83847C3.91933 8.7913 4.26053 8.3091 4.32351 8.27241C4.36026 8.25145 4.39175 8.20428 4.39175 8.16759C4.39175 8.1309 4.49674 7.98414 4.62796 7.83214C4.75919 7.68539 4.86417 7.53863 4.86417 7.51242C4.86417 7.48097 4.92192 7.41284 4.9954 7.35518C5.06364 7.29753 5.21587 7.14029 5.3261 6.99877C5.57806 6.67905 6.59114 5.66748 6.91133 5.41066C7.04256 5.31107 7.21053 5.15907 7.28402 5.08045C7.35751 4.99659 7.43625 4.9337 7.45724 4.9337C7.47824 4.9337 7.61997 4.82887 7.76694 4.69784C7.91917 4.56681 8.06614 4.46198 8.10289 4.46198C8.13963 4.46198 8.18687 4.43053 8.20787 4.39384C8.24461 4.33095 8.72753 3.99026 8.77477 3.99026C8.78527 3.99026 8.9375 3.89592 9.11597 3.77537C9.28919 3.66006 9.58314 3.48709 9.76161 3.39275C9.94008 3.29317 10.192 3.15689 10.3233 3.07827C10.4545 3.00489 10.5962 2.93152 10.6382 2.91055C10.6802 2.89483 10.8587 2.81621 11.0319 2.73235C11.5201 2.50173 11.7248 2.41787 11.8035 2.41787C11.8455 2.41787 11.9242 2.38118 11.982 2.33925C12.0345 2.29732 12.1237 2.26063 12.1762 2.26063C12.2339 2.26063 12.3389 2.22918 12.4124 2.18725C12.6329 2.07718 13.2365 1.88326 13.6302 1.79415C13.7299 1.77319 13.8664 1.72602 13.9294 1.69457C13.9924 1.65788 14.1289 1.63167 14.2339 1.63167C14.3388 1.63167 14.4701 1.61071 14.5226 1.57926C14.68 1.4954 15.6511 1.35912 16.4385 1.31195C16.8427 1.29099 17.2679 1.24906 17.3833 1.22285C17.6668 1.15471 18.4752 1.15471 18.8006 1.21761Z" fill="#000080"/>
<path d="M17.8925 2.40228C17.6668 2.418 17.5513 2.44945 17.5303 2.49662C17.4936 2.5962 17.3886 2.5962 17.3046 2.49662C17.2154 2.38655 16.9477 2.40752 16.7062 2.53855C16.428 2.69579 16.3545 2.82158 16.4857 2.92117C16.6065 3.00503 16.7587 2.97358 16.9162 2.83206C17.0579 2.70103 17.1366 2.70627 17.2101 2.85827C17.2731 3.01027 17.1996 3.11509 16.9634 3.2042C16.8427 3.25137 16.8322 3.27233 16.8847 3.33523C16.9214 3.37716 17.0212 3.41385 17.1104 3.41385C17.3623 3.41385 17.5146 3.73357 17.3309 3.88557C17.2154 3.97991 17.0789 3.90653 16.8689 3.6235C16.7115 3.41385 16.6432 3.36144 16.5225 3.36144C16.2128 3.36144 16.302 3.66019 16.7115 4.00088C16.9109 4.17384 16.9792 4.20005 17.1996 4.20005C17.5356 4.20005 17.7508 4.02184 17.7508 3.73881C17.7508 3.59205 17.777 3.54488 17.8505 3.52916C17.9398 3.50819 17.945 3.5344 17.924 3.88033C17.8925 4.29439 17.945 4.39397 18.1655 4.33632L18.2914 4.30487L18.2652 3.49771C18.2337 2.71151 18.239 2.69055 18.3492 2.63289C18.4069 2.5962 18.4594 2.53855 18.4594 2.50186C18.4594 2.43372 18.3334 2.3551 18.26 2.37607C18.239 2.38131 18.0762 2.39179 17.8925 2.40228ZM17.7928 2.70103C17.8348 2.74296 17.882 2.87924 17.903 2.99979C17.945 3.26709 17.8558 3.39288 17.6563 3.34047C17.5093 3.30378 17.4306 3.16227 17.5146 3.0784C17.5408 3.0522 17.5671 2.93689 17.5671 2.82682C17.5671 2.61193 17.6563 2.56476 17.7928 2.70103Z" fill="#000080"/>
<path d="M22.5222 2.41803C22.3648 2.48092 22.1863 2.72202 22.1863 2.87402C22.1863 2.98933 22.1705 2.99981 22.0288 2.96836C21.8871 2.93691 21.8713 2.9474 21.8713 3.06795C21.8713 3.15705 21.9028 3.20422 21.9501 3.20422C21.9973 3.20422 22.0446 3.23567 22.0603 3.2776C22.0918 3.35622 21.9133 4.00614 21.7874 4.27869C21.6089 4.66655 21.6666 4.93385 21.9291 4.93385C22.0603 4.93385 22.1391 4.72944 22.3385 3.8227C22.433 3.40339 22.6115 3.28284 22.9107 3.4296C22.9894 3.47153 23.1311 3.53967 23.2256 3.58684C23.3254 3.63401 23.4566 3.67594 23.5196 3.67594C23.6613 3.67594 23.866 3.81221 23.866 3.9118C23.866 4.04283 23.6665 4.05331 23.4461 3.92752L23.2361 3.80697L23.0367 3.91704C22.7899 4.05856 22.685 4.32062 22.7742 4.57744C22.8477 4.7871 22.9369 4.86048 23.1941 4.93385L23.3831 4.98627L23.3044 5.14875C23.2099 5.34268 23.2414 5.43702 23.4146 5.46847C23.5721 5.49992 23.761 5.31123 23.761 5.12778C23.761 5.07013 23.8293 4.88144 23.9133 4.70324C23.9972 4.52503 24.0812 4.31014 24.097 4.21579C24.139 4.03235 24.2335 3.97469 24.4277 4.02187L24.5589 4.05856L24.5222 3.7598C24.4749 3.38243 24.5327 3.29857 24.7899 3.37719C24.9946 3.44008 25.0996 3.38243 25.0418 3.24091C24.9946 3.10988 24.6061 2.98409 24.4172 3.0365C24.2702 3.07843 24.2597 3.0994 24.2335 3.39291C24.1967 3.81221 24.097 3.80173 23.887 3.36146C23.7243 3.01553 23.4303 2.66961 23.1836 2.51237C23.0104 2.40754 22.664 2.35513 22.5222 2.41803ZM23.1521 2.87402C23.6403 3.34574 23.7295 3.61304 23.3254 3.38243C23.2046 3.31429 23.0524 3.25663 22.9842 3.25663C22.8057 3.25663 22.5012 3.11512 22.5012 3.03126C22.5012 2.90547 22.7112 2.68009 22.8372 2.68009C22.9002 2.68009 23.0419 2.76919 23.1521 2.87402ZM23.5721 4.23152C23.6823 4.34159 23.677 4.42021 23.5458 4.58793C23.4146 4.75041 23.3254 4.76089 23.1784 4.61413C23.0734 4.50931 23.0786 4.36255 23.1941 4.21055C23.2676 4.12145 23.4723 4.13193 23.5721 4.23152Z" fill="#000080"/>
<path d="M18.5381 2.4703C18.4909 2.54892 18.5959 2.66423 18.7534 2.70092C18.8898 2.73761 18.8898 2.74285 18.8636 3.11498C18.8478 3.32464 18.8111 3.67056 18.7796 3.88546C18.7271 4.24186 18.7324 4.28379 18.8111 4.34669C18.8636 4.38338 18.9633 4.40959 19.0368 4.3991C19.1628 4.38338 19.168 4.36241 19.2048 3.91166C19.2258 3.6496 19.2625 3.28795 19.2835 3.09926L19.3255 2.75857L19.6615 2.7743C19.8504 2.78478 20.0394 2.81099 20.0919 2.84243C20.2231 2.91057 20.2651 3.08878 20.1916 3.23553C20.1391 3.32988 20.0866 3.35608 19.9344 3.3456C19.7769 3.33512 19.7454 3.35084 19.7297 3.45043C19.6877 3.74394 20.0814 4.14752 20.4016 4.14752C20.7428 4.14752 20.7953 4.25235 20.5801 4.50917C20.4646 4.64545 20.4541 4.68738 20.5118 4.75551C20.5591 4.81317 20.6273 4.82889 20.748 4.80268C20.8898 4.77648 20.9265 4.7922 20.9527 4.8813C21 5.02282 20.895 5.14337 20.727 5.14337C20.6378 5.14337 20.5118 5.05951 20.3334 4.8813C20.1916 4.73455 20.0551 4.61924 20.0394 4.61924C20.0237 4.61924 19.9502 4.66641 19.8767 4.72406L19.7454 4.82365L19.8767 4.95992C20.2756 5.38971 20.979 5.55219 21.2414 5.2744C21.4199 5.08572 21.4042 4.84462 21.1995 4.67689C21.042 4.54062 21.042 4.53538 21.084 4.22614C21.1102 4.05318 21.1627 3.72297 21.21 3.49236C21.2519 3.26174 21.2887 3.06781 21.2939 3.05733C21.2939 3.05209 21.3517 3.04685 21.4199 3.04685C21.5826 3.04685 21.6299 2.97347 21.5564 2.83719C21.5144 2.75333 21.4462 2.73237 21.2519 2.73237C21.1155 2.73237 20.8425 2.69568 20.6378 2.65375C19.8714 2.48603 18.5959 2.37596 18.5381 2.4703ZM20.874 2.96823C20.9108 3.01016 20.9265 3.09926 20.9108 3.16215C20.895 3.23029 20.853 3.39277 20.8215 3.53429C20.7323 3.8907 20.4908 4.03745 20.2861 3.84877C20.1496 3.72822 20.1654 3.58146 20.3176 3.53953C20.4751 3.50284 20.6221 3.29319 20.6116 3.13595C20.6063 3.07305 20.6011 2.98919 20.6063 2.9525C20.6116 2.8634 20.7953 2.87388 20.874 2.96823Z" fill="#000080"/>
<path d="M14.0239 2.93685C13.541 3.11506 13.2365 3.20416 13.1263 3.20416C13.0108 3.20416 12.7116 3.33519 12.5804 3.44002C12.5384 3.47671 12.4282 3.52388 12.3442 3.5396C12.2077 3.57105 12.1395 3.5396 11.9348 3.38236C11.7248 3.21988 11.6408 3.18319 11.4256 3.18319C11.2104 3.17795 11.1421 3.20416 11.0109 3.32995C10.8114 3.51864 10.7852 3.81215 10.9532 3.96415C11.0109 4.01656 11.0582 4.07946 11.0582 4.10042C11.0582 4.12663 10.8167 4.2629 10.5227 4.40442C10.2235 4.54593 9.92959 4.72414 9.8666 4.79752C9.79836 4.87089 9.72487 4.93379 9.69338 4.93379C9.65139 4.93379 9.17896 5.23254 9.11597 5.30592C9.10023 5.32165 8.99524 5.38978 8.87976 5.45792C8.76428 5.52606 8.61206 5.64661 8.53857 5.71999C8.46508 5.79861 8.26562 5.97681 8.0924 6.12357C7.91917 6.26508 7.60423 6.5586 7.38901 6.77349C6.86935 7.29762 6.80636 7.36576 6.80636 7.41817C6.80636 7.44438 6.71187 7.54396 6.59639 7.64355C6.43367 7.78506 6.38643 7.86368 6.38643 7.99471C6.38643 8.19388 6.46517 8.28823 6.63314 8.28823C6.78536 8.28823 6.82736 8.19388 6.75912 8.01044C6.68038 7.81127 6.76962 7.7903 6.97433 7.95803C7.06882 8.03664 7.15805 8.10478 7.16855 8.11526C7.1843 8.12575 7.1633 8.16244 7.1318 8.19388C7.09506 8.23057 7.06882 8.32492 7.06882 8.40354C7.06882 8.54505 7.07406 8.55029 7.35752 8.55029C7.59898 8.55029 7.65147 8.53457 7.70396 8.43498C7.7512 8.34588 7.74595 8.28823 7.67246 8.14671C7.57798 7.97375 7.57798 7.97375 7.71446 7.84796C7.79319 7.77458 7.85618 7.68024 7.85618 7.63306C7.85618 7.50727 7.92442 7.53872 8.11864 7.77458C8.54382 8.27774 8.52807 8.26726 8.62256 8.20437C8.87976 8.05237 8.85352 7.99996 8.26037 7.41817C7.95067 7.10893 7.69871 6.83114 7.69871 6.7997C7.69871 6.76825 7.79844 6.66342 7.91917 6.56384L8.13439 6.38039L8.29186 6.56384C8.43359 6.73156 8.93226 7.33431 9.12122 7.56493C9.19471 7.65927 9.21571 7.66451 9.31544 7.60162C9.49916 7.48631 9.50966 7.36052 9.34169 7.19279C8.92176 6.77349 8.48608 6.24936 8.48608 6.16026C8.49133 6.09736 8.65405 5.94012 8.93226 5.74095L9.36793 5.41599L9.47292 5.5313C9.66188 5.73571 9.70388 5.8615 9.60939 5.9506C9.5359 6.02398 9.51491 6.02398 9.41517 5.95584C9.21046 5.81433 9.06348 5.88247 9.06348 6.10784C9.06348 6.14977 9.2472 6.2546 9.47292 6.3437C9.69338 6.43805 9.95059 6.54811 10.0346 6.5848C10.3338 6.71583 10.444 6.72108 10.57 6.60053C10.6382 6.53763 10.6907 6.45901 10.6907 6.42232C10.6907 6.39087 10.5175 6.32274 10.297 6.27032C10.0766 6.21791 9.8876 6.15501 9.87185 6.13405C9.86135 6.11308 9.8876 6.0135 9.93484 5.91391C10.0241 5.72523 10.0031 5.65185 9.78261 5.33737C9.70388 5.22206 9.77736 5.09627 9.99258 4.98096C10.0818 4.93903 10.318 4.80276 10.5175 4.68745C10.9584 4.42538 11.1369 4.36773 11.1789 4.48304C11.2156 4.58262 11.1001 4.70317 10.8849 4.79752C10.4965 4.96 10.2865 5.24827 10.4283 5.42123C10.4545 5.45792 10.5437 5.56275 10.6172 5.65709C10.696 5.75668 10.8114 5.85626 10.8692 5.88247C10.9322 5.91391 11.0372 5.96633 11.1106 6.00826C11.2734 6.1026 11.4308 6.10784 11.5516 6.01874C11.6933 5.91391 11.5831 5.74095 11.3469 5.69902C11.1369 5.65709 10.7957 5.38454 10.7957 5.25351C10.8009 5.13296 10.9007 5.01765 11.1001 4.91807C11.3206 4.81324 11.3416 4.82896 11.6041 5.36882C11.7143 5.58895 11.8245 5.78812 11.8455 5.79861C11.8718 5.81433 11.9505 5.80385 12.024 5.7724C12.1762 5.71474 12.2077 5.54702 12.0922 5.41075C11.9663 5.25875 11.6356 4.66648 11.6356 4.5931C11.6356 4.55117 11.6041 4.49876 11.5621 4.4778C11.5253 4.45683 11.4676 4.38345 11.4308 4.31532C11.3783 4.21049 11.3836 4.19477 11.5043 4.13711C11.6775 4.05849 11.6723 4.02704 11.4518 3.92222C11.2629 3.83311 11.1579 3.60774 11.2576 3.50815C11.3311 3.43477 11.6041 3.50291 11.7195 3.6287C11.7983 3.71781 11.8035 3.7545 11.751 3.83311C11.6618 3.97987 11.6671 3.97987 11.8823 4.00084C12.045 4.01656 12.0817 4.04277 12.1342 4.20001C12.171 4.29959 12.2445 4.48828 12.3074 4.61931C12.3652 4.75034 12.4544 4.98096 12.5017 5.12772C12.5856 5.38978 12.6014 5.40551 12.7641 5.40551C13.0528 5.40551 13.0423 5.24303 12.7326 4.63504C12.6486 4.47255 12.5804 4.29959 12.5804 4.24718C12.5804 4.20001 12.5437 4.13187 12.5017 4.09518C12.3809 3.99559 12.4072 3.77022 12.5489 3.66539C12.6171 3.61822 12.8114 3.56057 12.9898 3.5396C13.2733 3.50815 13.31 3.51864 13.3625 3.61298C13.4675 3.80691 13.4308 3.93794 13.2628 3.99559C13.0843 4.05849 13.0633 4.1738 13.1998 4.33628C13.4255 4.60359 13.8087 4.69793 14.0187 4.54069C14.1814 4.4149 14.2969 4.44635 14.3284 4.61407C14.3651 4.78179 14.5068 4.85517 14.68 4.80276C14.7955 4.76607 14.8218 4.57738 14.7325 4.42014C14.6643 4.29959 14.4701 3.69684 14.4701 3.6025C14.4701 3.56057 14.4281 3.45574 14.3808 3.37188C14.3074 3.24085 14.3021 3.20416 14.3599 3.13078C14.3966 3.08361 14.4648 3.04692 14.5068 3.04692C14.5488 3.04692 14.5751 3.01023 14.5646 2.95257C14.5436 2.82678 14.3389 2.82154 14.0239 2.93685ZM13.9714 3.30898C14.0239 3.39284 14.1551 3.9327 14.1551 4.06897C14.1551 4.21573 14.0187 4.30483 13.7929 4.30483C13.6565 4.30483 13.6302 4.28387 13.6302 4.17904C13.6302 4.1109 13.667 4.02704 13.709 3.99035C13.8087 3.90649 13.8087 3.68112 13.709 3.55008C13.6565 3.48195 13.6512 3.42429 13.688 3.35616C13.7405 3.25133 13.9189 3.21988 13.9714 3.30898ZM7.75645 7.40245C7.78795 7.47058 7.75645 7.53872 7.61997 7.68024C7.52549 7.78506 7.41526 7.86892 7.37851 7.86892C7.29978 7.86892 7.01632 7.6121 7.01632 7.53872C7.01632 7.44962 7.24204 7.17707 7.35227 7.13514C7.46775 7.09321 7.65147 7.219 7.75645 7.40245Z" fill="#000080"/>
<path d="M24.8476 4.07958C24.7374 4.18965 24.8371 4.3102 25.2203 4.51985C25.4408 4.64564 25.6717 4.77667 25.7295 4.81336C25.8502 4.88674 25.9027 4.91295 26.0339 4.95488C26.1441 4.99157 26.1546 5.1855 26.0444 5.22743C26.0077 5.24315 25.8869 5.19598 25.7872 5.11736C25.6875 5.03874 25.5247 4.93391 25.4303 4.88674C25.3358 4.83433 25.1835 4.75047 25.0891 4.69281C24.9263 4.59847 24.9211 4.59847 24.8161 4.69281C24.6061 4.8815 24.7426 5.31653 25.0523 5.48425C25.2675 5.59956 25.2675 5.74107 25.0576 5.76204C24.8948 5.78301 24.7059 5.65197 24.7059 5.52618C24.7059 5.4266 24.4907 5.35322 24.3804 5.41611C24.2387 5.48425 24.265 5.6048 24.4697 5.83018C24.5694 5.94549 24.6534 6.087 24.6534 6.15514C24.6534 6.30189 24.7006 6.37003 24.8529 6.44865C24.9893 6.52203 25.0366 6.45389 25.0103 6.21279C24.9946 6.087 25.0156 6.06079 25.1731 6.02935C25.404 5.98218 25.4985 5.87735 25.509 5.66246C25.5195 5.5157 25.4932 5.47377 25.362 5.41087C25.0891 5.27984 24.9368 5.04398 25.0733 4.96012C25.1363 4.92343 25.8397 5.33225 25.8764 5.4266C25.8922 5.46853 25.8554 5.57859 25.7924 5.67294C25.7295 5.77252 25.656 5.89307 25.6245 5.94024C25.5982 5.99266 25.5037 6.12893 25.4145 6.24948L25.2623 6.46438L25.3883 6.56396C25.5352 6.67403 25.6507 6.69499 25.6507 6.60589C25.6507 6.57444 25.7872 6.31762 25.9552 6.03983C26.1231 5.76204 26.2754 5.49473 26.2964 5.44756C26.3121 5.39515 26.3908 5.34274 26.4643 5.32177C26.5798 5.29556 26.6323 5.31653 26.7583 5.4528C26.9525 5.66246 26.9473 5.74107 26.753 5.97693C26.6638 6.08176 26.4538 6.33334 26.2859 6.53775L25.9762 6.90989L26.0916 7.05664C26.1914 7.18243 26.2229 7.19292 26.3226 7.1405C26.3856 7.10906 26.4381 7.05664 26.4381 7.0252C26.4381 6.95706 27.2202 5.92976 27.278 5.92976C27.3829 5.92976 27.5981 6.087 27.8868 6.36479C28.0548 6.53251 28.2595 6.71072 28.3435 6.75789C28.4223 6.80506 28.4852 6.87844 28.4852 6.92561C28.4852 7.01995 28.3435 7.24009 28.2805 7.24009C28.2543 7.24009 28.0968 7.10906 27.9288 6.94658C27.4459 6.49058 27.3987 6.48534 27.2937 6.8732C27.1992 7.20864 27.3829 7.41829 27.6086 7.23485C27.7819 7.10382 27.8659 7.10906 28.0128 7.2663L28.1336 7.39733L27.7871 7.73277C27.4302 8.06822 27.3829 8.16256 27.4984 8.27787C27.6086 8.38794 27.7346 8.34601 27.9078 8.14159C28.0023 8.03677 28.228 7.79043 28.4118 7.5965C28.7372 7.25581 28.753 7.24533 28.9104 7.30299C29.0259 7.34492 29.0889 7.33967 29.1309 7.29774C29.1729 7.25581 29.0154 7.07761 28.543 6.62686C28.1913 6.29141 27.8396 5.98218 27.7609 5.94549C27.6821 5.90356 27.5824 5.82494 27.5299 5.77252C27.4774 5.72011 27.3672 5.63101 27.278 5.58384C27.194 5.53142 27.1205 5.46853 27.1205 5.44756C27.1205 5.4266 27.0417 5.36894 26.9525 5.32177C26.858 5.26936 26.753 5.19598 26.7215 5.14881C26.6848 5.10688 26.5536 5.01253 26.4223 4.93391C26.0654 4.73474 25.2728 4.2473 25.1311 4.13723C24.9998 4.03765 24.9053 4.01668 24.8476 4.07958Z" fill="#000080"/>
<path d="M17.3046 5.66749C17.1734 5.6937 16.9267 5.71466 16.7482 5.71466C16.575 5.71991 16.3125 5.7566 16.1708 5.79852C16.0291 5.84046 15.8559 5.87715 15.7876 5.87715C15.4884 5.87715 14.3021 6.20211 13.751 6.43797C13.6617 6.47466 13.562 6.5061 13.5357 6.5061C13.5042 6.5061 13.247 6.61093 12.9636 6.74196C12.4649 6.97258 12.3862 7.01451 11.9243 7.27658C11.8088 7.33947 11.6775 7.41285 11.6356 7.43382C11.4833 7.50195 10.7117 8.04705 10.3548 8.33532C10.1553 8.4978 9.91909 8.68649 9.82461 8.75986C9.60939 8.92759 8.83777 9.71902 8.56482 10.0492C8.12914 10.5681 7.46775 11.4853 7.36802 11.695C7.34702 11.7369 7.24729 11.9151 7.14755 12.0881C7.04782 12.2611 6.94284 12.455 6.91134 12.5179C6.80111 12.7852 6.53865 13.3513 6.49141 13.4351C6.45992 13.4875 6.43892 13.5557 6.43892 13.5871C6.43892 13.6186 6.40743 13.7181 6.37068 13.8072C6.12397 14.3838 5.80903 15.5369 5.80903 15.8514C5.80903 15.9247 5.78278 16.0505 5.75128 16.1344C5.53607 16.6795 5.53607 19.5989 5.75128 20.1492C5.78278 20.2331 5.80903 20.3589 5.80903 20.4323C5.80903 20.7101 6.10823 21.8265 6.33919 22.4135C6.36018 22.4711 6.39693 22.576 6.41792 22.6493C6.43892 22.7227 6.52816 22.9429 6.62264 23.1473C6.71712 23.3464 6.8326 23.598 6.87985 23.6976C6.92184 23.7972 7.04257 24.0226 7.14755 24.1955C7.24729 24.3685 7.34702 24.5467 7.36802 24.5886C7.41526 24.6934 8.06615 25.6578 8.11339 25.6893C8.12914 25.705 8.29711 25.9042 8.48083 26.1348C9.18946 27.0206 10.4493 28.137 11.3101 28.6506C11.3574 28.6821 11.4571 28.745 11.5306 28.7922C11.856 29.007 12.3967 29.2901 13.1316 29.6203C13.6197 29.8404 14.8165 30.2283 15.3099 30.3279C15.5567 30.375 15.9083 30.4484 16.0973 30.4851C17.0999 30.6947 19.1103 30.6947 20.1129 30.4851C20.3176 30.4432 20.7218 30.3593 21.021 30.2964C21.3149 30.2388 21.6824 30.1392 21.8346 30.0815C21.9816 30.0291 22.244 29.9348 22.412 29.8823C22.8529 29.7356 23.5983 29.3949 24.2335 29.0385C24.6061 28.8341 24.9001 28.6454 25.5195 28.2156C26.6061 27.4609 27.9656 26.009 28.6165 24.9136C28.648 24.8664 28.732 24.7301 28.8002 24.6148C29.0364 24.2322 29.0522 24.2008 29.2411 23.8286C29.7135 22.8957 30.1492 21.6902 30.2962 20.9197C30.3434 20.6734 30.4117 20.3327 30.4537 20.1597C30.6584 19.2582 30.6636 17.1407 30.4537 16.1501C30.4169 15.9614 30.3434 15.6103 30.2962 15.3639C30.1072 14.4257 29.5718 13.0263 29.0207 12.0357C28.7687 11.5849 28.1283 10.6258 28.0601 10.6048C28.0338 10.5943 28.0128 10.5524 28.0128 10.5105C28.0128 10.4685 27.9971 10.4371 27.9761 10.4371C27.9498 10.4371 27.8186 10.2903 27.6716 10.1069C27.3304 9.6771 26.6533 8.99573 26.2281 8.6498C26.0392 8.4978 25.8659 8.34056 25.8449 8.30387C25.8239 8.26718 25.7767 8.23573 25.7452 8.23573C25.7085 8.23573 25.635 8.1938 25.5772 8.13615C25.3935 7.97367 24.6429 7.47574 24.2807 7.27658C24.097 7.17699 23.8765 7.05644 23.7873 7.00927C23.0472 6.61093 21.6719 6.12349 20.8215 5.96101C20.5748 5.91383 20.2126 5.84046 20.0079 5.79852C19.3885 5.66749 17.714 5.58887 17.3046 5.66749ZM19.9292 6.21783C20.6536 6.33838 20.8793 6.38555 21.0577 6.44321C21.147 6.47466 21.3569 6.53755 21.5302 6.58472C21.9028 6.68955 22.2073 6.79962 22.412 6.90444C22.496 6.94637 22.5905 6.97782 22.622 6.97782C22.706 6.97782 23.5878 7.39188 24.0655 7.66443C25.32 8.36153 26.9683 9.7924 27.6401 10.7673C27.7241 10.8878 27.8396 11.0346 27.9026 11.087C27.9603 11.1447 28.0128 11.2076 28.0128 11.2285C28.0128 11.2495 28.1126 11.4172 28.2333 11.6007C28.5377 12.0462 28.9209 12.7695 29.2044 13.4246C29.2464 13.5242 29.3199 13.671 29.3566 13.7496C29.3986 13.823 29.4301 13.9226 29.4301 13.9645C29.4301 14.0064 29.4668 14.1112 29.5088 14.1899C29.5508 14.2737 29.5876 14.389 29.5876 14.4467C29.5928 14.5043 29.6243 14.6092 29.6663 14.6825C29.7083 14.7559 29.7398 14.8817 29.745 14.9603C29.745 15.0442 29.7713 15.1595 29.808 15.2224C29.8395 15.2853 29.8868 15.453 29.913 15.5998C29.934 15.7413 29.976 15.9667 30.0022 16.0977C30.0337 16.2287 30.081 16.7424 30.1177 17.2403C30.1807 18.1785 30.1282 19.5046 30.0022 20.2226C29.9708 20.3903 29.9288 20.6367 29.9078 20.7782C29.8868 20.9145 29.8395 21.056 29.808 21.0874C29.7713 21.1241 29.745 21.2237 29.745 21.318C29.745 21.4071 29.7083 21.5539 29.6663 21.6325C29.6243 21.7164 29.5876 21.8265 29.5876 21.8736C29.5876 21.9627 29.4878 22.2195 29.3461 22.5078C29.3041 22.5917 29.2726 22.6965 29.2726 22.7437C29.2726 22.7909 29.2359 22.88 29.1939 22.9324C29.1519 22.99 29.1151 23.0739 29.1151 23.1263C29.1151 23.1735 29.0784 23.2416 29.0364 23.2783C28.9944 23.315 28.9577 23.3779 28.9577 23.4146C28.9577 23.5089 28.3593 24.5519 28.1598 24.8035C28.0811 24.9083 28.0128 25.0132 28.0128 25.0289C28.0128 25.1337 27.2517 26.03 26.6481 26.6327C26.0497 27.2355 25.0943 28.0479 24.9893 28.0479C24.9736 28.0479 24.8686 28.116 24.7636 28.1946C24.6586 28.2785 24.5379 28.3624 24.4959 28.3833C24.4539 28.3991 24.2754 28.4986 24.1022 28.6035C23.803 28.7764 23.2046 29.0752 22.8162 29.2429C22.7165 29.2848 22.5905 29.3425 22.538 29.3687C22.3438 29.463 21.3412 29.7775 21.2257 29.7775C21.1575 29.7775 21.0787 29.8037 21.0525 29.8299C21 29.8823 20.895 29.9086 20.1654 30.0343C19.8084 30.092 18.4857 30.2125 18.1707 30.2073C17.7875 30.2073 16.3388 30.0868 16.0448 30.0343C15.8873 30.0029 15.6301 29.961 15.4779 29.94C15.3309 29.919 15.1787 29.8771 15.142 29.8404C15.1052 29.8037 15.0055 29.7775 14.9215 29.7775C14.8323 29.7723 14.701 29.7408 14.6276 29.6989C14.5541 29.657 14.4491 29.6255 14.3913 29.6203C14.3336 29.6203 14.2181 29.5836 14.1341 29.5417C14.0554 29.4997 13.9504 29.463 13.9084 29.463C13.8664 29.463 13.7667 29.4316 13.6932 29.3897C13.6145 29.353 13.4675 29.2796 13.3678 29.2377C12.4492 28.8393 11.4781 28.2837 10.8797 27.812C9.89809 27.0363 8.95325 26.1138 8.55432 25.5321C8.46508 25.401 8.34435 25.249 8.28136 25.1966C8.22362 25.139 8.17113 25.0813 8.17113 25.0603C8.17113 25.0394 8.07665 24.8821 7.96642 24.7144C7.71971 24.3423 7.50449 23.9597 7.25253 23.4355C7.1423 23.2206 7.02682 22.9743 6.98483 22.8957C6.94284 22.8118 6.91134 22.707 6.91134 22.6546C6.91134 22.6074 6.89035 22.5445 6.8641 22.5131C6.80111 22.4554 6.68038 22.1147 6.53865 21.6273C6.48091 21.4229 6.40743 21.187 6.37593 21.1032C6.34444 21.014 6.30244 20.8411 6.28145 20.7101C6.26045 20.579 6.21321 20.3327 6.18171 20.1597C6.00324 19.1534 6.01374 16.9573 6.20796 16.0191C6.24995 15.8147 6.28145 15.5945 6.28145 15.5212C6.28145 15.4478 6.31819 15.343 6.36018 15.2905C6.40218 15.2329 6.43892 15.1333 6.43892 15.0652C6.43892 14.9184 6.79061 13.8387 6.8641 13.7653C6.89035 13.7391 6.91134 13.6762 6.91134 13.629C6.91134 13.5033 7.68821 11.999 7.97691 11.564C8.88501 10.196 10.1343 8.94855 11.5043 8.04181C11.9033 7.7745 13.4413 6.97782 13.5515 6.97782C13.5882 6.97782 13.688 6.94637 13.7719 6.90444C14.0869 6.74196 14.8165 6.5061 14.995 6.5061C15.0685 6.50086 15.1735 6.46941 15.226 6.42748C15.2837 6.38555 15.3992 6.34886 15.4779 6.34886C15.5619 6.34886 15.7299 6.32266 15.8506 6.29121C16.6957 6.08156 18.8898 6.03963 19.9292 6.21783Z" fill="#000080"/>
<path d="M30.1492 8.58692C30.0705 8.6603 30.123 8.80705 30.2962 9.02719C30.5219 9.31022 30.5219 9.38884 30.3224 9.5356C30.06 9.72952 29.913 9.67711 30.0495 9.44125C30.123 9.3207 30.123 9.27877 30.0652 9.21063C29.9445 9.06388 29.7975 9.11105 29.7135 9.3207C29.6663 9.43077 29.5876 9.61422 29.5298 9.73477C29.4773 9.85007 29.4301 9.96538 29.4301 9.98635C29.4301 10.0073 29.3828 10.0859 29.3198 10.1698C29.2411 10.2746 29.2254 10.3532 29.2516 10.4581C29.2779 10.5786 29.3094 10.5996 29.4511 10.5839C29.5666 10.5734 29.619 10.5367 29.6295 10.4633C29.64 10.4057 29.682 10.2589 29.7293 10.1331C29.8238 9.88152 29.9497 9.84483 30.0757 10.0388C30.123 10.1069 30.1965 10.2012 30.2437 10.2484C30.3854 10.3847 30.3172 10.5 29.9812 10.6782C29.5666 10.9036 29.5246 10.9717 29.6978 11.1499C29.8133 11.26 29.8448 11.2705 29.9078 11.2128C30.0127 11.1185 30.3119 10.9088 30.3487 10.9088C30.3644 10.9088 30.5167 10.804 30.6951 10.673C31.0206 10.4319 31.2463 10.3742 31.2988 10.5157C31.3198 10.5577 31.3618 10.5943 31.4038 10.5943C31.5035 10.5943 31.4982 10.3637 31.3985 10.2799C31.3565 10.2432 31.3198 10.1803 31.3198 10.1436C31.3198 10.1017 31.2988 10.0702 31.2725 10.0702C31.2463 10.0702 31.2043 10.0178 31.1885 9.94966C31.1675 9.88676 31.0888 9.75049 31.0101 9.6509C30.9366 9.55132 30.8316 9.3836 30.7739 9.28401C30.4537 8.6865 30.2594 8.47161 30.1492 8.58692ZM30.8736 9.8658C30.9523 10.0178 30.9523 10.0335 30.8631 10.1331C30.6846 10.3323 30.5954 10.348 30.4537 10.2065C30.2804 10.0335 30.2909 9.93393 30.4957 9.80814C30.7214 9.66663 30.7791 9.67711 30.8736 9.8658Z" fill="#000080"/>
<path d="M5.08989 9.47812C5.05314 9.4886 5.02165 9.52529 5.02165 9.5515C5.02165 9.62488 4.80643 10.0914 4.75919 10.1228C4.7382 10.1385 4.68045 10.2329 4.62796 10.3325C4.58072 10.432 4.50723 10.5526 4.47049 10.5945C4.43375 10.6364 4.3865 10.7308 4.36551 10.8042C4.34451 10.8776 4.27102 11.0086 4.20278 11.0977C4.13455 11.1868 4.07681 11.3178 4.07681 11.3912C4.07681 11.4646 4.04006 11.5537 3.99807 11.5904C3.95608 11.6271 3.91933 11.7057 3.91933 11.7686C3.91933 11.8262 3.83535 12.0411 3.73561 12.2403C3.64113 12.4395 3.52565 12.7172 3.4889 12.8588C3.43641 13.0841 3.39442 13.1366 3.2107 13.2257C2.86426 13.4039 2.37084 13.9437 2.3026 14.2267C2.21337 14.5779 2.22386 14.6618 2.39184 14.8505C2.50732 14.9815 2.5913 15.0234 2.72253 15.0234C2.86951 15.0234 2.89575 15.0444 2.9115 15.1649C2.9325 15.3589 3.06897 15.3956 3.14246 15.2278C3.2002 15.102 3.2212 15.0968 3.44166 15.1283C3.57814 15.1492 3.77761 15.1964 3.89309 15.2383C4.00857 15.275 4.16604 15.3117 4.24478 15.3117C4.32351 15.3117 4.44949 15.3379 4.52823 15.3641C4.76444 15.4532 4.87467 15.3851 4.85368 15.1649C4.83793 14.971 4.83793 14.971 4.54923 14.9396C4.02431 14.8767 3.4784 14.7771 3.38917 14.7299C3.25269 14.6565 3.2317 14.4207 3.34193 14.1324C3.39442 13.9856 3.45216 13.8284 3.46791 13.776C3.4994 13.6764 3.63588 13.6607 3.83535 13.7393C4.00332 13.8022 4.00857 13.907 3.85634 13.9752C3.77761 14.0119 3.73561 14.0747 3.73561 14.1586C3.73561 14.3263 3.87209 14.3473 4.34976 14.2634C4.7172 14.2005 4.90092 14.0747 5.10038 13.7655C5.19487 13.6135 5.24211 13.0946 5.17912 12.9007C5.15813 12.8378 5.20012 12.8221 5.38909 12.8221C5.6148 12.8221 5.6253 12.8168 5.64104 12.6491C5.65154 12.5286 5.6358 12.4814 5.57806 12.4814C5.53606 12.4814 5.42058 12.4499 5.3261 12.408C5.23161 12.3661 4.93766 12.2455 4.67521 12.1355L4.19229 11.9415L4.21853 11.7266C4.23428 11.6061 4.27627 11.4855 4.31302 11.4593C4.34976 11.4279 4.397 11.3493 4.418 11.2759C4.439 11.2025 4.48099 11.1134 4.51248 11.0767C4.59122 10.9771 4.80118 10.5893 4.89567 10.3744C4.9954 10.1333 5.08464 10.1018 5.24736 10.2329C5.42058 10.3639 5.38384 10.4949 5.08989 10.8251C4.89567 11.04 4.86417 11.1134 4.86417 11.3021C4.86417 11.5484 4.96391 11.669 5.28935 11.8C5.43108 11.8629 5.49407 11.8577 5.74078 11.7738C6.11347 11.648 6.29194 11.5065 6.27094 11.3598C6.24994 11.1973 6.06622 11.1973 5.83526 11.3493C5.6043 11.5065 5.48882 11.517 5.31035 11.4017C5.15288 11.3021 5.11088 11.192 5.17912 11.061C5.23686 10.9562 5.49407 10.9195 5.49407 11.0191C5.49407 11.0505 5.55706 11.0662 5.6358 11.0558C5.81952 11.0348 5.85626 10.8828 5.70928 10.7465C5.5938 10.6364 5.56756 10.5159 5.64629 10.4687C5.69879 10.4373 6.24469 10.778 6.27094 10.8618C6.28144 10.888 6.34968 10.909 6.41792 10.909C6.65413 10.909 6.72761 10.5264 6.50715 10.4582C6.32868 10.4058 5.36284 9.89743 5.3261 9.83977C5.3051 9.80832 5.29985 9.7035 5.3156 9.60915C5.34184 9.46764 5.33135 9.44143 5.25261 9.44667C5.19487 9.44667 5.12138 9.4624 5.08989 9.47812ZM4.43375 12.4395C4.59122 12.5338 4.60172 12.5548 4.53348 12.6281C4.47049 12.6858 4.46524 12.7277 4.50723 12.7959C4.62271 12.9793 4.418 13.189 4.25528 13.0527C4.20278 13.0108 4.18179 12.9374 4.20278 12.8378C4.23953 12.6596 4.15554 12.6019 4.01906 12.7225C3.87209 12.8535 3.89309 13.0999 4.06106 13.2781C4.22903 13.4563 4.418 13.4668 4.58597 13.3095C4.6857 13.2152 4.7067 13.1418 4.7067 12.8902C4.7067 12.6544 4.72245 12.5862 4.78544 12.5862C4.86417 12.5862 4.87992 12.6334 4.86942 12.8326C4.86417 12.8902 4.88517 12.9584 4.91142 12.9793C4.9954 13.0265 4.97966 13.3462 4.88517 13.5454C4.79594 13.7393 4.60172 13.8756 4.39175 13.907C4.28677 13.9175 4.25528 13.8965 4.24478 13.7917C4.21853 13.6083 4.1083 13.5034 3.87209 13.4301C3.62538 13.3567 3.58339 13.2728 3.68312 13.037C3.72511 12.9321 3.76186 12.8064 3.76186 12.7487C3.76186 12.691 3.81435 12.56 3.88259 12.4604C4.01382 12.2508 4.1188 12.2455 4.43375 12.4395ZM3.28944 13.6607C3.28944 13.6764 3.25269 13.776 3.2107 13.8808C3.16346 13.9856 3.13721 14.1481 3.14246 14.2372C3.15296 14.4521 3.00598 14.6827 2.85901 14.6827C2.70678 14.6827 2.55456 14.536 2.55456 14.3945C2.55456 14.2896 2.87476 13.8651 3.07947 13.7026C3.15821 13.6345 3.28944 13.6135 3.28944 13.6607Z" fill="#000080"/>
<path d="M31.724 10.0598C31.6085 10.1856 31.6137 10.2223 31.7607 10.411C31.8814 10.5577 31.8867 10.563 32.0179 10.4739C32.1649 10.3795 32.1596 10.3219 32.0022 10.0808C31.9077 9.93924 31.8342 9.934 31.724 10.0598Z" fill="#000080"/>
<path d="M31.4458 10.8303C31.409 10.9142 31.4143 10.9299 31.6085 11.2706C31.682 11.3964 31.7397 11.5274 31.7397 11.5641C31.7397 11.5955 31.6295 11.6742 31.4982 11.7423C31.199 11.8838 31.0941 11.8262 31.2568 11.6165C31.388 11.454 31.346 11.2601 31.178 11.2339C31.0993 11.2234 31.0311 11.2811 30.9261 11.4697C30.8421 11.606 30.6741 11.8733 30.5429 12.0568C30.3434 12.345 30.3172 12.4184 30.3539 12.5285C30.3854 12.6228 30.4484 12.67 30.5377 12.6805C30.6636 12.6962 30.6899 12.6648 30.7739 12.4289C30.8264 12.2821 30.9156 12.1249 30.9681 12.0725C31.0626 11.9886 31.0731 11.9939 31.1938 12.1302C31.262 12.214 31.3198 12.3188 31.3198 12.3713C31.3198 12.4184 31.346 12.4866 31.3723 12.5128C31.43 12.5704 31.388 12.6805 31.1938 12.9688C31.1203 13.0788 31.1046 13.1784 31.1203 13.409C31.1466 13.6868 31.1623 13.7235 31.3985 13.9384C31.6032 14.1166 31.64 14.1743 31.577 14.2162C31.535 14.2424 31.4825 14.2634 31.451 14.2634C31.4248 14.2634 31.3093 14.2896 31.2043 14.321C31.0311 14.3629 31.0048 14.3944 31.0048 14.5202C31.0048 14.6145 31.0416 14.6827 31.0941 14.7036C31.1885 14.7403 31.6767 14.6407 31.766 14.5674C31.7922 14.5464 31.8972 14.5254 32.0022 14.5254C32.1019 14.5254 32.2331 14.4887 32.2856 14.4468C32.3434 14.4049 32.4641 14.3682 32.5533 14.3682C32.7003 14.3682 32.7213 14.3892 32.7843 14.6093C32.8263 14.7456 32.8368 14.8661 32.8105 14.8923C32.758 14.9447 31.9707 15.0967 31.5455 15.1387C31.2515 15.1701 31.199 15.2225 31.262 15.4531C31.2935 15.5737 31.3303 15.5999 31.4563 15.5894C31.6662 15.5789 32.1439 15.4689 32.3853 15.385C32.6373 15.2907 32.8105 15.2907 32.8945 15.3902C32.989 15.5056 33.1202 16.8421 33.0362 16.8945C32.8263 17.0308 32.6898 16.8735 32.6793 16.4804C32.6636 15.841 32.5218 15.7362 32.1649 16.1031C31.9707 16.3075 31.9549 16.3389 32.0232 16.4333C32.0599 16.4962 32.1491 16.5433 32.2174 16.5433C32.3958 16.5433 32.4746 16.6062 32.4746 16.753C32.4746 16.926 32.4011 16.9574 31.9549 16.9731C31.4668 16.9888 31.4248 17.0046 31.4248 17.1828C31.4248 17.4553 31.4877 17.492 31.8342 17.4186C32.0022 17.3819 32.3644 17.3557 32.6426 17.3557C33.136 17.3557 33.1465 17.361 33.178 17.4868C33.2095 17.6126 33.3302 17.665 33.3879 17.5759C33.4299 17.5077 33.3249 16.1502 33.2357 15.6523C33.1885 15.3902 33.1202 15.0024 33.0835 14.7875C33.0467 14.5726 32.989 14.321 32.9575 14.2372C32.9313 14.1481 32.8735 13.9751 32.8315 13.8441C32.7423 13.5401 32.5796 13.4824 32.5796 13.7602C32.5796 13.9646 32.5113 14.0223 32.1964 14.0799C32.0704 14.1061 32.0022 14.0956 32.0022 14.059C32.0022 14.0275 31.8709 13.9227 31.7135 13.8179C31.4248 13.6344 31.2935 13.4457 31.3513 13.2937C31.3985 13.1732 31.4877 13.1994 31.682 13.3985C31.9182 13.6449 32.1229 13.6449 32.3853 13.4038C32.6216 13.1889 32.6426 12.9583 32.4588 12.6857C32.3591 12.539 32.3014 12.5023 32.1281 12.4918C31.8604 12.4708 31.7817 12.5599 31.8027 12.8535C31.8237 13.126 31.8972 13.1574 32.0179 12.9478C32.1176 12.7643 32.2279 12.7696 32.2541 12.953C32.2699 13.0369 32.2331 13.1103 32.1491 13.1732C31.9917 13.2937 31.9182 13.2885 31.7292 13.1574C31.5822 13.0526 31.577 13.0317 31.6085 12.7906C31.6347 12.5966 31.6242 12.497 31.5612 12.4027C31.4353 12.2088 31.4615 12.1144 31.6715 12.0306C31.8552 11.9519 31.8657 11.9519 31.9864 12.083C32.1281 12.2402 32.2646 12.2612 32.2646 12.1302C32.2646 12.083 32.1964 11.8995 32.1124 11.7266C31.8657 11.2024 31.7922 11.0242 31.7922 10.9771C31.7922 10.9089 31.6137 10.7517 31.535 10.7517C31.5035 10.7517 31.4615 10.7884 31.4458 10.8303Z" fill="#000080"/>
<path d="M2.81177 15.5318C2.81177 15.5684 2.80127 15.7833 2.79077 16.0035C2.77502 16.2289 2.79077 16.4228 2.81701 16.4385C2.84326 16.4542 2.82226 16.5433 2.76452 16.6377C2.6333 16.8473 2.6333 16.9993 2.75403 17.2876C2.82751 17.471 2.86951 17.513 2.97974 17.513C3.17396 17.513 3.2212 17.3243 3.07422 17.1304C2.95349 16.9626 2.95874 16.8421 3.08997 16.7582C3.20545 16.6848 3.44691 16.8997 3.44691 17.0779C3.44691 17.1723 3.47316 17.2037 3.54139 17.188C3.60438 17.1775 3.63588 17.1146 3.64638 16.9731C3.66737 16.7268 3.83535 16.622 4.05056 16.7163C4.30777 16.8316 4.19754 17.036 3.75661 17.2666C3.5099 17.3977 3.43641 17.5549 3.57289 17.665C3.69887 17.7698 3.88259 17.6964 4.18179 17.4134L4.45999 17.1566L4.43375 16.8368C4.42325 16.6639 4.397 16.5014 4.37601 16.4857C4.35501 16.4647 4.25003 16.4333 4.14504 16.4175C4.00857 16.3966 3.94033 16.3546 3.92983 16.2865C3.89833 16.1293 3.99807 16.0821 4.17129 16.1712C4.26052 16.2184 4.418 16.2551 4.52298 16.2551C4.6962 16.2551 4.7067 16.2446 4.7067 16.0769C4.7067 15.9615 4.67521 15.8882 4.62271 15.8672C4.57547 15.8515 4.21853 15.82 3.8301 15.7991L3.12146 15.7676L3.06897 15.6156C3.01648 15.4689 2.82226 15.4007 2.81177 15.5318ZM3.62538 16.1817C3.72511 16.276 3.72511 16.2708 3.64638 16.4385C3.58339 16.5748 3.50465 16.6062 3.42066 16.5224C3.37867 16.4804 3.2212 16.4385 3.01648 16.4175C2.96399 16.4123 2.96399 16.1817 3.01123 16.1345C3.07947 16.0611 3.54139 16.0978 3.62538 16.1817Z" fill="#000080"/>
<path d="M2.13463 19.0382C2.13463 19.2112 2.23436 19.3475 2.36034 19.3475C2.53356 19.3475 2.58605 19.4051 2.6228 19.6357C2.66479 19.8873 2.62805 19.9555 2.43383 20.0026C2.3131 20.0341 2.28685 20.0655 2.3026 20.1808C2.3131 20.2804 2.34459 20.3171 2.42333 20.3066C2.55456 20.2961 2.88525 20.1756 2.97974 20.1022C3.02173 20.0708 3.10047 20.0288 3.15821 20.0131C3.35243 19.9607 3.87734 19.7248 3.92983 19.6724C3.97182 19.6305 3.97182 19.5571 3.94033 19.4418C3.89309 19.2741 3.87734 19.2688 3.55714 19.2322C3.37342 19.2112 3.14771 19.1693 3.06372 19.1378C2.97449 19.1116 2.84326 19.0854 2.76452 19.0854C2.69104 19.0854 2.5808 19.0487 2.52306 19.0068C2.47057 18.9648 2.36034 18.9282 2.2816 18.9282C2.16612 18.9282 2.13463 18.9544 2.13463 19.0382ZM3.35767 19.489C3.44691 19.5414 3.38392 19.6567 3.2317 19.7091C2.98499 19.793 2.88525 19.7825 2.85376 19.6567C2.80127 19.447 2.86426 19.3894 3.10047 19.4261C3.21595 19.447 3.33143 19.4733 3.35767 19.489Z" fill="#000080"/>
<path d="M31.9654 19.3054C31.6085 19.5569 31.6242 20.2278 31.9969 20.4218C32.1439 20.4951 32.1754 20.4951 32.3171 20.4218C32.4746 20.3431 32.6898 20.0549 32.758 19.84C32.8053 19.6827 32.9837 19.646 33.1097 19.7718C33.2514 19.9133 33.2357 19.9867 32.9995 20.2278C32.863 20.3641 32.8 20.4689 32.821 20.5213C32.905 20.7415 33.2987 20.4846 33.4404 20.1178C33.5192 19.9133 33.5192 19.8714 33.4457 19.7037C33.3512 19.4731 33.136 19.2949 32.9575 19.2949C32.8053 19.2949 32.6163 19.4888 32.4273 19.8452C32.2699 20.1387 32.1019 20.2121 32.0022 20.0287C31.9234 19.8819 31.9759 19.7404 32.1649 19.6094C32.3276 19.494 32.3591 19.3578 32.2541 19.2529C32.1701 19.1691 32.1596 19.1691 31.9654 19.3054Z" fill="#000080"/>
<path d="M3.65688 20.275C3.4994 20.3169 3.28419 20.3746 3.18446 20.406C3.08472 20.4375 2.85901 20.4794 2.68579 20.4951C2.40234 20.5213 2.37084 20.5423 2.3551 20.6524C2.3446 20.7205 2.36034 20.8253 2.38659 20.8882C2.41808 20.9511 2.45483 21.1136 2.47058 21.2604C2.50732 21.5539 2.54931 21.6168 2.67529 21.5696C2.79602 21.5277 2.84326 21.3075 2.76978 21.1503C2.65954 20.9092 2.69629 20.8201 2.9115 20.7886C3.01648 20.7677 3.18971 20.731 3.28944 20.7048C3.38917 20.6786 3.58339 20.6576 3.71987 20.6576C3.87209 20.6576 3.99282 20.6262 4.04531 20.5737C4.1398 20.4846 4.1398 20.4689 4.09781 20.3012C4.06106 20.1702 4.05056 20.1702 3.65688 20.275Z" fill="#000080"/>
<path d="M31.6505 20.511C31.619 20.5477 31.5822 20.663 31.5665 20.7626C31.5507 20.8622 31.514 21.0509 31.4877 21.1819C31.4143 21.5016 31.4772 21.6012 31.7345 21.6012C31.8447 21.6012 32.0022 21.6222 32.0861 21.6484C32.1701 21.6746 32.4116 21.7375 32.6268 21.7847C33.0992 21.8947 33.115 21.8842 33.2147 21.3339C33.2515 21.1295 33.2987 20.9565 33.3249 20.9408C33.3932 20.8989 33.2672 20.7626 33.157 20.7626C33.052 20.7626 32.947 20.967 32.947 21.1767C32.947 21.402 32.8473 21.4859 32.6216 21.4597C32.3958 21.4282 32.3853 21.3863 32.5061 21.0771C32.6058 20.836 32.5743 20.7102 32.4221 20.7102C32.2856 20.7102 32.2646 20.7678 32.2174 21.2396C32.2121 21.2972 32.0127 21.3339 31.8919 21.3025C31.7922 21.2762 31.7817 21.2448 31.8132 21.0142C31.8342 20.8674 31.8762 20.7102 31.9129 20.6578C31.9812 20.5477 31.9707 20.5267 31.8132 20.4796C31.7502 20.4586 31.682 20.4743 31.6505 20.511Z" fill="#000080"/>
<path d="M4.05057 21.3286C4.01907 21.3548 3.79861 21.4282 3.5519 21.4911C3.30519 21.5592 2.99024 21.6483 2.85376 21.6955L2.60181 21.7793L2.63855 22.0204C2.65955 22.1515 2.69104 22.293 2.71204 22.3349C2.73303 22.3769 2.76453 22.5026 2.78553 22.6075C2.81702 22.7752 2.84327 22.8066 2.94825 22.8066C3.14247 22.8066 3.19496 22.6599 3.07423 22.4135C2.94825 22.1358 2.94825 22.0257 3.09522 21.9733C3.27369 21.8999 3.94558 21.7584 4.09781 21.7584C4.27628 21.7584 4.38126 21.5645 4.29203 21.3967C4.22904 21.2814 4.13455 21.2552 4.05057 21.3286Z" fill="#000080"/>
<path d="M31.4458 21.8529C31.2725 21.9996 31.1623 22.2145 31.1623 22.4084C31.1623 22.7386 31.5507 23.0112 32.2016 23.1475C32.7685 23.2628 33.1622 22.5342 32.7633 22.1044C32.6163 21.942 32.5008 21.9315 32.4273 22.0677C32.3854 22.1411 32.3959 22.1935 32.4746 22.2826C32.6006 22.4294 32.6111 22.6653 32.4903 22.7806C32.3801 22.8959 32.1176 22.8644 31.766 22.6967C31.5455 22.5919 31.5035 22.5447 31.4878 22.4137C31.472 22.204 31.535 22.1202 31.745 22.0782C31.8867 22.052 31.9287 22.0153 31.9392 21.9C31.9549 21.769 31.9444 21.7585 31.7555 21.7585C31.6452 21.7585 31.5088 21.8004 31.4458 21.8529Z" fill="#000080"/>
<path d="M4.29202 23.0426C4.13455 23.116 3.8301 23.2365 3.60963 23.3099C3.14771 23.4672 3.06897 23.5248 3.11097 23.6873C3.15296 23.8393 3.28944 23.8341 3.63063 23.6768C3.97182 23.5143 4.32351 23.3833 4.50723 23.3466C4.7067 23.3099 4.84843 23.1422 4.78019 23.0269C4.6962 22.8959 4.60697 22.8959 4.29202 23.0426Z" fill="#000080"/>
<path d="M30.9366 23.0058C30.8579 23.0897 30.8579 23.1106 30.9313 23.2155C30.9733 23.2783 31.0521 23.3308 31.0993 23.3308C31.2463 23.336 31.7607 23.5299 31.7817 23.5876C31.8132 23.6819 31.5297 23.7605 31.0311 23.7972L30.5587 23.8287L30.5639 24.0226C30.5691 24.1589 30.5482 24.2218 30.5009 24.2218C30.4589 24.2218 30.3644 24.3423 30.2857 24.4891C30.2017 24.6411 30.0967 24.835 30.0495 24.9241C30.0022 25.0132 29.9603 25.1023 29.955 25.1233C29.955 25.1443 30.1387 25.2491 30.3644 25.3591C30.5849 25.4692 30.9051 25.6474 31.0731 25.7575C31.2358 25.8623 31.3933 25.9514 31.4143 25.9514C31.4877 25.9514 31.9602 25.0604 31.9287 24.9765C31.9182 24.9451 31.8552 24.9032 31.7922 24.8874C31.6977 24.8612 31.661 24.9032 31.5402 25.1705C31.3985 25.4902 31.3198 25.5374 31.1046 25.4273C30.9733 25.3539 30.9786 25.1914 31.1098 25.0237C31.2305 24.8665 31.2463 24.7302 31.1413 24.6463C31.0836 24.5992 31.0468 24.6149 30.9681 24.7302C30.9156 24.8088 30.8421 24.9398 30.8054 25.0185C30.7371 25.1757 30.6111 25.2019 30.4694 25.0918C30.3592 25.008 30.3487 24.8874 30.4432 24.7878C30.5377 24.6778 30.6899 24.379 30.6899 24.2952C30.6899 24.2008 30.8841 24.2427 31.2148 24.4052C31.9812 24.7931 32.1229 24.8193 32.1491 24.573C32.1649 24.4524 32.1439 24.4262 32.0022 24.4C31.9129 24.379 31.8289 24.3423 31.8132 24.3214C31.7974 24.2952 31.7502 24.2742 31.703 24.2742C31.5665 24.2742 31.2148 24.096 31.2358 24.0383C31.241 24.0069 31.4353 23.9702 31.6662 23.9545C32.3644 23.9021 32.7108 23.7553 32.5376 23.5823C32.4746 23.5194 32.1649 23.3937 31.9549 23.3465C31.8867 23.3308 31.6557 23.2259 31.4405 23.1159C31.2305 23.0006 31.0468 22.9115 31.0363 22.9115C31.0311 22.9115 30.9838 22.9534 30.9366 23.0058Z" fill="#000080"/>
<path d="M4.418 23.6295C4.01907 23.8339 3.82485 23.9178 3.56764 24.0121C3.37868 24.0803 3.33143 24.2637 3.46791 24.3738C3.52565 24.4209 3.62539 24.3842 3.94033 24.1956C4.31302 23.9754 4.49674 23.9125 4.49674 23.9964C4.49674 24.0121 4.33402 24.248 4.1293 24.5153C3.92983 24.7878 3.76186 25.0394 3.76186 25.0866C3.76186 25.1285 3.81435 25.1914 3.88259 25.2229C3.97708 25.2648 4.08731 25.2281 4.51774 25.008C4.80119 24.8664 5.06365 24.7459 5.10039 24.7459C5.13713 24.7459 5.22112 24.704 5.28411 24.6516C5.37859 24.5782 5.39959 24.5205 5.3681 24.4157C5.3261 24.2375 5.28936 24.2375 5.00591 24.4314C4.87468 24.5153 4.7487 24.5887 4.7172 24.5887C4.69096 24.5887 4.63847 24.6253 4.60172 24.6673C4.53873 24.7459 4.28677 24.7773 4.28677 24.7092C4.28677 24.6725 4.54398 24.3214 4.63322 24.248C4.66471 24.2165 4.74345 24.1065 4.80644 23.9964C4.87468 23.8916 4.94817 23.8025 4.97441 23.8025C5.06365 23.8025 5.02165 23.5456 4.92192 23.488C4.79594 23.4251 4.85893 23.4094 4.418 23.6295Z" fill="#000080"/>
<path d="M5.12664 24.9608C4.96916 25.0709 4.66471 25.2491 4.46 25.3592C4.25003 25.4693 4.07681 25.5846 4.07681 25.6212C4.07681 25.7051 4.38651 26.1559 4.52299 26.2764C4.69621 26.4284 4.92717 26.4441 5.15813 26.3236C5.26836 26.2659 5.42059 26.1926 5.49408 26.1611C5.65155 26.0982 5.91401 25.7208 5.91401 25.5584C5.91401 25.4273 5.63055 24.8508 5.53607 24.7931C5.44683 24.7355 5.45733 24.7302 5.12664 24.9608ZM5.53607 25.2963C5.6358 25.5112 5.60956 25.637 5.43109 25.8047C5.26836 25.9515 4.96916 26.1087 4.83794 26.1087C4.80119 26.1087 4.69621 26.0301 4.60697 25.941L4.439 25.768L4.57023 25.6632C4.64372 25.6055 4.79069 25.5112 4.90093 25.4535C5.01116 25.4011 5.15813 25.312 5.22637 25.2596C5.39434 25.1338 5.46783 25.139 5.53607 25.2963Z" fill="#000080"/>
<path d="M29.7555 25.3855C29.6505 25.4903 29.682 25.6109 29.85 25.7314C29.934 25.7943 30.0232 25.8467 30.0495 25.8467C30.0757 25.8467 30.1965 25.9149 30.3119 26.004C30.4327 26.0878 30.5481 26.1612 30.5639 26.1612C30.5796 26.1612 30.6846 26.2294 30.7949 26.3185C31.0258 26.5019 31.136 26.5176 31.2148 26.3761C31.2935 26.2241 31.2778 26.1717 31.157 26.135C31.0521 26.0983 30.1702 25.5742 29.9235 25.4012C29.8448 25.3383 29.8028 25.3383 29.7555 25.3855Z" fill="#000080"/>
<path d="M5.99274 26.0824C5.82477 26.2449 5.21587 26.6485 5.0059 26.7428C4.89042 26.7952 4.86418 26.8372 4.87467 26.942C4.90092 27.1726 5.07414 27.1412 5.49932 26.8214C5.71454 26.6642 5.99799 26.4808 6.13447 26.4126C6.39167 26.2868 6.45466 26.1453 6.32343 26.0143C6.22895 25.9199 6.15546 25.9357 5.99274 26.0824Z" fill="#000080"/>
<path d="M29.2516 26.1612C29.0679 26.3656 29.0521 26.4023 29.0784 26.6172C29.1099 26.9054 29.3566 27.1832 29.7765 27.3929C30.1335 27.5711 30.3487 27.5449 30.5744 27.2881C30.7791 27.0627 30.8264 26.8426 30.7214 26.6434C30.6216 26.4547 30.4852 26.3918 30.3854 26.4914C30.3224 26.5595 30.3224 26.5962 30.4012 26.7587C30.4904 26.9474 30.4904 26.9526 30.3749 27.0784C30.3067 27.1518 30.207 27.2094 30.1545 27.2094C30.0705 27.2094 29.8238 27.0837 29.745 26.9998C29.7293 26.9841 29.6715 26.9474 29.6138 26.9159C29.5561 26.8845 29.4773 26.7901 29.4353 26.7115C29.3723 26.5805 29.3723 26.5438 29.4406 26.4285C29.5036 26.3184 29.5508 26.2922 29.703 26.3027C29.8343 26.3132 29.9183 26.2817 29.9865 26.2084C30.1125 26.0668 30.0285 25.9935 29.7083 25.9673C29.4616 25.941 29.4458 25.9463 29.2516 26.1612Z" fill="#000080"/>
<path d="M6.51765 26.7745C6.45991 26.7902 6.36543 26.8374 6.30769 26.874C6.24995 26.916 6.15546 26.9474 6.09247 26.9474C6.02948 26.9474 5.95075 26.9841 5.914 27.026C5.87726 27.068 5.81427 27.1047 5.77227 27.1047C5.72503 27.1047 5.57806 27.1466 5.43108 27.1938C5.23161 27.2671 5.17912 27.3091 5.18962 27.3877C5.21587 27.5397 5.36809 27.6131 5.49407 27.5344C5.65679 27.4349 5.73028 27.4558 5.87726 27.6655C6.00324 27.8437 6.00849 27.8699 5.94025 27.9695C5.76178 28.2053 5.78802 28.3731 6.00324 28.4045C6.08722 28.415 6.15021 28.3468 6.29719 28.0795C6.40217 27.8909 6.60689 27.5764 6.75386 27.372C6.98482 27.0522 7.01107 26.9946 6.96383 26.874C6.91134 26.7378 6.78536 26.7063 6.51765 26.7745ZM6.5439 27.1676C6.53865 27.2042 6.45991 27.33 6.35493 27.4453L6.17646 27.655L6.07148 27.5292C5.92975 27.3615 5.935 27.33 6.16596 27.2147C6.39167 27.0942 6.5439 27.0785 6.5439 27.1676Z" fill="#000080"/>
<path d="M28.6847 27.047C28.4538 27.1465 28.1756 27.4925 28.1756 27.6812C28.1703 27.8332 28.3015 28.0061 28.4695 28.0952C28.6165 28.1686 28.8107 28.1267 29.0994 27.9589C29.3776 27.7965 29.5561 27.8122 29.5771 28.0009C29.5981 28.1791 29.4248 28.3258 29.1886 28.3311C28.9787 28.3363 28.8684 28.4464 28.9209 28.5931C28.9629 28.698 29.3409 28.7085 29.4668 28.6089C29.976 28.2105 30.0652 27.8751 29.7188 27.634C29.5088 27.4925 29.2779 27.5082 28.9944 27.6864C28.6847 27.8698 28.4065 27.7755 28.5377 27.5239C28.5955 27.4191 28.7057 27.3667 28.8737 27.3667C29.1099 27.3667 29.1886 27.1623 28.9997 27.0417C28.8947 26.9736 28.8579 26.9736 28.6847 27.047Z" fill="#000080"/>
<path d="M7.15804 28.3467C6.69087 28.8027 6.54914 28.9757 6.57014 29.0491C6.64887 29.2902 6.7801 29.2168 7.3785 28.614C7.6987 28.2943 7.96115 28.0008 7.96115 27.9694C7.96115 27.9327 7.91916 27.8698 7.86667 27.8226C7.78268 27.744 7.73544 27.7807 7.15804 28.3467Z" fill="#000080"/>
<path d="M8.00315 28.3205C7.88767 28.4935 7.60946 28.808 7.29451 29.1225C6.99006 29.4212 6.97432 29.4684 7.1003 29.5889C7.23677 29.7304 7.31551 29.6833 7.56222 29.3111C7.9664 28.7031 8.08713 28.6979 7.93491 29.2954C7.88767 29.4893 7.82468 29.7462 7.79318 29.8615C7.75644 30.0187 7.75644 30.1131 7.80368 30.1917C7.88242 30.3437 8.07138 30.3175 8.15537 30.1445C8.19211 30.0711 8.42308 29.7986 8.66979 29.5418C8.91124 29.2797 9.11596 29.0543 9.11596 29.0386C9.11596 29.0176 9.05822 28.9652 8.98998 28.9233C8.87975 28.8499 8.85875 28.8499 8.75377 28.9547C8.69603 29.0176 8.54906 29.1958 8.43357 29.3426C8.22886 29.6099 8.0084 29.7304 8.09238 29.526C8.11338 29.4789 8.15012 29.3269 8.17637 29.1906C8.19736 29.0543 8.23936 28.9023 8.2656 28.8499C8.38108 28.6245 8.38108 28.4201 8.2656 28.3101C8.12388 28.179 8.09763 28.179 8.00315 28.3205Z" fill="#000080"/>
<path d="M27.0312 28.6245C26.8055 28.7136 26.8843 28.8761 27.4249 29.4317C27.7031 29.7252 27.9761 29.9663 28.0286 29.9767C28.0863 29.9872 28.2333 29.8929 28.4065 29.7304C28.564 29.5836 28.7162 29.4631 28.7425 29.4631C28.8212 29.4631 28.8159 29.2901 28.7372 29.2115C28.6322 29.1067 28.5535 29.1381 28.3015 29.395L28.0601 29.6465L27.8921 29.4579C27.7136 29.2534 27.3934 28.8813 27.2412 28.6926C27.1677 28.6035 27.1205 28.5878 27.0312 28.6245Z" fill="#000080"/>
<path d="M26.2544 29.2693C26.1336 29.3688 26.1179 29.4055 26.1651 29.4946C26.2911 29.7095 26.4381 30.1131 26.4381 30.2179C26.4381 30.2808 26.4643 30.3595 26.4958 30.3909C26.5273 30.4224 26.5746 30.5481 26.6008 30.6739C26.6848 31.0408 26.837 31.1457 26.9578 30.915C27.0102 30.8207 27.005 30.7683 26.942 30.6425C26.8633 30.4905 26.8685 30.4852 27.005 30.3699C27.2255 30.1865 27.3252 30.176 27.4984 30.3018C27.6454 30.4119 27.6559 30.4119 27.7556 30.3228C27.8081 30.2756 27.8554 30.2179 27.8554 30.197C27.8554 30.176 27.7189 30.0712 27.5562 29.9611C27.3882 29.851 27.1205 29.6624 26.963 29.5418C26.4118 29.1225 26.4171 29.1277 26.2544 29.2693ZM27.068 30.0188C27.068 30.0502 27.005 30.1079 26.9315 30.1498C26.8108 30.2127 26.7898 30.2127 26.7215 30.1184C26.6218 29.9821 26.5746 29.7986 26.6166 29.6938C26.6428 29.6309 26.6848 29.6466 26.858 29.7882C26.9735 29.8825 27.068 29.9873 27.068 30.0188Z" fill="#000080"/>
<path d="M9.01623 29.4893C8.927 29.5942 8.85351 29.7147 8.85351 29.7567C8.85351 29.7986 8.9375 29.9663 9.04248 30.1288C9.26294 30.4747 9.26819 30.6844 9.06347 30.7106C8.885 30.7315 8.70653 30.5376 8.68554 30.3017C8.67504 30.1602 8.64879 30.1183 8.56481 30.1183C8.50707 30.1183 8.43358 30.176 8.39684 30.2441C8.26036 30.5219 8.71178 31.0408 9.09497 31.0513C9.24719 31.0565 9.31543 31.025 9.43616 30.8888C9.64088 30.6582 9.63038 30.5114 9.37317 30.134C9.13171 29.7829 9.13696 29.6466 9.39942 29.6466C9.55164 29.6466 9.66188 29.7881 9.71962 30.0502C9.75111 30.2074 9.88759 30.2493 9.93483 30.1183C9.96108 30.0554 9.99782 30.0606 10.171 30.1445C10.3863 30.2598 10.4335 30.3961 10.297 30.5114C10.255 30.5481 10.2183 30.5953 10.2183 30.6162C10.2183 30.6634 9.91383 31.1456 9.77211 31.3238C9.66188 31.4601 9.67237 31.5387 9.80885 31.633C9.97157 31.7483 10.0031 31.7379 10.0923 31.5439C10.1343 31.4548 10.2393 31.2557 10.3285 31.1141C10.4125 30.9674 10.5122 30.7944 10.549 30.7211C10.6592 30.4904 10.7379 30.4642 10.9742 30.5848C11.0949 30.6477 11.1946 30.7001 11.2051 30.7053C11.2314 30.7158 10.6907 31.7274 10.6067 31.827C10.5647 31.8689 10.5332 31.9318 10.5332 31.9632C10.5332 32.0523 10.7327 32.2043 10.8167 32.1729C10.8587 32.1572 11.0371 31.8479 11.2104 31.4863C11.3888 31.1246 11.5516 30.8259 11.5778 30.8259C11.6041 30.8259 11.6355 30.873 11.6513 30.9255C11.6618 30.9831 11.73 31.0355 11.7983 31.046C12.0397 31.0775 11.961 31.3867 11.5043 32.241C11.3468 32.5398 11.6933 32.6865 11.8613 32.393C11.9085 32.3039 11.9505 32.1939 11.9505 32.1467C11.9505 32.1048 11.982 32.0261 12.0187 31.9842C12.0555 31.937 12.1342 31.7641 12.1867 31.5963C12.2444 31.4339 12.3022 31.2976 12.3179 31.2976C12.3337 31.2976 12.4334 31.3238 12.5489 31.3552C12.7379 31.4077 12.7484 31.4181 12.7221 31.5754C12.7064 31.6697 12.6434 31.8846 12.5856 32.0523C12.4177 32.5293 12.4334 32.6708 12.6959 32.891C12.8848 33.0534 12.9531 33.0796 13.1788 33.0796C13.5567 33.0796 13.6985 32.9276 13.8769 32.3354C14.0239 31.8375 14.0606 31.806 14.3493 31.9528L14.5121 32.0314L14.4071 32.414C14.3493 32.6184 14.2654 32.9172 14.2181 33.0692C14.1341 33.3679 14.1656 33.4465 14.3651 33.4465C14.5278 33.4465 14.5856 33.3469 14.6328 32.9696C14.659 32.7547 14.7115 32.4769 14.7535 32.3459L14.8218 32.11H15.0947C15.3624 32.11 15.3677 32.1152 15.3362 32.241C15.3204 32.3144 15.2784 32.5503 15.2522 32.7652C15.2259 32.9801 15.1787 33.2264 15.142 33.3103C15.0895 33.4413 15.0947 33.4727 15.1787 33.5304C15.2312 33.5723 15.3309 33.6038 15.3939 33.6038C15.4622 33.6038 15.6511 33.6405 15.8191 33.6824C16.197 33.782 16.3178 33.7505 16.2968 33.5618C16.281 33.4308 16.26 33.4203 15.9451 33.3836C15.7614 33.3627 15.5881 33.326 15.5619 33.2998C15.5356 33.2736 15.5199 33.1687 15.5304 33.0744C15.5461 32.9014 15.5514 32.8962 15.7561 32.9172C16.1708 32.9591 16.2233 32.9538 16.2443 32.8543C16.2758 32.6918 16.155 32.6079 15.8821 32.6079C15.6039 32.6079 15.5514 32.566 15.6039 32.3773C15.6459 32.1991 15.7561 32.1729 16.0658 32.2672C16.3965 32.3668 16.5277 32.3301 16.5067 32.1467C16.491 32.0261 16.4595 31.9999 16.281 31.9685C15.9398 31.9108 15.4254 31.9213 15.3834 31.9894C15.3572 32.0314 15.3309 32.0157 15.3047 31.9423C15.2732 31.8584 15.1997 31.827 14.9477 31.8008C14.7745 31.7798 14.6171 31.7431 14.6013 31.7169C14.5803 31.6855 14.5278 31.6645 14.4753 31.6645C14.4228 31.6645 14.2549 31.6278 14.1079 31.5806C13.8192 31.4863 13.6827 31.5282 13.6827 31.7221C13.6827 31.8532 13.4307 32.6079 13.3625 32.697C13.331 32.7337 13.226 32.7652 13.1315 32.7652C12.9058 32.7652 12.7484 32.5555 12.8376 32.3616C12.8691 32.2934 12.8953 32.1991 12.8953 32.1572C12.8953 32.0786 13.0528 31.6802 13.163 31.4915C13.226 31.3762 13.0948 31.1928 12.9478 31.1928C12.8533 31.1928 12.003 30.8416 11.9295 30.7682C11.898 30.742 11.8298 30.7211 11.7773 30.7211C11.7195 30.7211 11.646 30.6844 11.6146 30.6424C11.5831 30.6005 11.4991 30.5586 11.4308 30.5533C11.3626 30.5428 11.2419 30.48 11.1684 30.4118C11.0949 30.3489 10.9374 30.2441 10.8219 30.1864C10.7065 30.1235 10.5542 30.0344 10.4807 29.9768C10.3968 29.9086 10.2918 29.8824 10.171 29.8929C10.0136 29.9034 9.98207 29.8877 9.95058 29.7671C9.90858 29.6099 9.84559 29.5365 9.63038 29.395C9.39942 29.2482 9.2052 29.2797 9.01623 29.4893Z" fill="#000080"/>
<path d="M25.2885 29.9191C25.1783 29.9611 24.9631 30.2022 24.9106 30.3385C24.8581 30.48 24.9368 30.7682 25.0733 30.9464C25.131 31.0198 25.1783 31.0984 25.1783 31.1246C25.1783 31.1456 25.2465 31.2452 25.3305 31.3448C25.4512 31.4915 25.5195 31.523 25.7399 31.544C25.9867 31.5702 26.0287 31.5544 26.2281 31.3972C26.4328 31.2295 26.4433 31.2137 26.4276 30.9569C26.4118 30.7158 26.4013 30.6949 26.2701 30.6791C26.1179 30.6634 26.1074 30.6791 26.1231 30.9622C26.1284 31.0827 26.0969 31.1456 25.9919 31.2137C25.8607 31.2976 25.8449 31.2976 25.6927 31.2085C25.509 31.1037 25.1573 30.5167 25.2045 30.3961C25.2203 30.3542 25.2938 30.286 25.362 30.2493C25.4722 30.1917 25.53 30.1917 25.7032 30.2493C25.8607 30.3018 25.9342 30.3018 25.9762 30.2598C26.0601 30.176 25.9814 29.9506 25.8502 29.9139C25.7032 29.8772 25.3883 29.8772 25.2885 29.9191Z" fill="#000080"/>
<path d="M24.2964 30.4694C24.2072 30.5585 24.2177 30.6738 24.3384 30.7996C24.4592 30.9254 24.9158 31.8007 24.9158 31.9003C24.9158 31.9894 25.0943 32.047 25.2308 32.0051C25.3725 31.9632 25.3673 31.9265 25.1573 31.612C25.0628 31.4652 24.8791 31.135 24.7531 30.8782C24.5222 30.4117 24.4329 30.3331 24.2964 30.4694Z" fill="#000080"/>
<path d="M23.3516 30.9464C23.1994 31.0145 23.0472 31.0984 23.0157 31.1298C22.9789 31.1665 22.9159 31.1927 22.8739 31.1927C22.748 31.1927 22.0078 31.46 21.9291 31.5334C21.8713 31.5911 21.8713 31.6225 21.9448 31.7535C22.0498 31.9422 22.3438 32.8385 22.3438 32.9748C22.3438 33.0586 22.3805 33.0796 22.5222 33.0796C22.6167 33.0796 22.7689 33.0429 22.8477 33.001C22.9317 32.959 23.0419 32.9224 23.0944 32.9224C23.3096 32.9224 23.5353 32.6603 23.4146 32.545C23.3726 32.503 23.0314 32.5921 22.8529 32.6917C22.6692 32.7966 22.5747 32.7284 22.5222 32.4716C22.4907 32.3144 22.5012 32.3091 22.7847 32.22C23.0104 32.1466 23.0786 32.1047 23.0786 32.0261C23.0786 31.8688 22.9527 31.8531 22.6797 31.9737C22.4173 32.0942 22.4015 32.089 22.3018 31.8584C22.244 31.7168 22.2493 31.7064 22.412 31.6382C22.5065 31.6015 22.6535 31.5491 22.7427 31.5282C22.8267 31.5072 22.9369 31.46 22.9842 31.4129C23.0681 31.3447 23.0786 31.3447 23.1049 31.4338C23.1416 31.5439 23.2046 31.6906 23.4408 32.2043C23.5301 32.3982 23.6036 32.5817 23.6036 32.6079C23.6036 32.7441 24.076 32.5659 24.3489 32.3353C24.6376 32.089 24.6376 31.7955 24.3384 31.2713C24.0917 30.8416 23.8083 30.7472 23.3516 30.9464ZM23.9028 31.2189C24.0497 31.3238 24.2335 31.7064 24.2335 31.9108C24.2335 32.1781 23.8555 32.4192 23.7768 32.199C23.761 32.1519 23.6823 31.9684 23.6036 31.7955C23.3726 31.2923 23.3673 31.2504 23.5091 31.198C23.6823 31.1246 23.7768 31.1298 23.9028 31.2189Z" fill="#000080"/>
<path d="M21.4777 31.6225C21.2729 31.7326 21.2415 31.8269 21.2415 32.3511C21.2415 32.6341 21.2205 32.8752 21.1942 32.8909C21.147 32.9224 21.0367 32.7756 20.8688 32.4769C20.5118 31.8269 20.5328 31.8479 20.3491 31.8584C20.0342 31.8741 20.0342 31.9108 20.3543 33.1373C20.3806 33.2421 20.4016 33.3784 20.4016 33.436C20.4016 33.5775 20.4803 33.6195 20.6483 33.5775C20.7638 33.5513 20.7743 33.5251 20.7533 33.3784C20.727 33.2054 20.6588 32.9853 20.5223 32.6655C20.4226 32.4297 20.5118 32.3406 20.6431 32.5398C20.769 32.7284 20.8373 32.849 20.979 33.1163C21.1102 33.3784 21.21 33.4675 21.3202 33.4255C21.3832 33.4046 21.3989 33.2997 21.3989 32.9381C21.3989 32.3825 21.4357 32.2305 21.5511 32.2515C21.6404 32.2724 21.7034 32.5502 21.7086 32.9853C21.7139 33.2473 21.8084 33.3312 22.0288 33.2631C22.16 33.2211 22.16 33.2316 22.0026 32.7966C21.9291 32.5974 21.8713 32.3878 21.8713 32.3249C21.8713 32.1571 21.6929 31.5963 21.6351 31.5806C21.6036 31.5701 21.5354 31.5911 21.4777 31.6225Z" fill="#000080"/>
<path d="M18.7009 32.0522C18.5592 32.0889 18.4332 32.1413 18.4174 32.178C18.4069 32.2095 18.4384 32.3562 18.4857 32.503C18.5434 32.6759 18.5697 32.9118 18.5644 33.2001C18.5487 33.7819 18.5434 33.7609 18.7219 33.7609C18.9213 33.7609 18.9581 33.677 18.8794 33.394C18.7954 33.09 18.8584 33.0271 19.2205 33.0638C19.4935 33.09 19.504 33.09 19.5407 32.9537C19.5565 32.8751 19.5565 32.7965 19.5355 32.7755C19.5145 32.7546 19.3413 32.7388 19.1523 32.7388H18.8006L18.7849 32.5449C18.7639 32.3195 18.8216 32.2881 19.2573 32.309C19.5985 32.3195 19.6405 32.2986 19.5932 32.1099C19.5617 31.9893 19.5407 31.9788 19.2573 31.9841C19.0946 31.9893 18.8426 32.0208 18.7009 32.0522Z" fill="#000080"/>
<path d="M17.1786 32.2619C17.0369 32.4086 16.9897 32.5082 16.9634 32.7388C16.8952 33.2735 17.0264 33.5932 17.3991 33.7714C17.4988 33.8238 17.6091 33.8657 17.6353 33.8657C17.7613 33.8657 18.0762 33.6875 18.1655 33.567C18.2862 33.3992 18.3387 32.8279 18.2547 32.5292C18.155 32.1728 18.0815 32.1151 17.6983 32.0942C17.3623 32.0732 17.3518 32.0732 17.1786 32.2619ZM17.8033 32.3772C17.9083 32.4191 18.0395 32.7284 18.0395 32.9485C18.0395 33.2997 17.777 33.6089 17.5723 33.4988C17.3518 33.3835 17.3046 33.2892 17.3046 32.9537C17.3046 32.4768 17.4936 32.2619 17.8033 32.3772Z" fill="#000080"/>
<path d="M18.3743 7.45193C18.3026 7.50191 18.1133 7.52189 17.6887 7.52189C17.2538 7.52189 17.0491 7.54188 16.911 7.60185C16.8035 7.64682 16.6552 7.6818 16.5733 7.6818C16.4914 7.6818 16.3942 7.71678 16.3584 7.75676C16.3226 7.79673 16.2663 7.83171 16.2305 7.83171C16.1947 7.83171 16.1384 7.86669 16.1026 7.90667C16.0668 7.94665 15.9951 7.98162 15.9389 7.98162C15.7854 7.98162 15.5244 8.12654 15.3812 8.29644L15.243 8.45135L15.0793 8.31643C14.8133 8.09656 14.7416 8.13154 14.6035 8.57628C14.4858 8.93107 14.4807 10.0054 14.5933 10.2653C14.6342 10.3602 14.67 10.4752 14.67 10.5101C14.67 10.5501 14.7416 10.73 14.8286 10.9099C15.0077 11.2747 14.9872 11.3297 14.7007 11.3047C14.6137 11.2997 14.4653 11.2897 14.3733 11.2847C14.1584 11.2797 14.1788 11.1748 14.4091 11.1198C14.496 11.0948 14.5574 11.0548 14.5421 11.0298C14.496 10.9549 14.2709 10.9699 14.1328 11.0598C13.9844 11.1548 13.8002 11.1398 13.2118 10.9799C12.9867 10.9199 12.6746 10.8549 12.5211 10.83C12.3676 10.805 12.1579 10.765 12.0606 10.735C11.9634 10.705 11.7383 10.68 11.5644 10.68C10.9811 10.68 10.5564 10.9299 10.2955 11.4146C10.2443 11.5196 10.1727 11.6345 10.1471 11.6745C10.0857 11.7544 9.99363 11.9843 9.85549 12.429C9.70712 12.8888 9.70712 13.6683 9.85037 14.183C9.94247 14.5278 9.97828 14.6177 10.1215 14.8776C10.1471 14.9176 10.2188 15.0525 10.2801 15.1724C10.4029 15.4023 11.1602 16.2268 11.2523 16.2268C11.283 16.2268 11.3904 16.2918 11.4927 16.3667C11.5951 16.4417 11.769 16.5466 11.8816 16.5966C11.9941 16.6516 12.1425 16.7165 12.2141 16.7515C12.383 16.8315 12.6797 16.9014 13.3909 17.0263C13.7132 17.0863 14.1174 17.1663 14.2863 17.2062C14.4551 17.2462 14.8081 17.3162 15.0691 17.3661C15.33 17.4161 15.5449 17.4761 15.55 17.5061C15.5551 17.531 15.3965 17.671 15.2021 17.8159C14.8133 18.1057 14.3016 18.6104 14.1891 18.8203C13.8923 19.355 13.8105 19.7897 13.8974 20.3844C14.0407 21.3788 14.6854 22.0484 15.9644 22.5181C16.0821 22.5631 16.0975 22.5881 16.0565 22.663C16.031 22.713 15.9235 22.813 15.8212 22.8779C15.5807 23.0328 15.3249 23.4226 15.2123 23.7974C15.1254 24.0872 15.1254 24.1122 15.2226 24.507C15.4528 25.4214 15.9644 26.0511 16.8598 26.4908C17.1668 26.6407 17.2282 26.7756 17.0901 26.9655C17.0338 27.0355 16.9263 27.2304 16.8445 27.3903C16.7114 27.6551 16.6961 27.7351 16.7012 28.1648C16.7063 28.7995 16.8598 29.1593 17.1105 29.1093C17.1873 29.0943 17.2077 29.0243 17.2333 28.6695C17.2589 28.3447 17.2998 28.1798 17.4073 27.9749C17.5659 27.6651 17.7654 27.4503 17.8422 27.4952C17.8729 27.5152 17.8933 27.84 17.8933 28.2998C17.8933 28.9694 17.9087 29.1043 17.9956 29.2992C18.0519 29.4191 18.1338 29.519 18.1798 29.519C18.2208 29.519 18.3691 29.4241 18.5073 29.3142L18.7631 29.1043L18.7733 28.3297C18.7836 27.8 18.8092 27.5452 18.845 27.5352C18.8808 27.5252 18.9933 27.6551 19.0957 27.82L19.2901 28.1299L19.2645 28.5946C19.2338 29.1093 19.2594 29.1942 19.418 29.1443C19.5715 29.0993 19.7199 28.8794 19.7506 28.6446C19.7659 28.5346 19.7966 28.3697 19.8171 28.2748C19.8836 27.955 19.6636 27.2704 19.3873 26.9455L19.2645 26.8006L19.4589 26.6307C19.5715 26.5358 19.7761 26.3709 19.9143 26.2609C20.3748 25.9012 20.7534 25.5164 20.9478 25.2066C21.132 24.9117 21.132 24.8967 21.132 24.402C21.1269 23.8673 21.0859 23.7274 20.7943 23.2877C20.7176 23.1678 20.6562 23.0628 20.6562 23.0528C20.6562 23.0378 20.5897 22.9529 20.5027 22.8629C20.4208 22.773 20.3492 22.668 20.3492 22.6231C20.3492 22.5781 20.4924 22.4732 20.6715 22.3732C21.3366 22.0184 21.6487 21.7586 21.9813 21.2988C22.4827 20.5943 22.4725 19.4749 21.9455 18.7253C21.7767 18.4805 21.6385 18.3606 21.0194 17.8858C20.6306 17.591 20.5283 17.4811 20.5794 17.4311C20.6306 17.3861 21.2804 17.2062 21.705 17.1263C22.6413 16.9464 23.2092 16.8115 23.3525 16.7365C23.4139 16.7015 23.5009 16.6765 23.5469 16.6765C23.6186 16.6765 23.9051 16.5466 24.4935 16.2468C24.9283 16.0219 25.5628 15.3473 25.8442 14.7976C26.1665 14.168 26.1972 14.0231 26.1972 13.2485C26.1972 12.484 26.1512 12.2841 25.8237 11.6145C25.5986 11.1498 25.3632 10.9099 24.9335 10.705C24.4167 10.4652 24.2325 10.4702 23.1888 10.755C22.6669 10.8999 22.3548 10.9149 21.6334 10.8499C21.3264 10.825 21.2599 10.83 21.2804 10.8849C21.2957 10.9299 21.4083 10.9649 21.5822 10.9799C21.8227 10.9999 21.8585 11.0198 21.8739 11.1198C21.8943 11.2597 21.8687 11.2697 21.2292 11.2947C20.7994 11.3097 20.692 11.2997 20.6715 11.2447C20.6562 11.2047 20.7124 11.0198 20.7994 10.84C20.8864 10.6551 20.9938 10.3902 21.0348 10.2553C21.1473 9.89051 21.2855 8.91608 21.2548 8.75117C21.2087 8.52631 21.0911 8.14153 21.0552 8.10655C21.0399 8.09156 20.9273 8.11155 20.8045 8.15652L20.5794 8.23148L20.4106 8.04659C20.2469 7.86669 20.1906 7.84171 19.5817 7.6818C19.4845 7.65681 19.3157 7.63183 19.2031 7.63183C19.0701 7.63183 18.9575 7.59185 18.8552 7.5069C18.6864 7.36699 18.5278 7.347 18.3743 7.45193ZM18.0315 7.81672C18.0468 7.86669 18.1747 8.09156 18.318 8.32143C18.6454 8.85612 18.8245 9.34083 18.804 9.63066C18.7887 9.82555 18.7733 9.85553 18.6864 9.83554C18.4408 9.79557 18.2924 9.82555 18.1236 9.95048C17.9752 10.0604 17.9087 10.0804 17.8012 10.0504C17.7245 10.0304 17.5812 10.0154 17.4789 10.0254C17.3152 10.0354 17.2742 10.0104 17.1259 9.82555C16.9826 9.65065 16.9519 9.57569 16.957 9.37081C16.957 9.2209 16.9928 9.09098 17.044 9.03601C17.0901 8.98604 17.1259 8.90609 17.1259 8.85112C17.1259 8.80115 17.1975 8.65623 17.2794 8.5313C17.3612 8.40638 17.4328 8.28145 17.4328 8.25646C17.4328 8.22648 17.4738 8.16652 17.5249 8.12154C17.571 8.08157 17.6784 7.97163 17.7552 7.88668C17.924 7.71178 17.9854 7.69679 18.0315 7.81672ZM16.7012 8.11655C16.8496 8.21649 16.9724 8.32642 16.9724 8.3614C16.9724 8.49632 16.6091 9.12596 16.4607 9.25088C16.2868 9.3908 16.2612 9.3958 16.1333 9.35083C16.031 9.31085 16.0258 9.10597 16.1231 8.82113C16.164 8.7012 16.21 8.5363 16.2254 8.45635C16.3021 8.12154 16.3635 7.93165 16.3942 7.93165C16.4147 7.93165 16.5477 8.01161 16.7012 8.11655ZM19.551 8.27645C19.7096 8.56628 19.7966 9.07099 19.7506 9.42078C19.7199 9.65565 19.4385 10.0104 19.3157 9.97046C19.244 9.94548 19.111 9.63566 18.9831 9.18093C18.8552 8.74618 18.8501 8.59127 18.9319 8.41637C19.0394 8.2015 19.2594 7.96663 19.3413 7.99162C19.372 8.00661 19.4692 8.13154 19.551 8.27645ZM20.2571 8.38639C20.4669 8.80115 20.6613 9.46076 20.6459 9.69562L20.6306 9.9055H20.3748H20.1189L20.0371 9.09098C19.991 8.64624 19.9399 8.26146 19.9194 8.24647C19.8734 8.2015 19.9962 8.07657 20.0627 8.09656C20.0934 8.10655 20.1803 8.23648 20.2571 8.38639ZM15.8365 8.34142C15.9337 8.43636 15.9082 8.61625 15.7496 9.02601C15.6677 9.23589 15.5858 9.46576 15.5705 9.54071C15.5091 9.80056 15.284 9.67564 15.284 9.38081C15.284 9.2159 15.4016 8.79615 15.5449 8.44136C15.6165 8.27645 15.7291 8.23648 15.8365 8.34142ZM20.9529 8.73119C20.9734 9.08598 20.8966 9.15094 20.7636 8.89109C20.6357 8.64624 20.6306 8.61126 20.738 8.50632C20.8711 8.37639 20.9376 8.44635 20.9529 8.73119ZM15.0435 8.55129C15.0895 8.58627 15.1305 8.68122 15.1305 8.77116C15.1305 8.94606 14.9821 9.2309 14.89 9.2309C14.844 9.2309 14.8235 9.12096 14.8235 8.85612C14.8235 8.46634 14.8593 8.41637 15.0435 8.55129ZM22.5288 11.6295C23.506 12.1092 23.6851 12.5739 23.1837 13.3185C23.0609 13.5034 22.9585 13.7133 22.9585 13.7832C22.9585 13.8582 22.9227 13.9431 22.8818 13.9781C22.8409 14.0131 22.805 14.0731 22.805 14.113C22.805 14.218 22.3855 14.7327 22.1757 14.8926C22.0785 14.9625 21.9097 15.0675 21.8022 15.1275C21.6948 15.1874 21.5669 15.2524 21.526 15.2724C21.1883 15.4523 20.4873 15.7221 20.2213 15.7821C20.1087 15.8021 19.8427 15.872 19.6329 15.932C19.4231 15.9869 19.1571 16.0569 19.0445 16.0819C18.9319 16.1019 18.7785 16.1369 18.7017 16.1568L18.5585 16.1868V15.1374C18.5585 14.4179 18.5789 14.0381 18.6198 13.9431C18.7529 13.6533 20.3441 11.6895 20.5231 11.5945C20.6613 11.5246 21.2701 11.4446 21.7613 11.4346C22.0939 11.4296 22.1655 11.4496 22.5288 11.6295ZM15.1202 11.5645C15.4477 11.7194 17.2026 13.5534 17.3203 13.8682C17.3612 13.9781 17.4073 14.4528 17.4328 15.0025C17.4584 15.5222 17.4942 16.0019 17.5147 16.0619C17.5608 16.2168 17.4277 16.2618 17.1873 16.1618C17.0849 16.1219 16.8393 16.0419 16.6398 15.9869C16.297 15.887 16.164 15.847 15.7854 15.7221C15.6933 15.6921 15.5296 15.6471 15.4221 15.6222C15.3147 15.5972 15.1919 15.5572 15.1407 15.5322C15.0947 15.5072 14.89 15.4273 14.6905 15.3573C14.2453 15.1924 13.6058 14.7926 13.4216 14.5528C13.3449 14.4578 13.2016 14.218 13.1044 14.0231C13.0021 13.8282 12.8332 13.5384 12.7207 13.3785C12.5416 13.1186 12.5211 13.0587 12.5211 12.7788C12.5211 12.399 12.6081 12.2391 12.9253 12.0492C13.0532 11.9693 13.263 11.8244 13.3909 11.7244C13.5188 11.6245 13.657 11.5345 13.6979 11.5146C13.7388 11.4996 14.0356 11.4846 14.3528 11.4846C14.803 11.4796 14.977 11.4996 15.1202 11.5645ZM24.4832 12.8588C24.4883 12.9387 24.519 13.0886 24.5548 13.1886C24.6162 13.3935 24.5446 13.5434 24.4014 13.5184C24.34 13.5084 24.3246 13.4234 24.3297 13.1036C24.3348 12.8838 24.3348 12.6939 24.34 12.6889C24.34 12.6789 24.3707 12.6789 24.4065 12.6889C24.4372 12.7039 24.473 12.7788 24.4832 12.8588ZM11.7588 13.2685C11.7792 13.4234 11.8099 13.6383 11.8304 13.7383C11.8713 13.9581 11.7844 13.9981 11.6309 13.8332C11.5541 13.7533 11.549 13.6783 11.5797 13.3685C11.6309 12.8188 11.6974 12.7788 11.7588 13.2685ZM25.5679 13.5534C25.5679 13.8382 25.5525 13.9282 25.4963 13.9282C25.4042 13.9282 25.353 13.7183 25.3888 13.4884C25.4349 13.2286 25.4553 13.1786 25.5167 13.1786C25.5474 13.1786 25.5679 13.3285 25.5679 13.5534ZM17.5863 19.4249C17.5863 19.9346 17.6119 20.5643 17.6375 20.8241C17.6989 21.4288 17.6989 21.4737 17.6375 21.4737C17.6119 21.4737 17.4431 21.4088 17.2691 21.3338C17.0901 21.2539 16.8445 21.1489 16.7166 21.099C16.2868 20.9241 15.8212 20.6642 15.7086 20.5293C15.5654 20.3694 15.5398 19.9246 15.6677 19.8247C15.7086 19.7897 15.7444 19.7348 15.7444 19.7048C15.7444 19.5099 17.0849 18.4805 17.3408 18.4755C17.3868 18.4755 17.4431 18.4505 17.4635 18.4205C17.5505 18.2806 17.5812 18.5604 17.5863 19.4249ZM19.4334 18.8203C20.0882 19.1751 20.605 19.7148 20.605 20.0496C20.605 20.2295 20.3236 20.5793 19.8989 20.9291C19.6534 21.1289 18.9115 21.4737 18.7324 21.4737C18.671 21.4737 18.6608 21.2139 18.6608 20.0096C18.6608 19.2001 18.6761 18.5305 18.6915 18.5155C18.7222 18.4805 19.0752 18.6254 19.4334 18.8203ZM19.0343 23.4476C19.7966 23.8024 20.0729 24.472 19.6687 25.0067C19.5357 25.1866 18.9524 25.6713 18.8706 25.6713C18.804 25.6713 18.7785 25.5014 18.7119 24.6419C18.6454 23.7374 18.6454 23.3227 18.7171 23.3227C18.7426 23.3227 18.891 23.3776 19.0343 23.4476ZM17.6426 23.5076C17.6989 23.5675 17.7142 23.8274 17.7142 24.6919C17.7142 25.6713 17.704 25.7962 17.6324 25.7912C17.5198 25.7812 16.8138 25.2166 16.6347 24.9867C16.5068 24.8218 16.4863 24.7518 16.4863 24.487C16.4863 24.2171 16.5068 24.1572 16.6449 23.9873C16.8086 23.7874 17.3459 23.4326 17.4891 23.4276C17.5352 23.4226 17.6068 23.4576 17.6426 23.5076Z" fill="#000080"/>
<path d="M7.10288 16.6716C6.96985 16.7566 6.86752 18.5156 6.93915 19.475C6.99543 20.1346 7.02613 20.3595 7.14892 20.9491C7.27683 21.5388 7.53777 22.2734 7.87033 22.968C8.10569 23.4577 8.71454 24.4071 9.0164 24.7469C9.68153 25.5115 9.83502 25.6714 9.90154 25.6714C9.9527 25.6714 9.96293 25.6364 9.93735 25.5365C9.922 25.4615 9.88619 25.3866 9.86572 25.3716C9.84526 25.3566 9.73781 25.2316 9.62525 25.0967C9.51781 24.9568 9.37455 24.7869 9.30804 24.7169C8.84245 24.2022 7.76289 22.3883 7.76289 22.1235C7.76289 22.0785 7.74242 22.0235 7.71684 21.9985C7.67591 21.9536 7.58893 21.6787 7.40474 21.0241C7.27683 20.5544 7.2052 19.2052 7.25125 18.1258C7.27683 17.5611 7.30242 17.0064 7.30242 16.8965C7.30242 16.6866 7.22567 16.5967 7.10288 16.6716Z" fill="#000080"/>
<path d="M28.6735 16.6566C28.6531 16.6765 28.6377 17.4161 28.6326 18.2956C28.6326 19.1801 28.607 20.0246 28.5814 20.1745C28.5559 20.3244 28.5149 20.5843 28.4894 20.7492C28.4638 20.9141 28.4228 21.104 28.3921 21.1739C28.3614 21.2439 28.2898 21.4637 28.2284 21.6636C28.1619 21.8635 28.0903 22.0384 28.0698 22.0534C28.0442 22.0684 28.0238 22.1134 28.0238 22.1583C28.0238 22.2733 27.5531 23.1628 27.2972 23.5375C27.1796 23.7074 26.8163 24.1972 26.4888 24.6219C25.7674 25.5614 25.8084 25.5014 25.8442 25.6513C25.8902 25.8312 25.9977 25.7962 26.2023 25.5314C26.2995 25.4014 26.4786 25.1816 26.5912 25.0467C26.9084 24.6619 27.2256 24.2571 27.2819 24.1622C27.3126 24.1172 27.4507 23.8923 27.594 23.6625C27.8959 23.1877 28.3307 22.3382 28.3307 22.2233C28.3307 22.1833 28.3666 22.1034 28.4075 22.0534C28.4484 21.9984 28.4842 21.8935 28.4842 21.8235C28.4842 21.7536 28.5098 21.6686 28.5405 21.6386C28.5712 21.6087 28.6224 21.4837 28.648 21.3638C28.8117 20.6492 28.8475 20.2595 28.8731 18.9502C28.9089 17.1563 28.8475 16.4867 28.6735 16.6566Z" fill="#000080"/>
<path d="M27.3791 17.481C27.3586 17.511 27.3382 18.1157 27.333 18.8202C27.3228 20.0195 27.3126 20.1295 27.1898 20.5742C26.9647 21.3887 26.6219 22.1983 26.3251 22.623C26.2586 22.718 26.187 22.8329 26.1665 22.8729C26.1205 22.9728 26.0335 23.0978 25.5321 23.8273C25.2967 24.1621 25.1074 24.452 25.1074 24.4769C25.1074 24.5019 25.1484 24.5419 25.2046 24.5669C25.2814 24.6119 25.3325 24.5769 25.5116 24.372C25.6242 24.2371 25.7214 24.1072 25.7214 24.0822C25.7214 24.0572 25.7726 23.9972 25.8288 23.9423C26.1256 23.6824 27.1028 21.9784 27.1028 21.7186C27.1028 21.6786 27.1233 21.6236 27.1489 21.5986C27.2512 21.4787 27.5019 20.4593 27.6144 19.6847C27.6963 19.1051 27.6758 17.7409 27.5786 17.561C27.507 17.4161 27.4405 17.3911 27.3791 17.481Z" fill="#000080"/>
<path d="M8.26942 17.711C8.2336 17.8059 8.22337 18.2307 8.23872 19.0252C8.27965 20.7342 8.37686 21.104 9.11874 22.4482C9.22618 22.6381 9.37967 22.893 9.45642 23.0129C9.53828 23.1328 9.60479 23.2378 9.60479 23.2577C9.60479 23.2727 9.67642 23.3827 9.75828 23.5076C9.84526 23.6275 9.91177 23.7375 9.91177 23.7475C9.91177 23.7874 10.4439 24.547 10.495 24.582C10.5974 24.6519 10.6792 24.622 10.6792 24.527C10.6792 24.4321 10.5257 24.1922 10.0653 23.5726C9.95271 23.4227 9.8248 23.2228 9.78387 23.1328C9.73782 23.0479 9.68154 22.9729 9.65596 22.9729C9.62526 22.9729 9.60479 22.9479 9.60479 22.9229C9.60479 22.893 9.50246 22.6981 9.38479 22.4832C8.98059 21.7936 8.72989 21.064 8.6071 20.2395C8.50477 19.5449 8.43314 18.1807 8.48942 18.0608C8.515 18.0108 8.53035 17.8909 8.52012 17.7859C8.49965 17.5511 8.35128 17.5011 8.26942 17.711Z" fill="#000080"/>
<path d="M26.0949 18.3854C26.0642 18.4204 26.0284 18.5753 26.013 18.7252C25.8902 19.8296 25.8186 20.3443 25.7725 20.4242C25.747 20.4742 25.7214 20.5692 25.7214 20.6341C25.7214 20.869 25.4297 21.4986 25 22.1982C24.7032 22.6829 24.6725 22.7979 24.8516 22.7979C25.2251 22.7979 26.0795 20.9189 26.1819 19.8746C26.2023 19.6697 26.2484 19.2849 26.2842 19.0201C26.3302 18.6603 26.3302 18.5104 26.2893 18.4304C26.2228 18.3105 26.1665 18.3005 26.0949 18.3854Z" fill="#000080"/>
<path d="M9.59967 18.5853C9.58943 19.0601 9.62013 19.7796 9.65595 19.9245C9.68153 20.0195 9.75316 20.3243 9.81455 20.5992C9.87595 20.874 9.95781 21.1438 9.99874 21.1988C10.0346 21.2538 10.0653 21.3387 10.0653 21.3837C10.0653 21.4936 10.5206 22.3431 10.7457 22.658C10.9402 22.9278 11.0425 23.0028 11.1602 22.9578C11.2574 22.9178 11.2471 22.8978 10.8583 22.2982C10.6229 21.9434 10.4592 21.6336 10.3006 21.2238C10.2494 21.0989 10.1778 20.924 10.1369 20.834C10.096 20.7441 10.0653 20.6191 10.0653 20.5492C10.0653 20.4842 10.0448 20.3743 10.0141 20.2993C9.98851 20.2294 9.92711 19.8196 9.88618 19.3849C9.84014 18.9551 9.79921 18.5703 9.78386 18.5354C9.74293 18.4304 9.60478 18.4654 9.59967 18.5853Z" fill="#000080"/>
</g>
<defs>
<clipPath id="clip0_401_169">
<rect width="36" height="36" fill="white"/>
</clipPath>
</defs>
</svg>
